<?xml version="1.0" encoding="UTF-8" standalone="no"?>
<!-- Created with Inkscape (http://www.inkscape.org/) -->

<svg
   width="240mm"
   height="120mm"
   viewBox="0 0 240 120"
   version="1.1"
   id="svg8"
   inkscape:version="1.2.2 (b0a8486541, 2022-12-01)"
   sodipodi:docname="7_points_theorem_cut_m.svg"
   xmlns:inkscape="http://www.inkscape.org/namespaces/inkscape"
   xmlns:sodipodi="http://sodipodi.sourceforge.net/DTD/sodipodi-0.dtd"
   xmlns="http://www.w3.org/2000/svg"
   xmlns:svg="http://www.w3.org/2000/svg"
   xmlns:rdf="http://www.w3.org/1999/02/22-rdf-syntax-ns#"
   xmlns:cc="http://creativecommons.org/ns#"
   xmlns:dc="http://purl.org/dc/elements/1.1/"
   xmlns:ns5="http://www.iki.fi/pav/software/textext/">
  <defs
     id="defs2">
    <marker
       style="overflow:visible"
       id="Arrow1"
       refX="0"
       refY="0"
       orient="auto-start-reverse"
       inkscape:stockid="Arrow1"
       markerWidth="4.0606604"
       markerHeight="6.7071066"
       viewBox="0 0 4.0606602 6.7071068"
       inkscape:isstock="true"
       inkscape:collect="always"
       preserveAspectRatio="xMidYMid">
      <path
         style="fill:none;stroke:context-stroke;stroke-width:1;stroke-linecap:butt"
         d="M 3,-3 0,0 3,3"
         id="path5057"
         transform="rotate(180,0.125,0)"
         sodipodi:nodetypes="ccc" />
    </marker>
  </defs>
  <sodipodi:namedview
     id="base"
     pagecolor="#ffffff"
     bordercolor="#666666"
     borderopacity="1.0"
     inkscape:pageopacity="0.0"
     inkscape:pageshadow="2"
     inkscape:zoom="1.406257"
     inkscape:cx="351.64269"
     inkscape:cy="417.06458"
     inkscape:document-units="mm"
     inkscape:current-layer="layer1"
     showgrid="false"
     showborder="true"
     width="200mm"
     showguides="true"
     inkscape:guide-bbox="true"
     inkscape:window-width="1280"
     inkscape:window-height="1286"
     inkscape:window-x="0"
     inkscape:window-y="0"
     inkscape:window-maximized="1"
     inkscape:showpageshadow="2"
     inkscape:pagecheckerboard="0"
     inkscape:deskcolor="#d1d1d1">
    <inkscape:grid
       type="xygrid"
       id="grid815"
       units="mm"
       spacingx="10"
       spacingy="10"
       empspacing="4"
       dotted="false" />
  </sodipodi:namedview>
  <metadata
     id="metadata5">
    <rdf:RDF>
      <cc:Work
         rdf:about="">
        <dc:format>image/svg+xml</dc:format>
        <dc:type
           rdf:resource="http://purl.org/dc/dcmitype/StillImage" />
        <dc:title />
      </cc:Work>
    </rdf:RDF>
  </metadata>
  <g
     inkscape:label="Layer 1"
     inkscape:groupmode="layer"
     id="layer1"
     transform="translate(0, -177)">
    <path
       style="fill:#000000;fill-opacity:1;fill-rule:evenodd;stroke:#000000;stroke-width:0.828;paint-order:markers stroke fill;stroke-dasharray:none;marker-end:url(#Arrow1)"
       d="M 16.574934,229.97285 H 220.34362"
       id="path573" />
    <g
       transform="matrix(0.458611,0,0,0.458611,18.694714,234.20989)"
       ns5:version="1.8.2"
       ns5:texconverter="pdflatex"
       ns5:pdfconverter="inkscape"
       ns5:text="$$-M=t_0$$"
       ns5:preamble="/home/buyolitsez/.config/inkscape/extensions/textext/default_packages.tex"
       ns5:scale="1.3"
       ns5:alignment="middle center"
       ns5:stroke-to-path="0"
       ns5:inkscapeversion="1.2.2"
       ns5:jacobian_sqrt="0.458611"
       id="g3646">
      <defs
         id="id-815647fe-6365-4bd3-b774-6dd45dc39178">
        <g
           id="id-1a440256-c6bd-4d87-abe8-97bbaca7eea8">
          <g
             id="id-2886b724-be89-40ab-87d5-4583375d28bc" />
          <g
             id="id-4dced71d-d5ee-4461-8b4f-319324c95ee2">
            <path
               d="m 9.453125,-3.296875 c 0.25,0 0.5,0 0.5,-0.28125 0,-0.296875 -0.25,-0.296875 -0.5,-0.296875 H 1.6875 c -0.234375,0 -0.5,0 -0.5,0.296875 0,0.28125 0.265625,0.28125 0.5,0.28125 z m 0,0"
               id="id-979e9611-a25b-48ba-94b4-ec841e2ab554" />
          </g>
          <g
             id="id-7fce7ce5-feb7-496b-948a-2e9450147423" />
          <g
             id="id-a36bf18b-ef89-4c72-a042-399426c6e1d1">
            <path
               d="m 13.03125,-8.75 c 0.125,-0.484375 0.15625,-0.625 1.171875,-0.625 0.265625,0 0.40625,0 0.40625,-0.28125 0,-0.140625 -0.109375,-0.140625 -0.375,-0.140625 H 12.5 c -0.34375,0 -0.359375,0.015625 -0.515625,0.25 l -5.25,8.265625 -1.0625,-8.203125 c -0.046875,-0.3125 -0.0625,-0.3125 -0.4375,-0.3125 h -1.78125 c -0.265625,0 -0.390625,0 -0.390625,0.265625 0,0.15625 0.125,0.15625 0.34375,0.15625 0.875,0 0.875,0.109375 0.875,0.265625 0,0.03125 0,0.109375 -0.0625,0.328125 L 2.375,-1.46875 c -0.171875,0.6875 -0.5,1.015625 -1.453125,1.046875 -0.046875,0 -0.21875,0.015625 -0.21875,0.265625 C 0.703125,0 0.828125,0 0.890625,0 1.171875,0 1.90625,-0.03125 2.1875,-0.03125 h 0.703125 c 0.1875,0 0.4375,0.03125 0.640625,0.03125 0.09375,0 0.25,0 0.25,-0.265625 0,-0.140625 -0.140625,-0.15625 -0.203125,-0.15625 C 3.109375,-0.4375 2.65625,-0.515625 2.65625,-1.03125 c 0,-0.140625 0,-0.15625 0.0625,-0.359375 l 1.96875,-7.90625 h 0.015625 l 1.1875,8.90625 C 5.9375,-0.046875 5.953125,0 6.078125,0 6.234375,0 6.3125,-0.109375 6.390625,-0.25 L 12.15625,-9.359375 10.078125,-1.0625 c -0.125,0.5 -0.15625,0.640625 -1.15625,0.640625 -0.265625,0 -0.421875,0 -0.421875,0.265625 C 8.5,0 8.640625,0 8.71875,0 8.96875,0 9.25,-0.03125 9.5,-0.03125 h 1.6875 C 11.4375,-0.03125 11.734375,0 11.984375,0 12.09375,0 12.25,0 12.25,-0.265625 c 0,-0.15625 -0.125,-0.15625 -0.34375,-0.15625 -0.875,0 -0.875,-0.109375 -0.875,-0.25 0,-0.015625 0,-0.109375 0.03125,-0.234375 z m 0,0"
               id="id-52b28ec5-472f-46af-9373-c1a1c8e76c9d" />
          </g>
          <g
             id="id-793bc711-8dbc-4428-9028-8e653beb6ddf">
            <path
               d="m 2.890625,-5.765625 h 1.3125 c 0.265625,0 0.421875,0 0.421875,-0.265625 C 4.625,-6.1875 4.53125,-6.1875 4.25,-6.1875 H 2.984375 l 0.53125,-2.09375 c 0.0625,-0.203125 0.0625,-0.21875 0.0625,-0.328125 0,-0.21875 -0.1875,-0.359375 -0.375,-0.359375 -0.125,0 -0.453125,0.046875 -0.5625,0.5 l -0.5625,2.28125 h -1.34375 c -0.296875,0 -0.421875,0 -0.421875,0.28125 0,0.140625 0.109375,0.140625 0.375,0.140625 h 1.28125 l -0.953125,3.78125 c -0.109375,0.5 -0.15625,0.65625 -0.15625,0.84375 0,0.671875 0.46875,1.28125 1.28125,1.28125 1.4375,0 2.21875,-2.09375 2.21875,-2.1875 0,-0.09375 -0.0625,-0.140625 -0.140625,-0.140625 -0.03125,0 -0.09375,0 -0.109375,0.0625 -0.015625,0.015625 -0.03125,0.03125 -0.140625,0.265625 -0.296875,0.71875 -0.953125,1.71875 -1.78125,1.71875 -0.4375,0 -0.46875,-0.359375 -0.46875,-0.671875 0,-0.015625 0,-0.296875 0.046875,-0.46875 z m 0,0"
               id="id-4d9a78a7-0f1a-4f0e-859a-fdd0b1be287f" />
          </g>
          <g
             id="id-c5a01c10-5aab-40f0-8d2a-c45e0e7cae6b" />
          <g
             id="id-c87bb9d8-a18b-48dc-97b2-27638d494c50">
            <path
               d="m 9.6875,-4.640625 c 0.203125,0 0.453125,0 0.453125,-0.265625 0,-0.265625 -0.25,-0.265625 -0.453125,-0.265625 H 1.234375 c -0.203125,0 -0.453125,0 -0.453125,0.25 0,0.28125 0.234375,0.28125 0.453125,0.28125 z m 0,2.65625 c 0.203125,0 0.453125,0 0.453125,-0.25 0,-0.28125 -0.25,-0.28125 -0.453125,-0.28125 H 1.234375 c -0.203125,0 -0.453125,0 -0.453125,0.265625 0,0.265625 0.234375,0.265625 0.453125,0.265625 z m 0,0"
               id="id-1f69ca0f-769d-455c-885b-338620dbe38e" />
          </g>
          <g
             id="id-a6aaf1dc-98cb-45ab-a5c4-ff685eb8e7de" />
          <g
             id="id-61a20302-c59f-4137-b705-a899200be393">
            <path
               d="m 4.578125,-3.1875 c 0,-0.796875 -0.046875,-1.59375 -0.390625,-2.328125 -0.453125,-0.96875 -1.28125,-1.125 -1.6875,-1.125 -0.609375,0 -1.328125,0.265625 -1.75,1.1875 -0.3125,0.6875 -0.359375,1.46875 -0.359375,2.265625 0,0.75 0.03125,1.640625 0.453125,2.40625 0.421875,0.796875 1.15625,1 1.640625,1 0.53125,0 1.296875,-0.203125 1.734375,-1.15625 0.3125,-0.6875 0.359375,-1.46875 0.359375,-2.25 z M 2.484375,0 C 2.09375,0 1.5,-0.25 1.328125,-1.203125 1.21875,-1.796875 1.21875,-2.71875 1.21875,-3.3125 c 0,-0.640625 0,-1.296875 0.078125,-1.828125 0.1875,-1.1875 0.9375,-1.28125 1.1875,-1.28125 0.328125,0 0.984375,0.1875 1.171875,1.171875 0.109375,0.5625 0.109375,1.3125 0.109375,1.9375 0,0.75 0,1.421875 -0.109375,2.0625 C 3.5,-0.296875 2.9375,0 2.484375,0 Z m 0,0"
               id="id-c21794e6-a306-4553-bf07-7b081dccd816" />
          </g>
        </g>
      </defs>
      <g
         fill="#000000"
         fill-opacity="1"
         id="id-c29ba5d7-6f47-4f27-9933-860b66129269"
         transform="translate(-270.978,-57.0871)">
        <g
           transform="translate(269.791,66.884)"
           id="g3627">
          <path
             d="m 9.453125,-3.296875 c 0.25,0 0.5,0 0.5,-0.28125 0,-0.296875 -0.25,-0.296875 -0.5,-0.296875 H 1.6875 c -0.234375,0 -0.5,0 -0.5,0.296875 0,0.28125 0.265625,0.28125 0.5,0.28125 z m 0,0"
             id="id-2656a4ad-c1a1-4997-94d0-c9c2a2649dab" />
        </g>
      </g>
      <g
         fill="#000000"
         fill-opacity="1"
         id="id-40f63987-26c3-4ae5-bbd1-a982a500b5c5"
         transform="translate(-270.978,-57.0871)">
        <g
           transform="translate(280.949,66.884)"
           id="g3631">
          <path
             d="m 13.03125,-8.75 c 0.125,-0.484375 0.15625,-0.625 1.171875,-0.625 0.265625,0 0.40625,0 0.40625,-0.28125 0,-0.140625 -0.109375,-0.140625 -0.375,-0.140625 H 12.5 c -0.34375,0 -0.359375,0.015625 -0.515625,0.25 l -5.25,8.265625 -1.0625,-8.203125 c -0.046875,-0.3125 -0.0625,-0.3125 -0.4375,-0.3125 h -1.78125 c -0.265625,0 -0.390625,0 -0.390625,0.265625 0,0.15625 0.125,0.15625 0.34375,0.15625 0.875,0 0.875,0.109375 0.875,0.265625 0,0.03125 0,0.109375 -0.0625,0.328125 L 2.375,-1.46875 c -0.171875,0.6875 -0.5,1.015625 -1.453125,1.046875 -0.046875,0 -0.21875,0.015625 -0.21875,0.265625 C 0.703125,0 0.828125,0 0.890625,0 1.171875,0 1.90625,-0.03125 2.1875,-0.03125 h 0.703125 c 0.1875,0 0.4375,0.03125 0.640625,0.03125 0.09375,0 0.25,0 0.25,-0.265625 0,-0.140625 -0.140625,-0.15625 -0.203125,-0.15625 C 3.109375,-0.4375 2.65625,-0.515625 2.65625,-1.03125 c 0,-0.140625 0,-0.15625 0.0625,-0.359375 l 1.96875,-7.90625 h 0.015625 l 1.1875,8.90625 C 5.9375,-0.046875 5.953125,0 6.078125,0 6.234375,0 6.3125,-0.109375 6.390625,-0.25 L 12.15625,-9.359375 10.078125,-1.0625 c -0.125,0.5 -0.15625,0.640625 -1.15625,0.640625 -0.265625,0 -0.421875,0 -0.421875,0.265625 C 8.5,0 8.640625,0 8.71875,0 8.96875,0 9.25,-0.03125 9.5,-0.03125 h 1.6875 C 11.4375,-0.03125 11.734375,0 11.984375,0 12.09375,0 12.25,0 12.25,-0.265625 c 0,-0.15625 -0.125,-0.15625 -0.34375,-0.15625 -0.875,0 -0.875,-0.109375 -0.875,-0.25 0,-0.015625 0,-0.109375 0.03125,-0.234375 z m 0,0"
             id="id-2679398c-c9e9-4e7b-9909-dcb4953aaf13" />
        </g>
      </g>
      <g
         fill="#000000"
         fill-opacity="1"
         id="id-286812fc-fe16-4b66-910a-163a5fa081b2"
         transform="translate(-270.978,-57.0871)">
        <g
           transform="translate(300.022,66.884)"
           id="g3635">
          <path
             d="m 9.6875,-4.640625 c 0.203125,0 0.453125,0 0.453125,-0.265625 0,-0.265625 -0.25,-0.265625 -0.453125,-0.265625 H 1.234375 c -0.203125,0 -0.453125,0 -0.453125,0.25 0,0.28125 0.234375,0.28125 0.453125,0.28125 z m 0,2.65625 c 0.203125,0 0.453125,0 0.453125,-0.25 0,-0.28125 -0.25,-0.28125 -0.453125,-0.28125 H 1.234375 c -0.203125,0 -0.453125,0 -0.453125,0.265625 0,0.265625 0.234375,0.265625 0.453125,0.265625 z m 0,0"
             id="id-c7aa808d-ea26-49fe-a2e0-be93107a6394" />
        </g>
      </g>
      <g
         fill="#000000"
         fill-opacity="1"
         id="id-81d29f03-5d21-473a-90ab-ee78b53ffbc7"
         transform="translate(-270.978,-57.0871)">
        <g
           transform="translate(314.933,66.884)"
           id="g3639">
          <path
             d="m 2.890625,-5.765625 h 1.3125 c 0.265625,0 0.421875,0 0.421875,-0.265625 C 4.625,-6.1875 4.53125,-6.1875 4.25,-6.1875 H 2.984375 l 0.53125,-2.09375 c 0.0625,-0.203125 0.0625,-0.21875 0.0625,-0.328125 0,-0.21875 -0.1875,-0.359375 -0.375,-0.359375 -0.125,0 -0.453125,0.046875 -0.5625,0.5 l -0.5625,2.28125 h -1.34375 c -0.296875,0 -0.421875,0 -0.421875,0.28125 0,0.140625 0.109375,0.140625 0.375,0.140625 h 1.28125 l -0.953125,3.78125 c -0.109375,0.5 -0.15625,0.65625 -0.15625,0.84375 0,0.671875 0.46875,1.28125 1.28125,1.28125 1.4375,0 2.21875,-2.09375 2.21875,-2.1875 0,-0.09375 -0.0625,-0.140625 -0.140625,-0.140625 -0.03125,0 -0.09375,0 -0.109375,0.0625 -0.015625,0.015625 -0.03125,0.03125 -0.140625,0.265625 -0.296875,0.71875 -0.953125,1.71875 -1.78125,1.71875 -0.4375,0 -0.46875,-0.359375 -0.46875,-0.671875 0,-0.015625 0,-0.296875 0.046875,-0.46875 z m 0,0"
             id="id-26c41144-dc57-47c4-9869-3db86c3cfbb0" />
        </g>
      </g>
      <g
         fill="#000000"
         fill-opacity="1"
         id="id-89b4965b-3bc5-4c18-9ae8-437b19ce6c66"
         transform="translate(-270.978,-57.0871)">
        <g
           transform="translate(320.005,69.036)"
           id="g3643">
          <path
             d="m 4.578125,-3.1875 c 0,-0.796875 -0.046875,-1.59375 -0.390625,-2.328125 -0.453125,-0.96875 -1.28125,-1.125 -1.6875,-1.125 -0.609375,0 -1.328125,0.265625 -1.75,1.1875 -0.3125,0.6875 -0.359375,1.46875 -0.359375,2.265625 0,0.75 0.03125,1.640625 0.453125,2.40625 0.421875,0.796875 1.15625,1 1.640625,1 0.53125,0 1.296875,-0.203125 1.734375,-1.15625 0.3125,-0.6875 0.359375,-1.46875 0.359375,-2.25 z M 2.484375,0 C 2.09375,0 1.5,-0.25 1.328125,-1.203125 1.21875,-1.796875 1.21875,-2.71875 1.21875,-3.3125 c 0,-0.640625 0,-1.296875 0.078125,-1.828125 0.1875,-1.1875 0.9375,-1.28125 1.1875,-1.28125 0.328125,0 0.984375,0.1875 1.171875,1.171875 0.109375,0.5625 0.109375,1.3125 0.109375,1.9375 0,0.75 0,1.421875 -0.109375,2.0625 C 3.5,-0.296875 2.9375,0 2.484375,0 Z m 0,0"
             id="id-38777c62-a926-4958-b0c5-36a73effcbeb" />
        </g>
      </g>
    </g>
    <g
       transform="matrix(0.458611,0,0,0.458611,53.763347,234.44997)"
       ns5:version="1.8.2"
       ns5:texconverter="pdflatex"
       ns5:pdfconverter="inkscape"
       ns5:text="$$t_1$$"
       ns5:preamble="/home/buyolitsez/.config/inkscape/extensions/textext/default_packages.tex"
       ns5:scale="1.3"
       ns5:alignment="middle center"
       ns5:stroke-to-path="0"
       ns5:inkscapeversion="1.2.2"
       ns5:jacobian_sqrt="0.458611"
       id="g4527">
      <defs
         id="id-587a210d-70a5-4ed5-8c2e-393322c33110">
        <g
           id="id-e36d42a2-d5d2-4861-8d3f-65cf90ac647f">
          <g
             id="id-b1cb5ae5-d0f6-41e5-b3b9-8f17f3cbfa70" />
          <g
             id="id-e81b2921-f3c3-4500-99c0-0f09d0a26b57">
            <path
               d="m 2.890625,-5.765625 h 1.3125 c 0.265625,0 0.421875,0 0.421875,-0.265625 C 4.625,-6.1875 4.53125,-6.1875 4.25,-6.1875 H 2.984375 l 0.53125,-2.09375 c 0.0625,-0.203125 0.0625,-0.21875 0.0625,-0.328125 0,-0.21875 -0.1875,-0.359375 -0.375,-0.359375 -0.125,0 -0.453125,0.046875 -0.5625,0.5 l -0.5625,2.28125 h -1.34375 c -0.296875,0 -0.421875,0 -0.421875,0.28125 0,0.140625 0.109375,0.140625 0.375,0.140625 h 1.28125 l -0.953125,3.78125 c -0.109375,0.5 -0.15625,0.65625 -0.15625,0.84375 0,0.671875 0.46875,1.28125 1.28125,1.28125 1.4375,0 2.21875,-2.09375 2.21875,-2.1875 0,-0.09375 -0.0625,-0.140625 -0.140625,-0.140625 -0.03125,0 -0.09375,0 -0.109375,0.0625 -0.015625,0.015625 -0.03125,0.03125 -0.140625,0.265625 -0.296875,0.71875 -0.953125,1.71875 -1.78125,1.71875 -0.4375,0 -0.46875,-0.359375 -0.46875,-0.671875 0,-0.015625 0,-0.296875 0.046875,-0.46875 z m 0,0"
               id="id-d71990e5-7f39-498b-b31c-c7f31107f959" />
          </g>
          <g
             id="id-42682116-6b02-4d8b-830f-5e47e97bc82a" />
          <g
             id="id-181d2e33-b578-45a4-953e-90dc83ba20b3">
            <path
               d="m 2.9375,-6.375 c 0,-0.25 0,-0.265625 -0.234375,-0.265625 C 2.078125,-6 1.203125,-6 0.890625,-6 v 0.3125 c 0.203125,0 0.78125,0 1.296875,-0.265625 v 5.171875 c 0,0.359375 -0.03125,0.46875 -0.921875,0.46875 h -0.3125 V 0 c 0.34375,-0.03125 1.203125,-0.03125 1.609375,-0.03125 0.390625,0 1.265625,0 1.609375,0.03125 v -0.3125 h -0.3125 c -0.90625,0 -0.921875,-0.109375 -0.921875,-0.46875 z m 0,0"
               id="id-18d3bd71-2d0e-482d-a310-56e3ad4dc662" />
          </g>
        </g>
      </defs>
      <g
         fill="#000000"
         fill-opacity="1"
         id="id-f6a7ff8f-1009-464c-8895-da33604846dc"
         transform="translate(-292.675,-57.9153)">
        <g
           transform="translate(292.362,66.884)"
           id="g4520">
          <path
             d="m 2.890625,-5.765625 h 1.3125 c 0.265625,0 0.421875,0 0.421875,-0.265625 C 4.625,-6.1875 4.53125,-6.1875 4.25,-6.1875 H 2.984375 l 0.53125,-2.09375 c 0.0625,-0.203125 0.0625,-0.21875 0.0625,-0.328125 0,-0.21875 -0.1875,-0.359375 -0.375,-0.359375 -0.125,0 -0.453125,0.046875 -0.5625,0.5 l -0.5625,2.28125 h -1.34375 c -0.296875,0 -0.421875,0 -0.421875,0.28125 0,0.140625 0.109375,0.140625 0.375,0.140625 h 1.28125 l -0.953125,3.78125 c -0.109375,0.5 -0.15625,0.65625 -0.15625,0.84375 0,0.671875 0.46875,1.28125 1.28125,1.28125 1.4375,0 2.21875,-2.09375 2.21875,-2.1875 0,-0.09375 -0.0625,-0.140625 -0.140625,-0.140625 -0.03125,0 -0.09375,0 -0.109375,0.0625 -0.015625,0.015625 -0.03125,0.03125 -0.140625,0.265625 -0.296875,0.71875 -0.953125,1.71875 -1.78125,1.71875 -0.4375,0 -0.46875,-0.359375 -0.46875,-0.671875 0,-0.015625 0,-0.296875 0.046875,-0.46875 z m 0,0"
             id="id-0dd81728-f5c3-4d4e-8765-32044ee26a3b" />
        </g>
      </g>
      <g
         fill="#000000"
         fill-opacity="1"
         id="id-1554ced7-71ff-47d4-8714-70f30869d28c"
         transform="translate(-292.675,-57.9153)">
        <g
           transform="translate(297.434,69.036)"
           id="g4524">
          <path
             d="m 2.9375,-6.375 c 0,-0.25 0,-0.265625 -0.234375,-0.265625 C 2.078125,-6 1.203125,-6 0.890625,-6 v 0.3125 c 0.203125,0 0.78125,0 1.296875,-0.265625 v 5.171875 c 0,0.359375 -0.03125,0.46875 -0.921875,0.46875 h -0.3125 V 0 c 0.34375,-0.03125 1.203125,-0.03125 1.609375,-0.03125 0.390625,0 1.265625,0 1.609375,0.03125 v -0.3125 h -0.3125 c -0.90625,0 -0.921875,-0.109375 -0.921875,-0.46875 z m 0,0"
             id="id-a66680c5-f071-4874-985b-c9962dab3574" />
        </g>
      </g>
    </g>
    <g
       transform="matrix(0.458611,0,0,0.458611,79.221979,234.44997)"
       ns5:version="1.8.2"
       ns5:texconverter="pdflatex"
       ns5:pdfconverter="inkscape"
       ns5:text="$$t_2$$"
       ns5:preamble="/home/buyolitsez/.config/inkscape/extensions/textext/default_packages.tex"
       ns5:scale="1.3"
       ns5:alignment="middle center"
       ns5:stroke-to-path="0"
       ns5:inkscapeversion="1.2.2"
       ns5:jacobian_sqrt="0.458611"
       id="g4679">
      <defs
         id="id-bfbd849e-c5a8-4a36-a847-653c995272f7">
        <g
           id="id-54cb1630-b28f-4134-81cd-08411e618fd3">
          <g
             id="id-39cd1c0b-2eb1-46fb-816b-3a3e6f2663f6" />
          <g
             id="id-b2c649e7-a03e-4095-854d-6756489815d7">
            <path
               d="m 2.890625,-5.765625 h 1.3125 c 0.265625,0 0.421875,0 0.421875,-0.265625 C 4.625,-6.1875 4.53125,-6.1875 4.25,-6.1875 H 2.984375 l 0.53125,-2.09375 c 0.0625,-0.203125 0.0625,-0.21875 0.0625,-0.328125 0,-0.21875 -0.1875,-0.359375 -0.375,-0.359375 -0.125,0 -0.453125,0.046875 -0.5625,0.5 l -0.5625,2.28125 h -1.34375 c -0.296875,0 -0.421875,0 -0.421875,0.28125 0,0.140625 0.109375,0.140625 0.375,0.140625 h 1.28125 l -0.953125,3.78125 c -0.109375,0.5 -0.15625,0.65625 -0.15625,0.84375 0,0.671875 0.46875,1.28125 1.28125,1.28125 1.4375,0 2.21875,-2.09375 2.21875,-2.1875 0,-0.09375 -0.0625,-0.140625 -0.140625,-0.140625 -0.03125,0 -0.09375,0 -0.109375,0.0625 -0.015625,0.015625 -0.03125,0.03125 -0.140625,0.265625 -0.296875,0.71875 -0.953125,1.71875 -1.78125,1.71875 -0.4375,0 -0.46875,-0.359375 -0.46875,-0.671875 0,-0.015625 0,-0.296875 0.046875,-0.46875 z m 0,0"
               id="id-c9cb99d3-7c79-45c5-9baf-1fc8b298e52b" />
          </g>
          <g
             id="id-b540ad3c-62b6-4940-94c3-de28a155eef2" />
          <g
             id="id-6cb6c3a2-1ae6-4b6b-8133-bb37bebe0e14">
            <path
               d="m 1.265625,-0.765625 1.0625,-1.03125 c 1.546875,-1.375 2.140625,-1.90625 2.140625,-2.90625 0,-1.140625 -0.890625,-1.9375 -2.109375,-1.9375 -1.125,0 -1.859375,0.921875 -1.859375,1.8125 0,0.546875 0.5,0.546875 0.53125,0.546875 0.171875,0 0.515625,-0.109375 0.515625,-0.53125 0,-0.25 -0.1875,-0.515625 -0.53125,-0.515625 -0.078125,0 -0.09375,0 -0.125,0.015625 0.21875,-0.65625 0.765625,-1.015625 1.34375,-1.015625 0.90625,0 1.328125,0.8125 1.328125,1.625 C 3.5625,-3.90625 3.078125,-3.125 2.515625,-2.5 l -1.90625,2.125 C 0.5,-0.265625 0.5,-0.234375 0.5,0 H 4.203125 L 4.46875,-1.734375 H 4.234375 C 4.171875,-1.4375 4.109375,-1 4,-0.84375 3.9375,-0.765625 3.28125,-0.765625 3.0625,-0.765625 Z m 0,0"
               id="id-0f1af173-cada-4845-8180-1600fb7e17a4" />
          </g>
        </g>
      </defs>
      <g
         fill="#000000"
         fill-opacity="1"
         id="id-1e22df0b-07bb-4f9a-8f12-4a0c7513a89c"
         transform="translate(-292.675,-57.9153)">
        <g
           transform="translate(292.362,66.884)"
           id="g4672">
          <path
             d="m 2.890625,-5.765625 h 1.3125 c 0.265625,0 0.421875,0 0.421875,-0.265625 C 4.625,-6.1875 4.53125,-6.1875 4.25,-6.1875 H 2.984375 l 0.53125,-2.09375 c 0.0625,-0.203125 0.0625,-0.21875 0.0625,-0.328125 0,-0.21875 -0.1875,-0.359375 -0.375,-0.359375 -0.125,0 -0.453125,0.046875 -0.5625,0.5 l -0.5625,2.28125 h -1.34375 c -0.296875,0 -0.421875,0 -0.421875,0.28125 0,0.140625 0.109375,0.140625 0.375,0.140625 h 1.28125 l -0.953125,3.78125 c -0.109375,0.5 -0.15625,0.65625 -0.15625,0.84375 0,0.671875 0.46875,1.28125 1.28125,1.28125 1.4375,0 2.21875,-2.09375 2.21875,-2.1875 0,-0.09375 -0.0625,-0.140625 -0.140625,-0.140625 -0.03125,0 -0.09375,0 -0.109375,0.0625 -0.015625,0.015625 -0.03125,0.03125 -0.140625,0.265625 -0.296875,0.71875 -0.953125,1.71875 -1.78125,1.71875 -0.4375,0 -0.46875,-0.359375 -0.46875,-0.671875 0,-0.015625 0,-0.296875 0.046875,-0.46875 z m 0,0"
             id="id-d4e5e37a-13b4-4032-b78b-be8a74d78b28" />
        </g>
      </g>
      <g
         fill="#000000"
         fill-opacity="1"
         id="id-1fb3a81a-a9e5-4eae-bc61-2dd147ef806c"
         transform="translate(-292.675,-57.9153)">
        <g
           transform="translate(297.434,69.036)"
           id="g4676">
          <path
             d="m 1.265625,-0.765625 1.0625,-1.03125 c 1.546875,-1.375 2.140625,-1.90625 2.140625,-2.90625 0,-1.140625 -0.890625,-1.9375 -2.109375,-1.9375 -1.125,0 -1.859375,0.921875 -1.859375,1.8125 0,0.546875 0.5,0.546875 0.53125,0.546875 0.171875,0 0.515625,-0.109375 0.515625,-0.53125 0,-0.25 -0.1875,-0.515625 -0.53125,-0.515625 -0.078125,0 -0.09375,0 -0.125,0.015625 0.21875,-0.65625 0.765625,-1.015625 1.34375,-1.015625 0.90625,0 1.328125,0.8125 1.328125,1.625 C 3.5625,-3.90625 3.078125,-3.125 2.515625,-2.5 l -1.90625,2.125 C 0.5,-0.265625 0.5,-0.234375 0.5,0 H 4.203125 L 4.46875,-1.734375 H 4.234375 C 4.171875,-1.4375 4.109375,-1 4,-0.84375 3.9375,-0.765625 3.28125,-0.765625 3.0625,-0.765625 Z m 0,0"
             id="id-69952f24-e9ee-40e3-8bad-83e15fcc6b18" />
        </g>
      </g>
    </g>
    <g
       transform="matrix(0.458611,0,0,0.458611,103.43541,234.39981)"
       ns5:version="1.8.2"
       ns5:texconverter="pdflatex"
       ns5:pdfconverter="inkscape"
       ns5:text="$$t_3$$"
       ns5:preamble="/home/buyolitsez/.config/inkscape/extensions/textext/default_packages.tex"
       ns5:scale="1.3"
       ns5:alignment="middle center"
       ns5:stroke-to-path="0"
       ns5:inkscapeversion="1.2.2"
       ns5:jacobian_sqrt="0.458611"
       id="g4861">
      <defs
         id="id-3e6f2541-f683-40d6-81af-a780277865f8">
        <g
           id="id-98dd76cf-32d1-4c94-8428-ec636dc280a9">
          <g
             id="id-f0eb490c-e3e3-4d30-b0d5-31768c9fe49c" />
          <g
             id="id-4fb211f6-96f7-4320-993c-6c8532cb2534">
            <path
               d="m 2.890625,-5.765625 h 1.3125 c 0.265625,0 0.421875,0 0.421875,-0.265625 C 4.625,-6.1875 4.53125,-6.1875 4.25,-6.1875 H 2.984375 l 0.53125,-2.09375 c 0.0625,-0.203125 0.0625,-0.21875 0.0625,-0.328125 0,-0.21875 -0.1875,-0.359375 -0.375,-0.359375 -0.125,0 -0.453125,0.046875 -0.5625,0.5 l -0.5625,2.28125 h -1.34375 c -0.296875,0 -0.421875,0 -0.421875,0.28125 0,0.140625 0.109375,0.140625 0.375,0.140625 h 1.28125 l -0.953125,3.78125 c -0.109375,0.5 -0.15625,0.65625 -0.15625,0.84375 0,0.671875 0.46875,1.28125 1.28125,1.28125 1.4375,0 2.21875,-2.09375 2.21875,-2.1875 0,-0.09375 -0.0625,-0.140625 -0.140625,-0.140625 -0.03125,0 -0.09375,0 -0.109375,0.0625 -0.015625,0.015625 -0.03125,0.03125 -0.140625,0.265625 -0.296875,0.71875 -0.953125,1.71875 -1.78125,1.71875 -0.4375,0 -0.46875,-0.359375 -0.46875,-0.671875 0,-0.015625 0,-0.296875 0.046875,-0.46875 z m 0,0"
               id="id-cd2b9f86-c535-4a30-9c3c-ece867393385" />
          </g>
          <g
             id="id-dd401193-e07b-42b0-a962-8c752790e666" />
          <g
             id="id-2d329479-848c-4472-9735-a894ed57f11a">
            <path
               d="m 2.890625,-3.515625 c 0.8125,-0.265625 1.390625,-0.953125 1.390625,-1.75 0,-0.8125 -0.875,-1.375 -1.828125,-1.375 -1,0 -1.765625,0.59375 -1.765625,1.359375 0,0.328125 0.21875,0.515625 0.515625,0.515625 0.296875,0 0.5,-0.21875 0.5,-0.515625 0,-0.484375 -0.46875,-0.484375 -0.609375,-0.484375 0.296875,-0.5 0.953125,-0.625 1.3125,-0.625 0.421875,0 0.96875,0.21875 0.96875,1.109375 0,0.125 -0.03125,0.703125 -0.28125,1.140625 C 2.796875,-3.65625 2.453125,-3.625 2.203125,-3.625 2.125,-3.609375 1.890625,-3.59375 1.8125,-3.59375 c -0.078125,0.015625 -0.140625,0.03125 -0.140625,0.125 0,0.109375 0.0625,0.109375 0.234375,0.109375 h 0.4375 c 0.8125,0 1.1875,0.671875 1.1875,1.65625 0,1.359375 -0.6875,1.640625 -1.125,1.640625 -0.4375,0 -1.1875,-0.171875 -1.53125,-0.75 0.34375,0.046875 0.65625,-0.171875 0.65625,-0.546875 0,-0.359375 -0.265625,-0.5625 -0.546875,-0.5625 -0.25,0 -0.5625,0.140625 -0.5625,0.578125 0,0.90625 0.921875,1.5625 2.015625,1.5625 1.21875,0 2.125,-0.90625 2.125,-1.921875 0,-0.8125 -0.640625,-1.59375 -1.671875,-1.8125 z m 0,0"
               id="id-f9073951-1a88-41a9-b570-de52b1ab3cce" />
          </g>
        </g>
      </defs>
      <g
         fill="#000000"
         fill-opacity="1"
         id="id-cdec7f0c-31f7-43eb-a6b7-d32dd4432345"
         transform="translate(-292.675,-57.9153)">
        <g
           transform="translate(292.362,66.884)"
           id="g4854">
          <path
             d="m 2.890625,-5.765625 h 1.3125 c 0.265625,0 0.421875,0 0.421875,-0.265625 C 4.625,-6.1875 4.53125,-6.1875 4.25,-6.1875 H 2.984375 l 0.53125,-2.09375 c 0.0625,-0.203125 0.0625,-0.21875 0.0625,-0.328125 0,-0.21875 -0.1875,-0.359375 -0.375,-0.359375 -0.125,0 -0.453125,0.046875 -0.5625,0.5 l -0.5625,2.28125 h -1.34375 c -0.296875,0 -0.421875,0 -0.421875,0.28125 0,0.140625 0.109375,0.140625 0.375,0.140625 h 1.28125 l -0.953125,3.78125 c -0.109375,0.5 -0.15625,0.65625 -0.15625,0.84375 0,0.671875 0.46875,1.28125 1.28125,1.28125 1.4375,0 2.21875,-2.09375 2.21875,-2.1875 0,-0.09375 -0.0625,-0.140625 -0.140625,-0.140625 -0.03125,0 -0.09375,0 -0.109375,0.0625 -0.015625,0.015625 -0.03125,0.03125 -0.140625,0.265625 -0.296875,0.71875 -0.953125,1.71875 -1.78125,1.71875 -0.4375,0 -0.46875,-0.359375 -0.46875,-0.671875 0,-0.015625 0,-0.296875 0.046875,-0.46875 z m 0,0"
             id="id-e74ba7af-5635-47e8-b7a9-0a02250fa561" />
        </g>
      </g>
      <g
         fill="#000000"
         fill-opacity="1"
         id="id-b5a1efd7-b02b-4dc5-a09c-9f8cd3c6500e"
         transform="translate(-292.675,-57.9153)">
        <g
           transform="translate(297.434,69.036)"
           id="g4858">
          <path
             d="m 2.890625,-3.515625 c 0.8125,-0.265625 1.390625,-0.953125 1.390625,-1.75 0,-0.8125 -0.875,-1.375 -1.828125,-1.375 -1,0 -1.765625,0.59375 -1.765625,1.359375 0,0.328125 0.21875,0.515625 0.515625,0.515625 0.296875,0 0.5,-0.21875 0.5,-0.515625 0,-0.484375 -0.46875,-0.484375 -0.609375,-0.484375 0.296875,-0.5 0.953125,-0.625 1.3125,-0.625 0.421875,0 0.96875,0.21875 0.96875,1.109375 0,0.125 -0.03125,0.703125 -0.28125,1.140625 C 2.796875,-3.65625 2.453125,-3.625 2.203125,-3.625 2.125,-3.609375 1.890625,-3.59375 1.8125,-3.59375 c -0.078125,0.015625 -0.140625,0.03125 -0.140625,0.125 0,0.109375 0.0625,0.109375 0.234375,0.109375 h 0.4375 c 0.8125,0 1.1875,0.671875 1.1875,1.65625 0,1.359375 -0.6875,1.640625 -1.125,1.640625 -0.4375,0 -1.1875,-0.171875 -1.53125,-0.75 0.34375,0.046875 0.65625,-0.171875 0.65625,-0.546875 0,-0.359375 -0.265625,-0.5625 -0.546875,-0.5625 -0.25,0 -0.5625,0.140625 -0.5625,0.578125 0,0.90625 0.921875,1.5625 2.015625,1.5625 1.21875,0 2.125,-0.90625 2.125,-1.921875 0,-0.8125 -0.640625,-1.59375 -1.671875,-1.8125 z m 0,0"
             id="id-e3510c24-54d8-436e-81f4-396ba4c8957a" />
        </g>
      </g>
    </g>
    <g
       transform="matrix(0.458611,0,0,0.458611,118.68267,236.68113)"
       ns5:version="1.8.2"
       ns5:texconverter="pdflatex"
       ns5:pdfconverter="inkscape"
       ns5:text="$$\\dots$$"
       ns5:preamble="/home/buyolitsez/.config/inkscape/extensions/textext/default_packages.tex"
       ns5:scale="1.3"
       ns5:alignment="middle center"
       ns5:stroke-to-path="0"
       ns5:inkscapeversion="1.2.2"
       ns5:jacobian_sqrt="0.458611"
       id="g5268">
      <defs
         id="id-63cfb47f-c530-4142-aea6-13119ec55f5d">
        <g
           id="id-480d2184-b378-4ad4-92b7-f757a7eb6851">
          <g
             id="id-aa0337b7-6dfa-4af5-aebe-0a96ed2443b6" />
          <g
             id="id-e6ca1e77-edf0-4f40-9c74-caf507dfcb7d">
            <path
               d="m 2.640625,-0.6875 c 0,-0.421875 -0.34375,-0.703125 -0.6875,-0.703125 -0.421875,0 -0.703125,0.34375 -0.703125,0.6875 C 1.25,-0.28125 1.59375,0 1.9375,0 2.359375,0 2.640625,-0.34375 2.640625,-0.6875 Z m 0,0"
               id="id-75e8a897-e8f9-48de-8905-4d1d153827b5" />
          </g>
        </g>
      </defs>
      <g
         fill="#000000"
         fill-opacity="1"
         id="id-4ad68b00-3493-4afb-bbf7-ff49ff8866fb"
         transform="translate(-289.448,-65.4934)">
        <g
           transform="translate(288.198,66.884)"
           id="g5257">
          <path
             d="m 2.640625,-0.6875 c 0,-0.421875 -0.34375,-0.703125 -0.6875,-0.703125 -0.421875,0 -0.703125,0.34375 -0.703125,0.6875 C 1.25,-0.28125 1.59375,0 1.9375,0 2.359375,0 2.640625,-0.34375 2.640625,-0.6875 Z m 0,0"
             id="id-7b3d168b-107c-46d9-9783-381a936bd9ff" />
        </g>
      </g>
      <g
         fill="#000000"
         fill-opacity="1"
         id="id-a2c5882c-e871-4c00-a25e-3074446887df"
         transform="translate(-289.448,-65.4934)">
        <g
           transform="translate(294.496,66.884)"
           id="g5261">
          <path
             d="m 2.640625,-0.6875 c 0,-0.421875 -0.34375,-0.703125 -0.6875,-0.703125 -0.421875,0 -0.703125,0.34375 -0.703125,0.6875 C 1.25,-0.28125 1.59375,0 1.9375,0 2.359375,0 2.640625,-0.34375 2.640625,-0.6875 Z m 0,0"
             id="id-cec6dae0-829f-4d6d-a217-519e283d6d97" />
        </g>
      </g>
      <g
         fill="#000000"
         fill-opacity="1"
         id="id-039354e2-603f-4835-8492-d20553b0eb44"
         transform="translate(-289.448,-65.4934)">
        <g
           transform="translate(300.78,66.884)"
           id="g5265">
          <path
             d="m 2.640625,-0.6875 c 0,-0.421875 -0.34375,-0.703125 -0.6875,-0.703125 -0.421875,0 -0.703125,0.34375 -0.703125,0.6875 C 1.25,-0.28125 1.59375,0 1.9375,0 2.359375,0 2.640625,-0.34375 2.640625,-0.6875 Z m 0,0"
             id="id-9006ce5e-8568-484e-9693-9e2e789effb9" />
        </g>
      </g>
    </g>
    <g
       transform="matrix(0.458611,0,0,0.458611,168.32442,234.23497)"
       ns5:version="1.8.2"
       ns5:texconverter="pdflatex"
       ns5:pdfconverter="inkscape"
       ns5:text="$$M=t_m$$"
       ns5:preamble="/home/buyolitsez/.config/inkscape/extensions/textext/default_packages.tex"
       ns5:scale="1.3"
       ns5:alignment="middle center"
       ns5:stroke-to-path="0"
       ns5:inkscapeversion="1.2.2"
       ns5:jacobian_sqrt="0.458611"
       id="g6261">
      <defs
         id="id-be29c136-5bc5-4a7d-90b6-6c092e28e3bb">
        <g
           id="id-3e0d4b54-3783-46f5-8c34-aa32eefcf479">
          <g
             id="id-69c1622d-5fb1-41f8-a449-9c6b80fc8356" />
          <g
             id="id-6b8d72c4-8940-48f3-8524-298955d3f703">
            <path
               d="m 13.03125,-8.75 c 0.125,-0.484375 0.15625,-0.625 1.171875,-0.625 0.265625,0 0.40625,0 0.40625,-0.28125 0,-0.140625 -0.109375,-0.140625 -0.375,-0.140625 H 12.5 c -0.34375,0 -0.359375,0.015625 -0.515625,0.25 l -5.25,8.265625 -1.0625,-8.203125 c -0.046875,-0.3125 -0.0625,-0.3125 -0.4375,-0.3125 h -1.78125 c -0.265625,0 -0.390625,0 -0.390625,0.265625 0,0.15625 0.125,0.15625 0.34375,0.15625 0.875,0 0.875,0.109375 0.875,0.265625 0,0.03125 0,0.109375 -0.0625,0.328125 L 2.375,-1.46875 c -0.171875,0.6875 -0.5,1.015625 -1.453125,1.046875 -0.046875,0 -0.21875,0.015625 -0.21875,0.265625 C 0.703125,0 0.828125,0 0.890625,0 1.171875,0 1.90625,-0.03125 2.1875,-0.03125 h 0.703125 c 0.1875,0 0.4375,0.03125 0.640625,0.03125 0.09375,0 0.25,0 0.25,-0.265625 0,-0.140625 -0.140625,-0.15625 -0.203125,-0.15625 C 3.109375,-0.4375 2.65625,-0.515625 2.65625,-1.03125 c 0,-0.140625 0,-0.15625 0.0625,-0.359375 l 1.96875,-7.90625 h 0.015625 l 1.1875,8.90625 C 5.9375,-0.046875 5.953125,0 6.078125,0 6.234375,0 6.3125,-0.109375 6.390625,-0.25 L 12.15625,-9.359375 10.078125,-1.0625 c -0.125,0.5 -0.15625,0.640625 -1.15625,0.640625 -0.265625,0 -0.421875,0 -0.421875,0.265625 C 8.5,0 8.640625,0 8.71875,0 8.96875,0 9.25,-0.03125 9.5,-0.03125 h 1.6875 C 11.4375,-0.03125 11.734375,0 11.984375,0 12.09375,0 12.25,0 12.25,-0.265625 c 0,-0.15625 -0.125,-0.15625 -0.34375,-0.15625 -0.875,0 -0.875,-0.109375 -0.875,-0.25 0,-0.015625 0,-0.109375 0.03125,-0.234375 z m 0,0"
               id="id-fc69e738-d3e3-4e70-bc3f-35fec87eb1aa" />
          </g>
          <g
             id="id-46183f91-0f4f-400b-b150-5ff95080cb2a">
            <path
               d="m 2.890625,-5.765625 h 1.3125 c 0.265625,0 0.421875,0 0.421875,-0.265625 C 4.625,-6.1875 4.53125,-6.1875 4.25,-6.1875 H 2.984375 l 0.53125,-2.09375 c 0.0625,-0.203125 0.0625,-0.21875 0.0625,-0.328125 0,-0.21875 -0.1875,-0.359375 -0.375,-0.359375 -0.125,0 -0.453125,0.046875 -0.5625,0.5 l -0.5625,2.28125 h -1.34375 c -0.296875,0 -0.421875,0 -0.421875,0.28125 0,0.140625 0.109375,0.140625 0.375,0.140625 h 1.28125 l -0.953125,3.78125 c -0.109375,0.5 -0.15625,0.65625 -0.15625,0.84375 0,0.671875 0.46875,1.28125 1.28125,1.28125 1.4375,0 2.21875,-2.09375 2.21875,-2.1875 0,-0.09375 -0.0625,-0.140625 -0.140625,-0.140625 -0.03125,0 -0.09375,0 -0.109375,0.0625 -0.015625,0.015625 -0.03125,0.03125 -0.140625,0.265625 -0.296875,0.71875 -0.953125,1.71875 -1.78125,1.71875 -0.4375,0 -0.46875,-0.359375 -0.46875,-0.671875 0,-0.015625 0,-0.296875 0.046875,-0.46875 z m 0,0"
               id="id-9028b3e8-909a-4799-88e5-e4af01ddb882" />
          </g>
          <g
             id="id-2c85459a-a166-4d53-980f-9a4e3608bf95" />
          <g
             id="id-c1a2760c-bd15-4c1b-a3e6-d03afc78831b">
            <path
               d="m 9.6875,-4.640625 c 0.203125,0 0.453125,0 0.453125,-0.265625 0,-0.265625 -0.25,-0.265625 -0.453125,-0.265625 H 1.234375 c -0.203125,0 -0.453125,0 -0.453125,0.25 0,0.28125 0.234375,0.28125 0.453125,0.28125 z m 0,2.65625 c 0.203125,0 0.453125,0 0.453125,-0.25 0,-0.28125 -0.25,-0.28125 -0.453125,-0.28125 H 1.234375 c -0.203125,0 -0.453125,0 -0.453125,0.265625 0,0.265625 0.234375,0.265625 0.453125,0.265625 z m 0,0"
               id="id-af0ef159-eac8-4f1a-bc7a-6ed481a77602" />
          </g>
          <g
             id="id-449d0e15-159b-4bcd-bcda-7f9f33bf379f" />
          <g
             id="id-2de6ef2c-c781-4975-93d3-db49a5c2744e">
            <path
               d="m 0.875,-0.59375 c -0.03125,0.15625 -0.09375,0.390625 -0.09375,0.4375 0,0.171875 0.140625,0.265625 0.296875,0.265625 0.125,0 0.296875,-0.078125 0.375,-0.28125 0,-0.015625 0.125,-0.484375 0.1875,-0.734375 l 0.21875,-0.890625 C 1.90625,-2.03125 1.96875,-2.25 2.03125,-2.46875 c 0.03125,-0.171875 0.109375,-0.46875 0.125,-0.5 0.140625,-0.3125 0.671875,-1.21875 1.625,-1.21875 0.453125,0 0.53125,0.375 0.53125,0.703125 0,0.25 -0.0625,0.53125 -0.140625,0.828125 L 3.890625,-1.5 3.6875,-0.75 c -0.03125,0.203125 -0.125,0.546875 -0.125,0.59375 0,0.171875 0.140625,0.265625 0.28125,0.265625 0.3125,0 0.375,-0.25 0.453125,-0.5625 0.140625,-0.5625 0.515625,-2.015625 0.59375,-2.40625 0.03125,-0.125 0.5625,-1.328125 1.65625,-1.328125 0.421875,0 0.53125,0.34375 0.53125,0.703125 0,0.5625 -0.421875,1.703125 -0.625,2.234375 -0.078125,0.234375 -0.125,0.34375 -0.125,0.546875 0,0.46875 0.34375,0.8125 0.8125,0.8125 0.9375,0 1.3125,-1.453125 1.3125,-1.53125 0,-0.109375 -0.09375,-0.109375 -0.125,-0.109375 -0.09375,0 -0.09375,0.03125 -0.140625,0.1875 -0.15625,0.53125 -0.46875,1.234375 -1.015625,1.234375 -0.171875,0 -0.25,-0.09375 -0.25,-0.328125 0,-0.25 0.09375,-0.484375 0.1875,-0.703125 0.1875,-0.53125 0.609375,-1.625 0.609375,-2.203125 0,-0.640625 -0.40625,-1.0625 -1.15625,-1.0625 -0.734375,0 -1.25,0.4375 -1.625,0.96875 0,-0.125 -0.03125,-0.46875 -0.3125,-0.703125 -0.25,-0.21875 -0.5625,-0.265625 -0.8125,-0.265625 -0.90625,0 -1.390625,0.640625 -1.5625,0.875 -0.046875,-0.578125 -0.46875,-0.875 -0.921875,-0.875 -0.453125,0 -0.640625,0.390625 -0.734375,0.5625 -0.171875,0.359375 -0.296875,0.9375 -0.296875,0.96875 0,0.109375 0.09375,0.109375 0.109375,0.109375 0.109375,0 0.109375,-0.015625 0.171875,-0.234375 0.171875,-0.703125 0.375,-1.1875 0.734375,-1.1875 0.15625,0 0.296875,0.078125 0.296875,0.453125 0,0.21875 -0.03125,0.328125 -0.15625,0.84375 z m 0,0"
               id="id-8a75c0c9-2c0c-4e56-94ef-1997eb5fa9c6" />
          </g>
        </g>
      </defs>
      <g
         fill="#000000"
         fill-opacity="1"
         id="id-b80ccce4-1ba9-45c3-82b9-ff6b122e00f8"
         transform="translate(-274.19,-57.0871)">
        <g
           transform="translate(273.487,66.884)"
           id="g6246">
          <path
             d="m 13.03125,-8.75 c 0.125,-0.484375 0.15625,-0.625 1.171875,-0.625 0.265625,0 0.40625,0 0.40625,-0.28125 0,-0.140625 -0.109375,-0.140625 -0.375,-0.140625 H 12.5 c -0.34375,0 -0.359375,0.015625 -0.515625,0.25 l -5.25,8.265625 -1.0625,-8.203125 c -0.046875,-0.3125 -0.0625,-0.3125 -0.4375,-0.3125 h -1.78125 c -0.265625,0 -0.390625,0 -0.390625,0.265625 0,0.15625 0.125,0.15625 0.34375,0.15625 0.875,0 0.875,0.109375 0.875,0.265625 0,0.03125 0,0.109375 -0.0625,0.328125 L 2.375,-1.46875 c -0.171875,0.6875 -0.5,1.015625 -1.453125,1.046875 -0.046875,0 -0.21875,0.015625 -0.21875,0.265625 C 0.703125,0 0.828125,0 0.890625,0 1.171875,0 1.90625,-0.03125 2.1875,-0.03125 h 0.703125 c 0.1875,0 0.4375,0.03125 0.640625,0.03125 0.09375,0 0.25,0 0.25,-0.265625 0,-0.140625 -0.140625,-0.15625 -0.203125,-0.15625 C 3.109375,-0.4375 2.65625,-0.515625 2.65625,-1.03125 c 0,-0.140625 0,-0.15625 0.0625,-0.359375 l 1.96875,-7.90625 h 0.015625 l 1.1875,8.90625 C 5.9375,-0.046875 5.953125,0 6.078125,0 6.234375,0 6.3125,-0.109375 6.390625,-0.25 L 12.15625,-9.359375 10.078125,-1.0625 c -0.125,0.5 -0.15625,0.640625 -1.15625,0.640625 -0.265625,0 -0.421875,0 -0.421875,0.265625 C 8.5,0 8.640625,0 8.71875,0 8.96875,0 9.25,-0.03125 9.5,-0.03125 h 1.6875 C 11.4375,-0.03125 11.734375,0 11.984375,0 12.09375,0 12.25,0 12.25,-0.265625 c 0,-0.15625 -0.125,-0.15625 -0.34375,-0.15625 -0.875,0 -0.875,-0.109375 -0.875,-0.25 0,-0.015625 0,-0.109375 0.03125,-0.234375 z m 0,0"
             id="id-41168a5e-5bba-4abc-979f-7a603f2d8402" />
        </g>
      </g>
      <g
         fill="#000000"
         fill-opacity="1"
         id="id-7edb5eb2-b130-43df-b8cd-92f8c26ac37a"
         transform="translate(-274.19,-57.0871)">
        <g
           transform="translate(292.56,66.884)"
           id="g6250">
          <path
             d="m 9.6875,-4.640625 c 0.203125,0 0.453125,0 0.453125,-0.265625 0,-0.265625 -0.25,-0.265625 -0.453125,-0.265625 H 1.234375 c -0.203125,0 -0.453125,0 -0.453125,0.25 0,0.28125 0.234375,0.28125 0.453125,0.28125 z m 0,2.65625 c 0.203125,0 0.453125,0 0.453125,-0.25 0,-0.28125 -0.25,-0.28125 -0.453125,-0.28125 H 1.234375 c -0.203125,0 -0.453125,0 -0.453125,0.265625 0,0.265625 0.234375,0.265625 0.453125,0.265625 z m 0,0"
             id="id-006c9310-b747-4477-9cda-e195fc837290" />
        </g>
      </g>
      <g
         fill="#000000"
         fill-opacity="1"
         id="id-b90df045-9342-4db6-93ba-71f46b4dd3e7"
         transform="translate(-274.19,-57.0871)">
        <g
           transform="translate(307.471,66.884)"
           id="g6254">
          <path
             d="m 2.890625,-5.765625 h 1.3125 c 0.265625,0 0.421875,0 0.421875,-0.265625 C 4.625,-6.1875 4.53125,-6.1875 4.25,-6.1875 H 2.984375 l 0.53125,-2.09375 c 0.0625,-0.203125 0.0625,-0.21875 0.0625,-0.328125 0,-0.21875 -0.1875,-0.359375 -0.375,-0.359375 -0.125,0 -0.453125,0.046875 -0.5625,0.5 l -0.5625,2.28125 h -1.34375 c -0.296875,0 -0.421875,0 -0.421875,0.28125 0,0.140625 0.109375,0.140625 0.375,0.140625 h 1.28125 l -0.953125,3.78125 c -0.109375,0.5 -0.15625,0.65625 -0.15625,0.84375 0,0.671875 0.46875,1.28125 1.28125,1.28125 1.4375,0 2.21875,-2.09375 2.21875,-2.1875 0,-0.09375 -0.0625,-0.140625 -0.140625,-0.140625 -0.03125,0 -0.09375,0 -0.109375,0.0625 -0.015625,0.015625 -0.03125,0.03125 -0.140625,0.265625 -0.296875,0.71875 -0.953125,1.71875 -1.78125,1.71875 -0.4375,0 -0.46875,-0.359375 -0.46875,-0.671875 0,-0.015625 0,-0.296875 0.046875,-0.46875 z m 0,0"
             id="id-da49af5b-2d8f-4d01-b389-ee5feea05709" />
        </g>
      </g>
      <g
         fill="#000000"
         fill-opacity="1"
         id="id-ed6fedaf-5bc2-453a-96d7-b0dac636a41d"
         transform="translate(-274.19,-57.0871)">
        <g
           transform="translate(312.543,69.036)"
           id="g6258">
          <path
             d="m 0.875,-0.59375 c -0.03125,0.15625 -0.09375,0.390625 -0.09375,0.4375 0,0.171875 0.140625,0.265625 0.296875,0.265625 0.125,0 0.296875,-0.078125 0.375,-0.28125 0,-0.015625 0.125,-0.484375 0.1875,-0.734375 l 0.21875,-0.890625 C 1.90625,-2.03125 1.96875,-2.25 2.03125,-2.46875 c 0.03125,-0.171875 0.109375,-0.46875 0.125,-0.5 0.140625,-0.3125 0.671875,-1.21875 1.625,-1.21875 0.453125,0 0.53125,0.375 0.53125,0.703125 0,0.25 -0.0625,0.53125 -0.140625,0.828125 L 3.890625,-1.5 3.6875,-0.75 c -0.03125,0.203125 -0.125,0.546875 -0.125,0.59375 0,0.171875 0.140625,0.265625 0.28125,0.265625 0.3125,0 0.375,-0.25 0.453125,-0.5625 0.140625,-0.5625 0.515625,-2.015625 0.59375,-2.40625 0.03125,-0.125 0.5625,-1.328125 1.65625,-1.328125 0.421875,0 0.53125,0.34375 0.53125,0.703125 0,0.5625 -0.421875,1.703125 -0.625,2.234375 -0.078125,0.234375 -0.125,0.34375 -0.125,0.546875 0,0.46875 0.34375,0.8125 0.8125,0.8125 0.9375,0 1.3125,-1.453125 1.3125,-1.53125 0,-0.109375 -0.09375,-0.109375 -0.125,-0.109375 -0.09375,0 -0.09375,0.03125 -0.140625,0.1875 -0.15625,0.53125 -0.46875,1.234375 -1.015625,1.234375 -0.171875,0 -0.25,-0.09375 -0.25,-0.328125 0,-0.25 0.09375,-0.484375 0.1875,-0.703125 0.1875,-0.53125 0.609375,-1.625 0.609375,-2.203125 0,-0.640625 -0.40625,-1.0625 -1.15625,-1.0625 -0.734375,0 -1.25,0.4375 -1.625,0.96875 0,-0.125 -0.03125,-0.46875 -0.3125,-0.703125 -0.25,-0.21875 -0.5625,-0.265625 -0.8125,-0.265625 -0.90625,0 -1.390625,0.640625 -1.5625,0.875 -0.046875,-0.578125 -0.46875,-0.875 -0.921875,-0.875 -0.453125,0 -0.640625,0.390625 -0.734375,0.5625 -0.171875,0.359375 -0.296875,0.9375 -0.296875,0.96875 0,0.109375 0.09375,0.109375 0.109375,0.109375 0.109375,0 0.109375,-0.015625 0.171875,-0.234375 0.171875,-0.703125 0.375,-1.1875 0.734375,-1.1875 0.15625,0 0.296875,0.078125 0.296875,0.453125 0,0.21875 -0.03125,0.328125 -0.15625,0.84375 z m 0,0"
             id="id-077313f6-0782-4421-9a40-5abe733e9b31" />
        </g>
      </g>
    </g>
    <path
       style="fill:#000000;fill-opacity:1;fill-rule:evenodd;stroke:#000000;stroke-width:0.828;stroke-dasharray:none;paint-order:markers stroke fill"
       d="m 30.857978,226.32103 v 7.30613"
       id="path7092" />
    <path
       style="fill:#000000;fill-opacity:1;fill-rule:evenodd;stroke:#000000;stroke-width:0.828;stroke-dasharray:none;paint-order:markers stroke fill"
       d="m 30.857978,226.32103 v 7.30613"
       id="path7094" />
    <path
       style="fill:#000000;fill-opacity:1;fill-rule:evenodd;stroke:#000000;stroke-width:0.828;stroke-dasharray:none;paint-order:markers stroke fill"
       d="m 55.858,226.32103 v 7.30613"
       id="path7100" />
    <path
       style="fill:#000000;fill-opacity:1;fill-rule:evenodd;stroke:#000000;stroke-width:0.828;stroke-dasharray:none;paint-order:markers stroke fill"
       d="m 80.858,226.32103 v 7.30613"
       id="path7102" />
    <path
       style="fill:#000000;fill-opacity:1;fill-rule:evenodd;stroke:#000000;stroke-width:0.828;stroke-dasharray:none;paint-order:markers stroke fill"
       d="m 105.858,226.32103 v 7.30613"
       id="path7104" />
    <path
       style="fill:#000000;fill-opacity:1;fill-rule:evenodd;stroke:#000000;stroke-width:0.828;stroke-dasharray:none;paint-order:markers stroke fill"
       d="m 176.9555,226.32103 v 7.30613"
       id="path7106" />
    <path
       style="fill:#000000;fill-opacity:0;fill-rule:evenodd;stroke:#000000;stroke-width:0.628;stroke-dasharray:0.628,0.628;paint-order:markers stroke fill;stroke-dashoffset:0"
       d="m 55.93925,229.83004 c 12.17942,34.8696 25.017903,3.47349 24.997489,0"
       id="path7108"
       sodipodi:nodetypes="cc" />
    <g
       transform="matrix(0.458611,0,0,0.458611,67.536295,248.10623)"
       ns5:version="1.8.2"
       ns5:texconverter="pdflatex"
       ns5:pdfconverter="inkscape"
       ns5:text="$$\\eps$$"
       ns5:preamble="/home/buyolitsez/.config/inkscape/extensions/textext/default_packages.tex"
       ns5:scale="1.3"
       ns5:alignment="middle center"
       ns5:stroke-to-path="0"
       ns5:inkscapeversion="1.2.2"
       ns5:jacobian_sqrt="0.458611"
       id="g7805">
      <defs
         id="id-8ecac03e-5542-4400-84fc-3679b672e051">
        <g
           id="id-a2b56114-bfee-4ee7-8f9c-7617a653ca0a">
          <g
             id="id-2caf44e8-6993-4df2-9987-b5514e58f36c" />
          <g
             id="id-4850e75d-8ee5-49fb-b016-4c270c9e021a">
            <path
               d="m 2,-3.265625 c 0.453125,0.1875 0.9375,0.1875 1.21875,0.1875 0.359375,0 1.109375,0 1.109375,-0.421875 0,-0.265625 -0.265625,-0.359375 -1,-0.359375 -0.359375,0 -0.796875,0.046875 -1.296875,0.265625 -0.4375,-0.21875 -0.609375,-0.546875 -0.609375,-0.859375 0,-0.890625 1.40625,-1.40625 2.6875,-1.40625 0.234375,0 0.75,0 1.359375,0.4375 0.078125,0.0625 0.125,0.09375 0.21875,0.09375 0.171875,0 0.359375,-0.1875 0.359375,-0.359375 0,-0.25 -0.828125,-0.796875 -1.8125,-0.796875 -1.609375,0 -3.125,0.96875 -3.125,2.03125 0,0.515625 0.34375,0.859375 0.578125,1.03125 -0.828125,0.46875 -1.3125,1.234375 -1.3125,1.9375 0,1 0.890625,1.78125 2.265625,1.78125 1.890625,0 2.65625,-1.265625 2.65625,-1.453125 0,-0.078125 -0.0625,-0.140625 -0.140625,-0.140625 C 5.09375,-1.296875 5.0625,-1.25 5,-1.15625 4.84375,-0.890625 4.46875,-0.3125 2.765625,-0.3125 c -0.890625,0 -2.0625,-0.234375 -2.0625,-1.25 C 0.703125,-2.046875 1.0625,-2.78125 2,-3.265625 Z M 2.4375,-3.4375 c 0.390625,-0.140625 0.765625,-0.140625 0.859375,-0.140625 0.40625,0 0.46875,0.03125 0.703125,0.09375 C 3.765625,-3.375 3.734375,-3.375 3.21875,-3.375 c -0.265625,0 -0.5,0 -0.78125,-0.0625 z m 0,0"
               id="id-b0583759-5cb5-4fc2-a508-c2e5c511ace3" />
          </g>
        </g>
      </defs>
      <g
         fill="#000000"
         fill-opacity="1"
         id="id-d59456bb-a23b-4d0a-a44c-48f634bd683e"
         transform="translate(-294.726,-60.3996)">
        <g
           transform="translate(294.351,66.884)"
           id="g7802">
          <path
             d="m 2,-3.265625 c 0.453125,0.1875 0.9375,0.1875 1.21875,0.1875 0.359375,0 1.109375,0 1.109375,-0.421875 0,-0.265625 -0.265625,-0.359375 -1,-0.359375 -0.359375,0 -0.796875,0.046875 -1.296875,0.265625 -0.4375,-0.21875 -0.609375,-0.546875 -0.609375,-0.859375 0,-0.890625 1.40625,-1.40625 2.6875,-1.40625 0.234375,0 0.75,0 1.359375,0.4375 0.078125,0.0625 0.125,0.09375 0.21875,0.09375 0.171875,0 0.359375,-0.1875 0.359375,-0.359375 0,-0.25 -0.828125,-0.796875 -1.8125,-0.796875 -1.609375,0 -3.125,0.96875 -3.125,2.03125 0,0.515625 0.34375,0.859375 0.578125,1.03125 -0.828125,0.46875 -1.3125,1.234375 -1.3125,1.9375 0,1 0.890625,1.78125 2.265625,1.78125 1.890625,0 2.65625,-1.265625 2.65625,-1.453125 0,-0.078125 -0.0625,-0.140625 -0.140625,-0.140625 C 5.09375,-1.296875 5.0625,-1.25 5,-1.15625 4.84375,-0.890625 4.46875,-0.3125 2.765625,-0.3125 c -0.890625,0 -2.0625,-0.234375 -2.0625,-1.25 C 0.703125,-2.046875 1.0625,-2.78125 2,-3.265625 Z M 2.4375,-3.4375 c 0.390625,-0.140625 0.765625,-0.140625 0.859375,-0.140625 0.40625,0 0.46875,0.03125 0.703125,0.09375 C 3.765625,-3.375 3.734375,-3.375 3.21875,-3.375 c -0.265625,0 -0.5,0 -0.78125,-0.0625 z m 0,0"
             id="id-b8b53b42-3893-4c6e-a64a-e2b232442038" />
        </g>
      </g>
    </g>
  </g>
</svg>
