<?xml version="1.0" encoding="UTF-8" standalone="no"?>
<!-- Created with Inkscape (http://www.inkscape.org/) -->

<svg
   width="240mm"
   height="120mm"
   viewBox="0 0 240 120"
   version="1.1"
   id="svg8"
   inkscape:version="1.2.2 (b0a8486541, 2022-12-01)"
   sodipodi:docname="characteristic_function_normall.svg"
   xmlns:inkscape="http://www.inkscape.org/namespaces/inkscape"
   xmlns:sodipodi="http://sodipodi.sourceforge.net/DTD/sodipodi-0.dtd"
   xmlns="http://www.w3.org/2000/svg"
   xmlns:svg="http://www.w3.org/2000/svg"
   xmlns:rdf="http://www.w3.org/1999/02/22-rdf-syntax-ns#"
   xmlns:cc="http://creativecommons.org/ns#"
   xmlns:dc="http://purl.org/dc/elements/1.1/"
   xmlns:ns1="http://www.iki.fi/pav/software/textext/">
  <defs
     id="defs2">
    <marker
       style="overflow:visible"
       id="marker16626"
       refX="159"
       refY="0"
       orient="auto-start-reverse"
       inkscape:stockid="Arrow1"
       markerWidth="4.0606604"
       markerHeight="6.7071066"
       viewBox="0 0 4.0606602 6.7071068"
       inkscape:isstock="true"
       inkscape:collect="always"
       preserveAspectRatio="xMidYMid">
      <path
         style="fill:none;stroke:context-stroke;stroke-width:1;stroke-linecap:butt"
         d="M 0.60355339,3 -2.3964466,0 0.60355339,-3"
         id="path16624"
         sodipodi:nodetypes="ccc" />
    </marker>
    <marker
       style="overflow:visible"
       id="marker6358"
       refX="227"
       refY="0"
       orient="auto-start-reverse"
       inkscape:stockid="Arrow1"
       markerWidth="4.0606604"
       markerHeight="6.7071066"
       viewBox="0 0 4.0606602 6.7071068"
       inkscape:isstock="true"
       inkscape:collect="always"
       preserveAspectRatio="xMidYMid">
      <path
         style="fill:none;stroke:context-stroke;stroke-width:1;stroke-linecap:butt"
         d="M 3,-3 0,0 3,3"
         id="path6356"
         transform="rotate(180,0.125,0)"
         sodipodi:nodetypes="ccc" />
    </marker>
    <marker
       style="overflow:visible"
       id="marker3948"
       refX="30"
       refY="0"
       orient="auto-start-reverse"
       inkscape:stockid="Arrow1"
       markerWidth="4.0606604"
       markerHeight="6.7071066"
       viewBox="0 0 4.0606602 6.7071068"
       inkscape:isstock="true"
       inkscape:collect="always"
       preserveAspectRatio="xMidYMid">
      <path
         style="fill:none;stroke:context-stroke;stroke-width:1;stroke-linecap:butt"
         d="M 3,-3 0,0 3,3"
         id="path3946"
         transform="rotate(180,0.125,0)"
         sodipodi:nodetypes="ccc" />
    </marker>
    <marker
       style="overflow:visible"
       id="marker3032"
       refX="30"
       refY="0"
       orient="auto-start-reverse"
       inkscape:stockid="Arrow1"
       markerWidth="4.0606604"
       markerHeight="6.7071066"
       viewBox="0 0 4.0606602 6.7071068"
       inkscape:isstock="true"
       inkscape:collect="always"
       preserveAspectRatio="xMidYMid">
      <path
         style="fill:none;stroke:context-stroke;stroke-width:1;stroke-linecap:butt"
         d="M 3,-3 0,0 3,3"
         id="path3030"
         transform="rotate(180,0.125,0)"
         sodipodi:nodetypes="ccc" />
    </marker>
    <marker
       style="overflow:visible"
       id="Arrow1"
       refX="0"
       refY="0"
       orient="auto-start-reverse"
       inkscape:stockid="Arrow1"
       markerWidth="4.0606599"
       markerHeight="6.7071066"
       viewBox="0 0 4.0606602 6.7071068"
       inkscape:isstock="true"
       inkscape:collect="always"
       preserveAspectRatio="xMidYMid">
      <path
         style="fill:none;stroke:context-stroke;stroke-width:1;stroke-linecap:butt"
         d="M 3,-3 0,0 3,3"
         id="path5057"
         transform="rotate(180,0.125,0)"
         sodipodi:nodetypes="ccc" />
    </marker>
  </defs>
  <sodipodi:namedview
     id="base"
     pagecolor="#ffffff"
     bordercolor="#666666"
     borderopacity="1.0"
     inkscape:pageopacity="0.0"
     inkscape:pageshadow="2"
     inkscape:zoom="0.99437388"
     inkscape:cx="520.93082"
     inkscape:cy="284.09837"
     inkscape:document-units="mm"
     inkscape:current-layer="layer1"
     showgrid="false"
     showborder="true"
     width="200mm"
     showguides="true"
     inkscape:guide-bbox="true"
     inkscape:window-width="1280"
     inkscape:window-height="1286"
     inkscape:window-x="0"
     inkscape:window-y="0"
     inkscape:window-maximized="1"
     inkscape:showpageshadow="2"
     inkscape:pagecheckerboard="0"
     inkscape:deskcolor="#d1d1d1">
    <inkscape:grid
       type="xygrid"
       id="grid815"
       units="mm"
       spacingx="10"
       spacingy="10"
       empspacing="4"
       dotted="false" />
  </sodipodi:namedview>
  <metadata
     id="metadata5">
    <rdf:RDF>
      <cc:Work
         rdf:about="">
        <dc:format>image/svg+xml</dc:format>
        <dc:type
           rdf:resource="http://purl.org/dc/dcmitype/StillImage" />
        <dc:title />
      </cc:Work>
    </rdf:RDF>
  </metadata>
  <g
     inkscape:label="Layer 1"
     inkscape:groupmode="layer"
     id="layer1"
     transform="translate(0, -177)">
    <path
       style="fill:#000000;fill-opacity:0.992078;fill-rule:evenodd;stroke:#000000;stroke-width:0.542999;marker-end:url(#Arrow1);paint-order:markers stroke fill;marker-start:url(#marker6358);marker-mid:"
       d="M 13.837067,219.94622 H 226.16293"
       id="path540" />
    <path
       style="fill:#000000;fill-opacity:0.992078;fill-rule:evenodd;stroke:#000000;stroke-width:0.542999;paint-order:markers stroke fill;marker-end:url(#Arrow1)"
       d="M 120,289.64649 V 184.35351"
       id="path542" />
    <g
       transform="matrix(0.458611,0,0,0.458611,225.11065,209.94704)"
       ns1:version="1.8.2"
       ns1:texconverter="pdflatex"
       ns1:pdfconverter="inkscape"
       ns1:text="$$\\R$$"
       ns1:preamble="/home/buyolitsez/.config/inkscape/extensions/textext/default_packages.tex"
       ns1:scale="1.3"
       ns1:alignment="middle center"
       ns1:stroke-to-path="0"
       ns1:inkscapeversion="1.2.2"
       ns1:jacobian_sqrt="0.458611"
       id="g2844">
      <defs
         id="id-8ca80970-6a6b-4a01-a747-2b98f8f73c3d">
        <g
           id="id-98eedc92-5e75-4a6b-8298-5ee96ffb3646">
          <g
             id="id-43d8ff84-09fe-4f8a-87d9-1719654f862b" />
          <g
             id="id-b7058efe-ce55-41db-9ace-25c8c777b099">
            <path
               d="m 3.84375,-4.5 h 0.515625 l 2.15625,3.328125 c 0.140625,0.21875 0.484375,0.78125 0.640625,1 C 7.265625,0 7.296875,0 7.625,0 H 9.609375 C 9.875,0 10.078125,0 10.078125,-0.265625 10.078125,-0.375 10,-0.46875 9.875,-0.5 9.34375,-0.609375 8.640625,-1.5625 8.296875,-2.015625 8.1875,-2.171875 7.46875,-3.109375 6.515625,-4.65625 c 1.265625,-0.234375 2.5,-0.78125 2.5,-2.484375 0,-2 -2.109375,-2.6875 -3.796875,-2.6875 h -4.5 c -0.265625,0 -0.484375,0 -0.484375,0.265625 0,0.234375 0.265625,0.234375 0.375,0.234375 C 1.4375,-9.328125 1.5,-9.21875 1.5,-8.5 v 7.1875 C 1.5,-0.609375 1.4375,-0.5 0.609375,-0.5 c -0.109375,0 -0.375,0 -0.375,0.234375 C 0.234375,0 0.453125,0 0.71875,0 H 4.640625 C 4.90625,0 5.125,0 5.125,-0.265625 5.125,-0.5 4.875,-0.5 4.71875,-0.5 c -0.8125,0 -0.875,-0.109375 -0.875,-0.8125 z M 6.609375,-5.203125 C 7.015625,-5.734375 7.0625,-6.5 7.0625,-7.125 c 0,-0.6875 -0.09375,-1.453125 -0.546875,-2.046875 0.578125,0.140625 2,0.578125 2,2.03125 0,0.9375 -0.421875,1.65625 -1.90625,1.9375 z M 3.84375,-8.546875 c 0,-0.296875 0,-0.78125 0.890625,-0.78125 1.21875,0 1.828125,0.5 1.828125,2.203125 C 6.5625,-5.28125 6.109375,-5 3.84375,-5 Z M 1.890625,-0.5 c 0.125,-0.265625 0.125,-0.65625 0.125,-0.796875 V -8.53125 c 0,-0.140625 0,-0.53125 -0.125,-0.796875 H 3.53125 C 3.34375,-9.09375 3.34375,-8.8125 3.34375,-8.59375 v 7.296875 c 0,0.15625 0,0.53125 0.109375,0.796875 z m 3.0625,-4 c 0.09375,-0.015625 0.15625,-0.03125 0.265625,-0.03125 0.21875,0 0.53125,-0.03125 0.75,-0.0625 C 6.1875,-4.25 7.734375,-1.6875 8.921875,-0.5 H 7.53125 Z m 0,0"
               id="id-677a02b3-cc29-423e-96e8-457b883ded8e" />
          </g>
        </g>
      </defs>
      <g
         fill="#000000"
         fill-opacity="1"
         id="id-6ef2813d-748d-4b9f-91ca-6dccd48ea1d2"
         transform="translate(-292.691,-57.0559)">
        <g
           transform="translate(292.457,66.884)"
           id="g2841">
          <path
             d="m 3.84375,-4.5 h 0.515625 l 2.15625,3.328125 c 0.140625,0.21875 0.484375,0.78125 0.640625,1 C 7.265625,0 7.296875,0 7.625,0 H 9.609375 C 9.875,0 10.078125,0 10.078125,-0.265625 10.078125,-0.375 10,-0.46875 9.875,-0.5 9.34375,-0.609375 8.640625,-1.5625 8.296875,-2.015625 8.1875,-2.171875 7.46875,-3.109375 6.515625,-4.65625 c 1.265625,-0.234375 2.5,-0.78125 2.5,-2.484375 0,-2 -2.109375,-2.6875 -3.796875,-2.6875 h -4.5 c -0.265625,0 -0.484375,0 -0.484375,0.265625 0,0.234375 0.265625,0.234375 0.375,0.234375 C 1.4375,-9.328125 1.5,-9.21875 1.5,-8.5 v 7.1875 C 1.5,-0.609375 1.4375,-0.5 0.609375,-0.5 c -0.109375,0 -0.375,0 -0.375,0.234375 C 0.234375,0 0.453125,0 0.71875,0 H 4.640625 C 4.90625,0 5.125,0 5.125,-0.265625 5.125,-0.5 4.875,-0.5 4.71875,-0.5 c -0.8125,0 -0.875,-0.109375 -0.875,-0.8125 z M 6.609375,-5.203125 C 7.015625,-5.734375 7.0625,-6.5 7.0625,-7.125 c 0,-0.6875 -0.09375,-1.453125 -0.546875,-2.046875 0.578125,0.140625 2,0.578125 2,2.03125 0,0.9375 -0.421875,1.65625 -1.90625,1.9375 z M 3.84375,-8.546875 c 0,-0.296875 0,-0.78125 0.890625,-0.78125 1.21875,0 1.828125,0.5 1.828125,2.203125 C 6.5625,-5.28125 6.109375,-5 3.84375,-5 Z M 1.890625,-0.5 c 0.125,-0.265625 0.125,-0.65625 0.125,-0.796875 V -8.53125 c 0,-0.140625 0,-0.53125 -0.125,-0.796875 H 3.53125 C 3.34375,-9.09375 3.34375,-8.8125 3.34375,-8.59375 v 7.296875 c 0,0.15625 0,0.53125 0.109375,0.796875 z m 3.0625,-4 c 0.09375,-0.015625 0.15625,-0.03125 0.265625,-0.03125 0.21875,0 0.53125,-0.03125 0.75,-0.0625 C 6.1875,-4.25 7.734375,-1.6875 8.921875,-0.5 H 7.53125 Z m 0,0"
             id="id-021c8893-fc77-490c-84a4-0d19265ddb9f" />
        </g>
      </g>
    </g>
    <path
       style="fill:#000000;fill-opacity:0.992078;fill-rule:evenodd;stroke:#000000;stroke-width:0.542999;marker-end:url(#Arrow1);paint-order:markers stroke fill;marker-start:url(#marker16626)"
       d="M 13.837067,253.66359 H 226.16293"
       id="path2871" />
    <g
       transform="matrix(0.458611,0,0,0.458611,217.84291,243.80806)"
       ns1:version="1.8.2"
       ns1:texconverter="pdflatex"
       ns1:pdfconverter="inkscape"
       ns1:text="$$\\R-it$$"
       ns1:preamble="/home/buyolitsez/.config/inkscape/extensions/textext/default_packages.tex"
       ns1:scale="1.3"
       ns1:alignment="middle center"
       ns1:stroke-to-path="0"
       ns1:inkscapeversion="1.2.2"
       ns1:jacobian_sqrt="0.458611"
       id="g2943">
      <defs
         id="id-25c71d9e-3700-4728-836a-68ad6bb94457">
        <g
           id="id-3269b4e3-36fa-47bb-9b13-7a51fd694e3b">
          <g
             id="id-f3da66a5-21bc-43f9-9a2d-9fd109504a5d" />
          <g
             id="id-6a8049b3-6e27-4a5c-94f8-268d1bb8da96">
            <path
               d="m 3.84375,-4.5 h 0.515625 l 2.15625,3.328125 c 0.140625,0.21875 0.484375,0.78125 0.640625,1 C 7.265625,0 7.296875,0 7.625,0 H 9.609375 C 9.875,0 10.078125,0 10.078125,-0.265625 10.078125,-0.375 10,-0.46875 9.875,-0.5 9.34375,-0.609375 8.640625,-1.5625 8.296875,-2.015625 8.1875,-2.171875 7.46875,-3.109375 6.515625,-4.65625 c 1.265625,-0.234375 2.5,-0.78125 2.5,-2.484375 0,-2 -2.109375,-2.6875 -3.796875,-2.6875 h -4.5 c -0.265625,0 -0.484375,0 -0.484375,0.265625 0,0.234375 0.265625,0.234375 0.375,0.234375 C 1.4375,-9.328125 1.5,-9.21875 1.5,-8.5 v 7.1875 C 1.5,-0.609375 1.4375,-0.5 0.609375,-0.5 c -0.109375,0 -0.375,0 -0.375,0.234375 C 0.234375,0 0.453125,0 0.71875,0 H 4.640625 C 4.90625,0 5.125,0 5.125,-0.265625 5.125,-0.5 4.875,-0.5 4.71875,-0.5 c -0.8125,0 -0.875,-0.109375 -0.875,-0.8125 z M 6.609375,-5.203125 C 7.015625,-5.734375 7.0625,-6.5 7.0625,-7.125 c 0,-0.6875 -0.09375,-1.453125 -0.546875,-2.046875 0.578125,0.140625 2,0.578125 2,2.03125 0,0.9375 -0.421875,1.65625 -1.90625,1.9375 z M 3.84375,-8.546875 c 0,-0.296875 0,-0.78125 0.890625,-0.78125 1.21875,0 1.828125,0.5 1.828125,2.203125 C 6.5625,-5.28125 6.109375,-5 3.84375,-5 Z M 1.890625,-0.5 c 0.125,-0.265625 0.125,-0.65625 0.125,-0.796875 V -8.53125 c 0,-0.140625 0,-0.53125 -0.125,-0.796875 H 3.53125 C 3.34375,-9.09375 3.34375,-8.8125 3.34375,-8.59375 v 7.296875 c 0,0.15625 0,0.53125 0.109375,0.796875 z m 3.0625,-4 c 0.09375,-0.015625 0.15625,-0.03125 0.265625,-0.03125 0.21875,0 0.53125,-0.03125 0.75,-0.0625 C 6.1875,-4.25 7.734375,-1.6875 8.921875,-0.5 H 7.53125 Z m 0,0"
               id="id-3feaf827-9454-4e60-b560-cb7005dbb787" />
          </g>
          <g
             id="id-cf6d2b20-9d72-4b67-bd43-089fbe107fa3" />
          <g
             id="id-1a095246-59a3-41ed-8049-6cec0dc50502">
            <path
               d="m 9.453125,-3.296875 c 0.25,0 0.5,0 0.5,-0.28125 0,-0.296875 -0.25,-0.296875 -0.5,-0.296875 H 1.6875 c -0.234375,0 -0.5,0 -0.5,0.296875 0,0.28125 0.265625,0.28125 0.5,0.28125 z m 0,0"
               id="id-c9d65b47-74a0-40e9-a0a3-a440fda9d19e" />
          </g>
          <g
             id="id-ff0e3b82-21d9-4679-954e-27e3bef6ebe7" />
          <g
             id="id-3c185eeb-5cf0-4822-8cc5-0e3d614e8405">
            <path
               d="M 4.0625,-2.046875 C 4.0625,-2.125 4,-2.1875 3.921875,-2.1875 c -0.140625,0 -0.15625,0.046875 -0.21875,0.296875 -0.375,1.296875 -0.96875,1.75 -1.4375,1.75 -0.171875,0 -0.375,-0.046875 -0.375,-0.46875 0,-0.390625 0.171875,-0.828125 0.328125,-1.25 L 3.234375,-4.53125 C 3.265625,-4.640625 3.375,-4.90625 3.375,-5.171875 c 0,-0.609375 -0.4375,-1.15625 -1.140625,-1.15625 -1.3125,0 -1.84375,2.078125 -1.84375,2.203125 0,0.046875 0.046875,0.125 0.15625,0.125 C 0.671875,-4 0.6875,-4.0625 0.75,-4.265625 1.09375,-5.46875 1.640625,-6.03125 2.1875,-6.03125 c 0.140625,0 0.375,0 0.375,0.46875 0,0.375 -0.1875,0.84375 -0.296875,1.15625 l -1,2.671875 C 1.171875,-1.5 1.09375,-1.28125 1.09375,-1.015625 c 0,0.640625 0.4375,1.15625 1.125,1.15625 1.328125,0 1.84375,-2.09375 1.84375,-2.1875 z m -0.125,-6.90625 c 0,-0.21875 -0.171875,-0.46875 -0.484375,-0.46875 -0.328125,0 -0.703125,0.3125 -0.703125,0.6875 0,0.359375 0.3125,0.46875 0.484375,0.46875 0.375,0 0.703125,-0.375 0.703125,-0.6875 z m 0,0"
               id="id-e739ddd1-c393-4d09-97e9-0dd813addff5" />
          </g>
          <g
             id="id-2aaf1ae2-35c4-4da2-8beb-39e1c9e97c53">
            <path
               d="m 2.890625,-5.765625 h 1.3125 c 0.265625,0 0.421875,0 0.421875,-0.265625 C 4.625,-6.1875 4.53125,-6.1875 4.25,-6.1875 H 2.984375 l 0.53125,-2.09375 c 0.0625,-0.203125 0.0625,-0.21875 0.0625,-0.328125 0,-0.21875 -0.1875,-0.359375 -0.375,-0.359375 -0.125,0 -0.453125,0.046875 -0.5625,0.5 l -0.5625,2.28125 h -1.34375 c -0.296875,0 -0.421875,0 -0.421875,0.28125 0,0.140625 0.109375,0.140625 0.375,0.140625 h 1.28125 l -0.953125,3.78125 c -0.109375,0.5 -0.15625,0.65625 -0.15625,0.84375 0,0.671875 0.46875,1.28125 1.28125,1.28125 1.4375,0 2.21875,-2.09375 2.21875,-2.1875 0,-0.09375 -0.0625,-0.140625 -0.140625,-0.140625 -0.03125,0 -0.09375,0 -0.109375,0.0625 -0.015625,0.015625 -0.03125,0.03125 -0.140625,0.265625 -0.296875,0.71875 -0.953125,1.71875 -1.78125,1.71875 -0.4375,0 -0.46875,-0.359375 -0.46875,-0.671875 0,-0.015625 0,-0.296875 0.046875,-0.46875 z m 0,0"
               id="id-45b36691-49e1-4f31-bf29-6b08359675c9" />
          </g>
        </g>
      </defs>
      <g
         fill="#000000"
         fill-opacity="1"
         id="id-79d5836e-fc9f-46f7-8085-97397926cd2d"
         transform="translate(-278.992,-57.0559)">
        <g
           transform="translate(278.758,66.884)"
           id="g2929">
          <path
             d="m 3.84375,-4.5 h 0.515625 l 2.15625,3.328125 c 0.140625,0.21875 0.484375,0.78125 0.640625,1 C 7.265625,0 7.296875,0 7.625,0 H 9.609375 C 9.875,0 10.078125,0 10.078125,-0.265625 10.078125,-0.375 10,-0.46875 9.875,-0.5 9.34375,-0.609375 8.640625,-1.5625 8.296875,-2.015625 8.1875,-2.171875 7.46875,-3.109375 6.515625,-4.65625 c 1.265625,-0.234375 2.5,-0.78125 2.5,-2.484375 0,-2 -2.109375,-2.6875 -3.796875,-2.6875 h -4.5 c -0.265625,0 -0.484375,0 -0.484375,0.265625 0,0.234375 0.265625,0.234375 0.375,0.234375 C 1.4375,-9.328125 1.5,-9.21875 1.5,-8.5 v 7.1875 C 1.5,-0.609375 1.4375,-0.5 0.609375,-0.5 c -0.109375,0 -0.375,0 -0.375,0.234375 C 0.234375,0 0.453125,0 0.71875,0 H 4.640625 C 4.90625,0 5.125,0 5.125,-0.265625 5.125,-0.5 4.875,-0.5 4.71875,-0.5 c -0.8125,0 -0.875,-0.109375 -0.875,-0.8125 z M 6.609375,-5.203125 C 7.015625,-5.734375 7.0625,-6.5 7.0625,-7.125 c 0,-0.6875 -0.09375,-1.453125 -0.546875,-2.046875 0.578125,0.140625 2,0.578125 2,2.03125 0,0.9375 -0.421875,1.65625 -1.90625,1.9375 z M 3.84375,-8.546875 c 0,-0.296875 0,-0.78125 0.890625,-0.78125 1.21875,0 1.828125,0.5 1.828125,2.203125 C 6.5625,-5.28125 6.109375,-5 3.84375,-5 Z M 1.890625,-0.5 c 0.125,-0.265625 0.125,-0.65625 0.125,-0.796875 V -8.53125 c 0,-0.140625 0,-0.53125 -0.125,-0.796875 H 3.53125 C 3.34375,-9.09375 3.34375,-8.8125 3.34375,-8.59375 v 7.296875 c 0,0.15625 0,0.53125 0.109375,0.796875 z m 3.0625,-4 c 0.09375,-0.015625 0.15625,-0.03125 0.265625,-0.03125 0.21875,0 0.53125,-0.03125 0.75,-0.0625 C 6.1875,-4.25 7.734375,-1.6875 8.921875,-0.5 H 7.53125 Z m 0,0"
             id="id-60c115be-0555-4100-8ae3-e20f33aaace6" />
        </g>
      </g>
      <g
         fill="#000000"
         fill-opacity="1"
         id="id-3a4e56d9-5b1d-4f56-8cfa-33e015ad5bd8"
         transform="translate(-278.992,-57.0559)">
        <g
           transform="translate(292.307,66.884)"
           id="g2933">
          <path
             d="m 9.453125,-3.296875 c 0.25,0 0.5,0 0.5,-0.28125 0,-0.296875 -0.25,-0.296875 -0.5,-0.296875 H 1.6875 c -0.234375,0 -0.5,0 -0.5,0.296875 0,0.28125 0.265625,0.28125 0.5,0.28125 z m 0,0"
             id="id-2e92d118-d14a-476f-9c37-be4c5304fc55" />
        </g>
      </g>
      <g
         fill="#000000"
         fill-opacity="1"
         id="id-b7300cd7-a31f-4b0d-997b-942da26215d7"
         transform="translate(-278.992,-57.0559)">
        <g
           transform="translate(306.653,66.884)"
           id="g2937">
          <path
             d="M 4.0625,-2.046875 C 4.0625,-2.125 4,-2.1875 3.921875,-2.1875 c -0.140625,0 -0.15625,0.046875 -0.21875,0.296875 -0.375,1.296875 -0.96875,1.75 -1.4375,1.75 -0.171875,0 -0.375,-0.046875 -0.375,-0.46875 0,-0.390625 0.171875,-0.828125 0.328125,-1.25 L 3.234375,-4.53125 C 3.265625,-4.640625 3.375,-4.90625 3.375,-5.171875 c 0,-0.609375 -0.4375,-1.15625 -1.140625,-1.15625 -1.3125,0 -1.84375,2.078125 -1.84375,2.203125 0,0.046875 0.046875,0.125 0.15625,0.125 C 0.671875,-4 0.6875,-4.0625 0.75,-4.265625 1.09375,-5.46875 1.640625,-6.03125 2.1875,-6.03125 c 0.140625,0 0.375,0 0.375,0.46875 0,0.375 -0.1875,0.84375 -0.296875,1.15625 l -1,2.671875 C 1.171875,-1.5 1.09375,-1.28125 1.09375,-1.015625 c 0,0.640625 0.4375,1.15625 1.125,1.15625 1.328125,0 1.84375,-2.09375 1.84375,-2.1875 z m -0.125,-6.90625 c 0,-0.21875 -0.171875,-0.46875 -0.484375,-0.46875 -0.328125,0 -0.703125,0.3125 -0.703125,0.6875 0,0.359375 0.3125,0.46875 0.484375,0.46875 0.375,0 0.703125,-0.375 0.703125,-0.6875 z m 0,0"
             id="id-f715ed90-53ff-44f1-b727-7400287cbb82" />
        </g>
        <g
           transform="translate(311.445,66.884)"
           id="g2940">
          <path
             d="m 2.890625,-5.765625 h 1.3125 c 0.265625,0 0.421875,0 0.421875,-0.265625 C 4.625,-6.1875 4.53125,-6.1875 4.25,-6.1875 H 2.984375 l 0.53125,-2.09375 c 0.0625,-0.203125 0.0625,-0.21875 0.0625,-0.328125 0,-0.21875 -0.1875,-0.359375 -0.375,-0.359375 -0.125,0 -0.453125,0.046875 -0.5625,0.5 l -0.5625,2.28125 h -1.34375 c -0.296875,0 -0.421875,0 -0.421875,0.28125 0,0.140625 0.109375,0.140625 0.375,0.140625 h 1.28125 l -0.953125,3.78125 c -0.109375,0.5 -0.15625,0.65625 -0.15625,0.84375 0,0.671875 0.46875,1.28125 1.28125,1.28125 1.4375,0 2.21875,-2.09375 2.21875,-2.1875 0,-0.09375 -0.0625,-0.140625 -0.140625,-0.140625 -0.03125,0 -0.09375,0 -0.109375,0.0625 -0.015625,0.015625 -0.03125,0.03125 -0.140625,0.265625 -0.296875,0.71875 -0.953125,1.71875 -1.78125,1.71875 -0.4375,0 -0.46875,-0.359375 -0.46875,-0.671875 0,-0.015625 0,-0.296875 0.046875,-0.46875 z m 0,0"
             id="id-572d0b5d-d425-4b55-8ca6-c02cb99f1f76" />
        </g>
      </g>
    </g>
    <path
       style="fill:#000000;fill-opacity:0.992078;fill-rule:evenodd;stroke:#000000;stroke-width:0.542999;paint-order:markers stroke fill;marker-start:url(#marker3948)"
       d="M 80.0005,253.67951 V 219.91953"
       id="path3026" />
    <path
       style="fill:#000000;fill-opacity:0.992078;fill-rule:evenodd;stroke:#000000;stroke-width:0.542999;paint-order:markers stroke fill;marker-end:url(#marker3032)"
       d="M 160.0005,253.67951 V 219.91953"
       id="path3028" />
    <g
       transform="matrix(0.458611,0,0,0.458611,158.08884,211.51249)"
       ns1:version="1.8.2"
       ns1:texconverter="pdflatex"
       ns1:pdfconverter="inkscape"
       ns1:text="$$R$$"
       ns1:preamble="/home/buyolitsez/.config/inkscape/extensions/textext/default_packages.tex"
       ns1:scale="1.3"
       ns1:alignment="middle center"
       ns1:stroke-to-path="0"
       ns1:inkscapeversion="1.2.2"
       ns1:jacobian_sqrt="0.458611"
       id="g22613">
      <defs
         id="id-dbbbd32a-8cfe-41e6-8b4c-de732105f608">
        <g
           id="id-a181f997-4e2d-4e8f-98db-b1763943330c">
          <g
             id="id-be40f26e-c4b9-4f1e-a9ca-9f0275104be3" />
          <g
             id="id-e448897b-a7ea-4d6e-b3b0-5e7d8657d718">
            <path
               d="m 5.28125,-8.828125 c 0.125,-0.53125 0.1875,-0.546875 0.75,-0.546875 H 7.0625 c 1.234375,0 2.140625,0.359375 2.140625,1.484375 0,0.734375 -0.375,2.84375 -3.25,2.84375 h -1.625 z M 7.265625,-4.875 c 1.78125,-0.390625 3.171875,-1.53125 3.171875,-2.765625 0,-1.125 -1.125,-2.15625 -3.125,-2.15625 H 3.421875 c -0.28125,0 -0.40625,0 -0.40625,0.265625 0,0.15625 0.09375,0.15625 0.375,0.15625 C 4.25,-9.375 4.25,-9.265625 4.25,-9.109375 4.25,-9.078125 4.25,-9 4.1875,-8.78125 L 2.25,-1.0625 c -0.125,0.5 -0.15625,0.640625 -1.140625,0.640625 -0.328125,0 -0.4375,0 -0.4375,0.28125 C 0.671875,0 0.828125,0 0.875,0 1.140625,0 1.4375,-0.03125 1.703125,-0.03125 H 3.40625 c 0.25,0 0.546875,0.03125 0.8125,0.03125 0.109375,0 0.265625,0 0.265625,-0.265625 0,-0.15625 -0.125,-0.15625 -0.34375,-0.15625 -0.875,0 -0.875,-0.109375 -0.875,-0.25 0,-0.015625 0,-0.109375 0.03125,-0.234375 l 0.96875,-3.859375 h 1.71875 c 1.359375,0 1.625,0.859375 1.625,1.34375 0,0.203125 -0.15625,0.765625 -0.25,1.140625 -0.15625,0.65625 -0.203125,0.8125 -0.203125,1.09375 0,1.015625 0.828125,1.484375 1.796875,1.484375 1.15625,0 1.65625,-1.421875 1.65625,-1.609375 0,-0.109375 -0.0625,-0.15625 -0.15625,-0.15625 -0.109375,0 -0.140625,0.09375 -0.171875,0.203125 C 9.9375,-0.25 9.359375,0.015625 9,0.015625 c -0.359375,0 -0.59375,-0.15625 -0.59375,-0.796875 0,-0.359375 0.171875,-1.65625 0.1875,-1.734375 0.0625,-0.53125 0.0625,-0.578125 0.0625,-0.703125 0,-1.046875 -0.84375,-1.484375 -1.390625,-1.65625 z m 0,0"
               id="id-5d0df44f-0dba-4d69-a37f-5781dda98364" />
          </g>
        </g>
      </defs>
      <g
         fill="#000000"
         fill-opacity="1"
         id="id-afa0e518-ba86-4339-8b4f-185cbc0dd834"
         transform="translate(-292.905,-57.0871)">
        <g
           transform="translate(292.233,66.884)"
           id="g22610">
          <path
             d="m 5.28125,-8.828125 c 0.125,-0.53125 0.1875,-0.546875 0.75,-0.546875 H 7.0625 c 1.234375,0 2.140625,0.359375 2.140625,1.484375 0,0.734375 -0.375,2.84375 -3.25,2.84375 h -1.625 z M 7.265625,-4.875 c 1.78125,-0.390625 3.171875,-1.53125 3.171875,-2.765625 0,-1.125 -1.125,-2.15625 -3.125,-2.15625 H 3.421875 c -0.28125,0 -0.40625,0 -0.40625,0.265625 0,0.15625 0.09375,0.15625 0.375,0.15625 C 4.25,-9.375 4.25,-9.265625 4.25,-9.109375 4.25,-9.078125 4.25,-9 4.1875,-8.78125 L 2.25,-1.0625 c -0.125,0.5 -0.15625,0.640625 -1.140625,0.640625 -0.328125,0 -0.4375,0 -0.4375,0.28125 C 0.671875,0 0.828125,0 0.875,0 1.140625,0 1.4375,-0.03125 1.703125,-0.03125 H 3.40625 c 0.25,0 0.546875,0.03125 0.8125,0.03125 0.109375,0 0.265625,0 0.265625,-0.265625 0,-0.15625 -0.125,-0.15625 -0.34375,-0.15625 -0.875,0 -0.875,-0.109375 -0.875,-0.25 0,-0.015625 0,-0.109375 0.03125,-0.234375 l 0.96875,-3.859375 h 1.71875 c 1.359375,0 1.625,0.859375 1.625,1.34375 0,0.203125 -0.15625,0.765625 -0.25,1.140625 -0.15625,0.65625 -0.203125,0.8125 -0.203125,1.09375 0,1.015625 0.828125,1.484375 1.796875,1.484375 1.15625,0 1.65625,-1.421875 1.65625,-1.609375 0,-0.109375 -0.0625,-0.15625 -0.15625,-0.15625 -0.109375,0 -0.140625,0.09375 -0.171875,0.203125 C 9.9375,-0.25 9.359375,0.015625 9,0.015625 c -0.359375,0 -0.59375,-0.15625 -0.59375,-0.796875 0,-0.359375 0.171875,-1.65625 0.1875,-1.734375 0.0625,-0.53125 0.0625,-0.578125 0.0625,-0.703125 0,-1.046875 -0.84375,-1.484375 -1.390625,-1.65625 z m 0,0"
             id="id-b47c0a22-4d9c-488e-aa25-c54fa5c203ea" />
        </g>
      </g>
    </g>
    <g
       transform="matrix(0.458611 0 0 0.458611 75.8929 211.512)"
       ns1:version="1.8.2"
       ns1:texconverter="pdflatex"
       ns1:pdfconverter="inkscape"
       ns1:text="$$-R$$"
       ns1:preamble="/home/buyolitsez/.config/inkscape/extensions/textext/default_packages.tex"
       ns1:scale="1.3"
       ns1:alignment="middle center"
       ns1:stroke-to-path="0"
       ns1:inkscapeversion="1.2.2"
       ns1:jacobian_sqrt="0.458611"
       id="g22677">
      <defs
         id="id-1e44f73b-6715-4776-9e49-5e54776a8818">
        <g
           id="id-cb23d9ff-6360-4ba5-acc1-30e48bcb2069">
          <g
             id="id-84a5eff4-29e2-4022-bd0b-553a105bf1f4" />
          <g
             id="id-55fdc97c-c9f2-4668-98ca-57f1cf5bb974">
            <path
               d="m 9.453125,-3.296875 c 0.25,0 0.5,0 0.5,-0.28125 0,-0.296875 -0.25,-0.296875 -0.5,-0.296875 H 1.6875 c -0.234375,0 -0.5,0 -0.5,0.296875 0,0.28125 0.265625,0.28125 0.5,0.28125 z m 0,0"
               id="id-dced8971-a851-4867-a8b7-20756c27a54c" />
          </g>
          <g
             id="id-be3517ca-0dbb-40af-bdf5-653a87b255ee" />
          <g
             id="id-050b9a70-c44f-428d-aec3-2d87d79123af">
            <path
               d="m 5.28125,-8.828125 c 0.125,-0.53125 0.1875,-0.546875 0.75,-0.546875 H 7.0625 c 1.234375,0 2.140625,0.359375 2.140625,1.484375 0,0.734375 -0.375,2.84375 -3.25,2.84375 h -1.625 z M 7.265625,-4.875 c 1.78125,-0.390625 3.171875,-1.53125 3.171875,-2.765625 0,-1.125 -1.125,-2.15625 -3.125,-2.15625 H 3.421875 c -0.28125,0 -0.40625,0 -0.40625,0.265625 0,0.15625 0.09375,0.15625 0.375,0.15625 C 4.25,-9.375 4.25,-9.265625 4.25,-9.109375 4.25,-9.078125 4.25,-9 4.1875,-8.78125 L 2.25,-1.0625 c -0.125,0.5 -0.15625,0.640625 -1.140625,0.640625 -0.328125,0 -0.4375,0 -0.4375,0.28125 C 0.671875,0 0.828125,0 0.875,0 1.140625,0 1.4375,-0.03125 1.703125,-0.03125 H 3.40625 c 0.25,0 0.546875,0.03125 0.8125,0.03125 0.109375,0 0.265625,0 0.265625,-0.265625 0,-0.15625 -0.125,-0.15625 -0.34375,-0.15625 -0.875,0 -0.875,-0.109375 -0.875,-0.25 0,-0.015625 0,-0.109375 0.03125,-0.234375 l 0.96875,-3.859375 h 1.71875 c 1.359375,0 1.625,0.859375 1.625,1.34375 0,0.203125 -0.15625,0.765625 -0.25,1.140625 -0.15625,0.65625 -0.203125,0.8125 -0.203125,1.09375 0,1.015625 0.828125,1.484375 1.796875,1.484375 1.15625,0 1.65625,-1.421875 1.65625,-1.609375 0,-0.109375 -0.0625,-0.15625 -0.15625,-0.15625 -0.109375,0 -0.140625,0.09375 -0.171875,0.203125 C 9.9375,-0.25 9.359375,0.015625 9,0.015625 c -0.359375,0 -0.59375,-0.15625 -0.59375,-0.796875 0,-0.359375 0.171875,-1.65625 0.1875,-1.734375 0.0625,-0.53125 0.0625,-0.578125 0.0625,-0.703125 0,-1.046875 -0.84375,-1.484375 -1.390625,-1.65625 z m 0,0"
               id="id-7f7f1942-0aab-4088-994f-5ed95252b503" />
          </g>
        </g>
      </defs>
      <g
         fill="#000000"
         fill-opacity="1"
         id="id-5dc5e053-ad81-4321-817f-67b5becbcf46"
         transform="translate(-287.841, -57.0871)">
        <g
           transform="translate(286.654, 66.884)"
           id="g22823">
          <path
             d="m 9.453125,-3.296875 c 0.25,0 0.5,0 0.5,-0.28125 0,-0.296875 -0.25,-0.296875 -0.5,-0.296875 H 1.6875 c -0.234375,0 -0.5,0 -0.5,0.296875 0,0.28125 0.265625,0.28125 0.5,0.28125 z m 0,0"
             id="id-ee1913ac-5c32-4d2f-b478-d4ff0f66361c" />
        </g>
      </g>
      <g
         fill="#000000"
         fill-opacity="1"
         id="id-4611fca7-208a-4329-8b30-72a8e5e1f573"
         transform="translate(-287.841, -57.0871)">
        <g
           transform="translate(297.812, 66.884)"
           id="g22827">
          <path
             d="m 5.28125,-8.828125 c 0.125,-0.53125 0.1875,-0.546875 0.75,-0.546875 H 7.0625 c 1.234375,0 2.140625,0.359375 2.140625,1.484375 0,0.734375 -0.375,2.84375 -3.25,2.84375 h -1.625 z M 7.265625,-4.875 c 1.78125,-0.390625 3.171875,-1.53125 3.171875,-2.765625 0,-1.125 -1.125,-2.15625 -3.125,-2.15625 H 3.421875 c -0.28125,0 -0.40625,0 -0.40625,0.265625 0,0.15625 0.09375,0.15625 0.375,0.15625 C 4.25,-9.375 4.25,-9.265625 4.25,-9.109375 4.25,-9.078125 4.25,-9 4.1875,-8.78125 L 2.25,-1.0625 c -0.125,0.5 -0.15625,0.640625 -1.140625,0.640625 -0.328125,0 -0.4375,0 -0.4375,0.28125 C 0.671875,0 0.828125,0 0.875,0 1.140625,0 1.4375,-0.03125 1.703125,-0.03125 H 3.40625 c 0.25,0 0.546875,0.03125 0.8125,0.03125 0.109375,0 0.265625,0 0.265625,-0.265625 0,-0.15625 -0.125,-0.15625 -0.34375,-0.15625 -0.875,0 -0.875,-0.109375 -0.875,-0.25 0,-0.015625 0,-0.109375 0.03125,-0.234375 l 0.96875,-3.859375 h 1.71875 c 1.359375,0 1.625,0.859375 1.625,1.34375 0,0.203125 -0.15625,0.765625 -0.25,1.140625 -0.15625,0.65625 -0.203125,0.8125 -0.203125,1.09375 0,1.015625 0.828125,1.484375 1.796875,1.484375 1.15625,0 1.65625,-1.421875 1.65625,-1.609375 0,-0.109375 -0.0625,-0.15625 -0.15625,-0.15625 -0.109375,0 -0.140625,0.09375 -0.171875,0.203125 C 9.9375,-0.25 9.359375,0.015625 9,0.015625 c -0.359375,0 -0.59375,-0.15625 -0.59375,-0.796875 0,-0.359375 0.171875,-1.65625 0.1875,-1.734375 0.0625,-0.53125 0.0625,-0.578125 0.0625,-0.703125 0,-1.046875 -0.84375,-1.484375 -1.390625,-1.65625 z m 0,0"
             id="id-99843420-36dd-48a6-acc1-84d8ca7ab056" />
        </g>
      </g>
    </g>
    <g
       transform="matrix(0.458611 0 0 0.458611 69.6669 257.554)"
       ns1:version="1.8.2"
       ns1:texconverter="pdflatex"
       ns1:pdfconverter="inkscape"
       ns1:text="$$-R-it$$"
       ns1:preamble="/home/buyolitsez/.config/inkscape/extensions/textext/default_packages.tex"
       ns1:scale="1.3"
       ns1:alignment="middle center"
       ns1:stroke-to-path="0"
       ns1:inkscapeversion="1.2.2"
       ns1:jacobian_sqrt="0.458611"
       id="g22907">
      <defs
         id="id-3e940684-5027-44f9-9ca2-b192c26bfcbf">
        <g
           id="id-31000f4e-6461-4372-ac39-25aa457f6438">
          <g
             id="id-e06cb803-1123-4406-916b-1c22c74fe9e3" />
          <g
             id="id-7421d683-5d50-4592-81ea-853cae70836b">
            <path
               d="m 9.453125,-3.296875 c 0.25,0 0.5,0 0.5,-0.28125 0,-0.296875 -0.25,-0.296875 -0.5,-0.296875 H 1.6875 c -0.234375,0 -0.5,0 -0.5,0.296875 0,0.28125 0.265625,0.28125 0.5,0.28125 z m 0,0"
               id="id-3b7df946-fc09-42c3-a63f-0d85a02be3fd" />
          </g>
          <g
             id="id-4c5096a5-ed1c-46c6-8af1-c300c94516ff" />
          <g
             id="id-ae2dfe03-1bc6-4c93-9d67-c3da59da69d5">
            <path
               d="m 5.28125,-8.828125 c 0.125,-0.53125 0.1875,-0.546875 0.75,-0.546875 H 7.0625 c 1.234375,0 2.140625,0.359375 2.140625,1.484375 0,0.734375 -0.375,2.84375 -3.25,2.84375 h -1.625 z M 7.265625,-4.875 c 1.78125,-0.390625 3.171875,-1.53125 3.171875,-2.765625 0,-1.125 -1.125,-2.15625 -3.125,-2.15625 H 3.421875 c -0.28125,0 -0.40625,0 -0.40625,0.265625 0,0.15625 0.09375,0.15625 0.375,0.15625 C 4.25,-9.375 4.25,-9.265625 4.25,-9.109375 4.25,-9.078125 4.25,-9 4.1875,-8.78125 L 2.25,-1.0625 c -0.125,0.5 -0.15625,0.640625 -1.140625,0.640625 -0.328125,0 -0.4375,0 -0.4375,0.28125 C 0.671875,0 0.828125,0 0.875,0 1.140625,0 1.4375,-0.03125 1.703125,-0.03125 H 3.40625 c 0.25,0 0.546875,0.03125 0.8125,0.03125 0.109375,0 0.265625,0 0.265625,-0.265625 0,-0.15625 -0.125,-0.15625 -0.34375,-0.15625 -0.875,0 -0.875,-0.109375 -0.875,-0.25 0,-0.015625 0,-0.109375 0.03125,-0.234375 l 0.96875,-3.859375 h 1.71875 c 1.359375,0 1.625,0.859375 1.625,1.34375 0,0.203125 -0.15625,0.765625 -0.25,1.140625 -0.15625,0.65625 -0.203125,0.8125 -0.203125,1.09375 0,1.015625 0.828125,1.484375 1.796875,1.484375 1.15625,0 1.65625,-1.421875 1.65625,-1.609375 0,-0.109375 -0.0625,-0.15625 -0.15625,-0.15625 -0.109375,0 -0.140625,0.09375 -0.171875,0.203125 C 9.9375,-0.25 9.359375,0.015625 9,0.015625 c -0.359375,0 -0.59375,-0.15625 -0.59375,-0.796875 0,-0.359375 0.171875,-1.65625 0.1875,-1.734375 0.0625,-0.53125 0.0625,-0.578125 0.0625,-0.703125 0,-1.046875 -0.84375,-1.484375 -1.390625,-1.65625 z m 0,0"
               id="id-dbf3e89f-0a0f-4ae0-b4b4-9ae31d3d8b6e" />
          </g>
          <g
             id="id-6a13c4cd-8fc7-46ef-be44-f51d9b66008b">
            <path
               d="M 4.0625,-2.046875 C 4.0625,-2.125 4,-2.1875 3.921875,-2.1875 c -0.140625,0 -0.15625,0.046875 -0.21875,0.296875 -0.375,1.296875 -0.96875,1.75 -1.4375,1.75 -0.171875,0 -0.375,-0.046875 -0.375,-0.46875 0,-0.390625 0.171875,-0.828125 0.328125,-1.25 L 3.234375,-4.53125 C 3.265625,-4.640625 3.375,-4.90625 3.375,-5.171875 c 0,-0.609375 -0.4375,-1.15625 -1.140625,-1.15625 -1.3125,0 -1.84375,2.078125 -1.84375,2.203125 0,0.046875 0.046875,0.125 0.15625,0.125 C 0.671875,-4 0.6875,-4.0625 0.75,-4.265625 1.09375,-5.46875 1.640625,-6.03125 2.1875,-6.03125 c 0.140625,0 0.375,0 0.375,0.46875 0,0.375 -0.1875,0.84375 -0.296875,1.15625 l -1,2.671875 C 1.171875,-1.5 1.09375,-1.28125 1.09375,-1.015625 c 0,0.640625 0.4375,1.15625 1.125,1.15625 1.328125,0 1.84375,-2.09375 1.84375,-2.1875 z m -0.125,-6.90625 c 0,-0.21875 -0.171875,-0.46875 -0.484375,-0.46875 -0.328125,0 -0.703125,0.3125 -0.703125,0.6875 0,0.359375 0.3125,0.46875 0.484375,0.46875 0.375,0 0.703125,-0.375 0.703125,-0.6875 z m 0,0"
               id="id-06a583e6-e405-4231-82da-68cf40e9e7dd" />
          </g>
          <g
             id="id-937c16d9-8a06-40cb-8f82-10f3a6dc25da">
            <path
               d="m 2.890625,-5.765625 h 1.3125 c 0.265625,0 0.421875,0 0.421875,-0.265625 C 4.625,-6.1875 4.53125,-6.1875 4.25,-6.1875 H 2.984375 l 0.53125,-2.09375 c 0.0625,-0.203125 0.0625,-0.21875 0.0625,-0.328125 0,-0.21875 -0.1875,-0.359375 -0.375,-0.359375 -0.125,0 -0.453125,0.046875 -0.5625,0.5 l -0.5625,2.28125 h -1.34375 c -0.296875,0 -0.421875,0 -0.421875,0.28125 0,0.140625 0.109375,0.140625 0.375,0.140625 h 1.28125 l -0.953125,3.78125 c -0.109375,0.5 -0.15625,0.65625 -0.15625,0.84375 0,0.671875 0.46875,1.28125 1.28125,1.28125 1.4375,0 2.21875,-2.09375 2.21875,-2.1875 0,-0.09375 -0.0625,-0.140625 -0.140625,-0.140625 -0.03125,0 -0.09375,0 -0.109375,0.0625 -0.015625,0.015625 -0.03125,0.03125 -0.140625,0.265625 -0.296875,0.71875 -0.953125,1.71875 -1.78125,1.71875 -0.4375,0 -0.46875,-0.359375 -0.46875,-0.671875 0,-0.015625 0,-0.296875 0.046875,-0.46875 z m 0,0"
               id="id-b97600ed-0a98-4eef-9407-4329ee4f704f" />
          </g>
        </g>
      </defs>
      <g
         fill="#000000"
         fill-opacity="1"
         id="id-fe268b13-ec51-4f3a-8b58-caeeb1853ed9"
         transform="translate(-274.142, -57.0871)">
        <g
           transform="translate(272.954, 66.884)"
           id="g23093">
          <path
             d="m 9.453125,-3.296875 c 0.25,0 0.5,0 0.5,-0.28125 0,-0.296875 -0.25,-0.296875 -0.5,-0.296875 H 1.6875 c -0.234375,0 -0.5,0 -0.5,0.296875 0,0.28125 0.265625,0.28125 0.5,0.28125 z m 0,0"
             id="id-be89bd56-bf28-4285-a922-ccaab4c06b1d" />
        </g>
      </g>
      <g
         fill="#000000"
         fill-opacity="1"
         id="id-505bdb96-d019-4bee-ab4d-b2e0331b9d77"
         transform="translate(-274.142, -57.0871)">
        <g
           transform="translate(284.112, 66.884)"
           id="g23097">
          <path
             d="m 5.28125,-8.828125 c 0.125,-0.53125 0.1875,-0.546875 0.75,-0.546875 H 7.0625 c 1.234375,0 2.140625,0.359375 2.140625,1.484375 0,0.734375 -0.375,2.84375 -3.25,2.84375 h -1.625 z M 7.265625,-4.875 c 1.78125,-0.390625 3.171875,-1.53125 3.171875,-2.765625 0,-1.125 -1.125,-2.15625 -3.125,-2.15625 H 3.421875 c -0.28125,0 -0.40625,0 -0.40625,0.265625 0,0.15625 0.09375,0.15625 0.375,0.15625 C 4.25,-9.375 4.25,-9.265625 4.25,-9.109375 4.25,-9.078125 4.25,-9 4.1875,-8.78125 L 2.25,-1.0625 c -0.125,0.5 -0.15625,0.640625 -1.140625,0.640625 -0.328125,0 -0.4375,0 -0.4375,0.28125 C 0.671875,0 0.828125,0 0.875,0 1.140625,0 1.4375,-0.03125 1.703125,-0.03125 H 3.40625 c 0.25,0 0.546875,0.03125 0.8125,0.03125 0.109375,0 0.265625,0 0.265625,-0.265625 0,-0.15625 -0.125,-0.15625 -0.34375,-0.15625 -0.875,0 -0.875,-0.109375 -0.875,-0.25 0,-0.015625 0,-0.109375 0.03125,-0.234375 l 0.96875,-3.859375 h 1.71875 c 1.359375,0 1.625,0.859375 1.625,1.34375 0,0.203125 -0.15625,0.765625 -0.25,1.140625 -0.15625,0.65625 -0.203125,0.8125 -0.203125,1.09375 0,1.015625 0.828125,1.484375 1.796875,1.484375 1.15625,0 1.65625,-1.421875 1.65625,-1.609375 0,-0.109375 -0.0625,-0.15625 -0.15625,-0.15625 -0.109375,0 -0.140625,0.09375 -0.171875,0.203125 C 9.9375,-0.25 9.359375,0.015625 9,0.015625 c -0.359375,0 -0.59375,-0.15625 -0.59375,-0.796875 0,-0.359375 0.171875,-1.65625 0.1875,-1.734375 0.0625,-0.53125 0.0625,-0.578125 0.0625,-0.703125 0,-1.046875 -0.84375,-1.484375 -1.390625,-1.65625 z m 0,0"
             id="id-98d8c650-f598-40c4-a517-e339f54a7b2a" />
        </g>
      </g>
      <g
         fill="#000000"
         fill-opacity="1"
         id="id-704e9096-db94-428c-a33b-7b8a5d8f192b"
         transform="translate(-274.142, -57.0871)">
        <g
           transform="translate(298.111, 66.884)"
           id="g23101">
          <path
             d="m 9.453125,-3.296875 c 0.25,0 0.5,0 0.5,-0.28125 0,-0.296875 -0.25,-0.296875 -0.5,-0.296875 H 1.6875 c -0.234375,0 -0.5,0 -0.5,0.296875 0,0.28125 0.265625,0.28125 0.5,0.28125 z m 0,0"
             id="id-48a58bdd-8edc-42bf-b14b-551617743676" />
        </g>
      </g>
      <g
         fill="#000000"
         fill-opacity="1"
         id="id-7519aff5-2fda-4973-8986-85edc7e3414c"
         transform="translate(-274.142, -57.0871)">
        <g
           transform="translate(312.457, 66.884)"
           id="g23105">
          <path
             d="M 4.0625,-2.046875 C 4.0625,-2.125 4,-2.1875 3.921875,-2.1875 c -0.140625,0 -0.15625,0.046875 -0.21875,0.296875 -0.375,1.296875 -0.96875,1.75 -1.4375,1.75 -0.171875,0 -0.375,-0.046875 -0.375,-0.46875 0,-0.390625 0.171875,-0.828125 0.328125,-1.25 L 3.234375,-4.53125 C 3.265625,-4.640625 3.375,-4.90625 3.375,-5.171875 c 0,-0.609375 -0.4375,-1.15625 -1.140625,-1.15625 -1.3125,0 -1.84375,2.078125 -1.84375,2.203125 0,0.046875 0.046875,0.125 0.15625,0.125 C 0.671875,-4 0.6875,-4.0625 0.75,-4.265625 1.09375,-5.46875 1.640625,-6.03125 2.1875,-6.03125 c 0.140625,0 0.375,0 0.375,0.46875 0,0.375 -0.1875,0.84375 -0.296875,1.15625 l -1,2.671875 C 1.171875,-1.5 1.09375,-1.28125 1.09375,-1.015625 c 0,0.640625 0.4375,1.15625 1.125,1.15625 1.328125,0 1.84375,-2.09375 1.84375,-2.1875 z m -0.125,-6.90625 c 0,-0.21875 -0.171875,-0.46875 -0.484375,-0.46875 -0.328125,0 -0.703125,0.3125 -0.703125,0.6875 0,0.359375 0.3125,0.46875 0.484375,0.46875 0.375,0 0.703125,-0.375 0.703125,-0.6875 z m 0,0"
             id="id-55342dca-dfde-4e16-93d6-802568e8cd19" />
        </g>
        <g
           transform="translate(317.249, 66.884)"
           id="g23108">
          <path
             d="m 2.890625,-5.765625 h 1.3125 c 0.265625,0 0.421875,0 0.421875,-0.265625 C 4.625,-6.1875 4.53125,-6.1875 4.25,-6.1875 H 2.984375 l 0.53125,-2.09375 c 0.0625,-0.203125 0.0625,-0.21875 0.0625,-0.328125 0,-0.21875 -0.1875,-0.359375 -0.375,-0.359375 -0.125,0 -0.453125,0.046875 -0.5625,0.5 l -0.5625,2.28125 h -1.34375 c -0.296875,0 -0.421875,0 -0.421875,0.28125 0,0.140625 0.109375,0.140625 0.375,0.140625 h 1.28125 l -0.953125,3.78125 c -0.109375,0.5 -0.15625,0.65625 -0.15625,0.84375 0,0.671875 0.46875,1.28125 1.28125,1.28125 1.4375,0 2.21875,-2.09375 2.21875,-2.1875 0,-0.09375 -0.0625,-0.140625 -0.140625,-0.140625 -0.03125,0 -0.09375,0 -0.109375,0.0625 -0.015625,0.015625 -0.03125,0.03125 -0.140625,0.265625 -0.296875,0.71875 -0.953125,1.71875 -1.78125,1.71875 -0.4375,0 -0.46875,-0.359375 -0.46875,-0.671875 0,-0.015625 0,-0.296875 0.046875,-0.46875 z m 0,0"
             id="id-308a13a8-2767-47d8-9af3-3d840b2e8ef3" />
        </g>
      </g>
    </g>
    <g
       transform="matrix(0.458611 0 0 0.458611 149.757 257.554)"
       ns1:version="1.8.2"
       ns1:texconverter="pdflatex"
       ns1:pdfconverter="inkscape"
       ns1:text="$$R-it$$"
       ns1:preamble="/home/buyolitsez/.config/inkscape/extensions/textext/default_packages.tex"
       ns1:scale="1.3"
       ns1:alignment="middle center"
       ns1:stroke-to-path="0"
       ns1:inkscapeversion="1.2.2"
       ns1:jacobian_sqrt="0.458611"
       id="g23224">
      <defs
         id="id-c0c0a872-7d42-4bd8-9c7c-bfc3b3b2f77b">
        <g
           id="id-31bf4022-6680-413b-8c08-80dd8f0093a8">
          <g
             id="id-c57f5984-f035-4753-be45-e296637b340d" />
          <g
             id="id-0a6facb1-29cf-4556-9c41-905cafdfec03">
            <path
               d="m 5.28125,-8.828125 c 0.125,-0.53125 0.1875,-0.546875 0.75,-0.546875 H 7.0625 c 1.234375,0 2.140625,0.359375 2.140625,1.484375 0,0.734375 -0.375,2.84375 -3.25,2.84375 h -1.625 z M 7.265625,-4.875 c 1.78125,-0.390625 3.171875,-1.53125 3.171875,-2.765625 0,-1.125 -1.125,-2.15625 -3.125,-2.15625 H 3.421875 c -0.28125,0 -0.40625,0 -0.40625,0.265625 0,0.15625 0.09375,0.15625 0.375,0.15625 C 4.25,-9.375 4.25,-9.265625 4.25,-9.109375 4.25,-9.078125 4.25,-9 4.1875,-8.78125 L 2.25,-1.0625 c -0.125,0.5 -0.15625,0.640625 -1.140625,0.640625 -0.328125,0 -0.4375,0 -0.4375,0.28125 C 0.671875,0 0.828125,0 0.875,0 1.140625,0 1.4375,-0.03125 1.703125,-0.03125 H 3.40625 c 0.25,0 0.546875,0.03125 0.8125,0.03125 0.109375,0 0.265625,0 0.265625,-0.265625 0,-0.15625 -0.125,-0.15625 -0.34375,-0.15625 -0.875,0 -0.875,-0.109375 -0.875,-0.25 0,-0.015625 0,-0.109375 0.03125,-0.234375 l 0.96875,-3.859375 h 1.71875 c 1.359375,0 1.625,0.859375 1.625,1.34375 0,0.203125 -0.15625,0.765625 -0.25,1.140625 -0.15625,0.65625 -0.203125,0.8125 -0.203125,1.09375 0,1.015625 0.828125,1.484375 1.796875,1.484375 1.15625,0 1.65625,-1.421875 1.65625,-1.609375 0,-0.109375 -0.0625,-0.15625 -0.15625,-0.15625 -0.109375,0 -0.140625,0.09375 -0.171875,0.203125 C 9.9375,-0.25 9.359375,0.015625 9,0.015625 c -0.359375,0 -0.59375,-0.15625 -0.59375,-0.796875 0,-0.359375 0.171875,-1.65625 0.1875,-1.734375 0.0625,-0.53125 0.0625,-0.578125 0.0625,-0.703125 0,-1.046875 -0.84375,-1.484375 -1.390625,-1.65625 z m 0,0"
               id="id-09ab7ac9-1b64-4e4a-a089-f20e9f4282b1" />
          </g>
          <g
             id="id-eecf2af6-01ae-489e-8ac7-3359a2fa5d6f">
            <path
               d="M 4.0625,-2.046875 C 4.0625,-2.125 4,-2.1875 3.921875,-2.1875 c -0.140625,0 -0.15625,0.046875 -0.21875,0.296875 -0.375,1.296875 -0.96875,1.75 -1.4375,1.75 -0.171875,0 -0.375,-0.046875 -0.375,-0.46875 0,-0.390625 0.171875,-0.828125 0.328125,-1.25 L 3.234375,-4.53125 C 3.265625,-4.640625 3.375,-4.90625 3.375,-5.171875 c 0,-0.609375 -0.4375,-1.15625 -1.140625,-1.15625 -1.3125,0 -1.84375,2.078125 -1.84375,2.203125 0,0.046875 0.046875,0.125 0.15625,0.125 C 0.671875,-4 0.6875,-4.0625 0.75,-4.265625 1.09375,-5.46875 1.640625,-6.03125 2.1875,-6.03125 c 0.140625,0 0.375,0 0.375,0.46875 0,0.375 -0.1875,0.84375 -0.296875,1.15625 l -1,2.671875 C 1.171875,-1.5 1.09375,-1.28125 1.09375,-1.015625 c 0,0.640625 0.4375,1.15625 1.125,1.15625 1.328125,0 1.84375,-2.09375 1.84375,-2.1875 z m -0.125,-6.90625 c 0,-0.21875 -0.171875,-0.46875 -0.484375,-0.46875 -0.328125,0 -0.703125,0.3125 -0.703125,0.6875 0,0.359375 0.3125,0.46875 0.484375,0.46875 0.375,0 0.703125,-0.375 0.703125,-0.6875 z m 0,0"
               id="id-58af7649-41e8-4a8b-b1dc-53b9ba81defb" />
          </g>
          <g
             id="id-799be8b0-4813-472f-901d-edd1f93bd896">
            <path
               d="m 2.890625,-5.765625 h 1.3125 c 0.265625,0 0.421875,0 0.421875,-0.265625 C 4.625,-6.1875 4.53125,-6.1875 4.25,-6.1875 H 2.984375 l 0.53125,-2.09375 c 0.0625,-0.203125 0.0625,-0.21875 0.0625,-0.328125 0,-0.21875 -0.1875,-0.359375 -0.375,-0.359375 -0.125,0 -0.453125,0.046875 -0.5625,0.5 l -0.5625,2.28125 h -1.34375 c -0.296875,0 -0.421875,0 -0.421875,0.28125 0,0.140625 0.109375,0.140625 0.375,0.140625 h 1.28125 l -0.953125,3.78125 c -0.109375,0.5 -0.15625,0.65625 -0.15625,0.84375 0,0.671875 0.46875,1.28125 1.28125,1.28125 1.4375,0 2.21875,-2.09375 2.21875,-2.1875 0,-0.09375 -0.0625,-0.140625 -0.140625,-0.140625 -0.03125,0 -0.09375,0 -0.109375,0.0625 -0.015625,0.015625 -0.03125,0.03125 -0.140625,0.265625 -0.296875,0.71875 -0.953125,1.71875 -1.78125,1.71875 -0.4375,0 -0.46875,-0.359375 -0.46875,-0.671875 0,-0.015625 0,-0.296875 0.046875,-0.46875 z m 0,0"
               id="id-fc34568f-935e-4a9b-a4bb-37b781020d43" />
          </g>
          <g
             id="id-59bac3a4-5901-4a8b-ab26-9f30f3cf643d" />
          <g
             id="id-cbe52720-0c4a-4770-bd59-a43fed06583d">
            <path
               d="m 9.453125,-3.296875 c 0.25,0 0.5,0 0.5,-0.28125 0,-0.296875 -0.25,-0.296875 -0.5,-0.296875 H 1.6875 c -0.234375,0 -0.5,0 -0.5,0.296875 0,0.28125 0.265625,0.28125 0.5,0.28125 z m 0,0"
               id="id-070a6248-b006-4b3d-8143-79da42505775" />
          </g>
        </g>
      </defs>
      <g
         fill="#000000"
         fill-opacity="1"
         id="id-1ee2d903-b557-4a85-a76d-a08f40c17b01"
         transform="translate(-279.205, -57.0871)">
        <g
           transform="translate(278.533, 66.884)"
           id="g23476">
          <path
             d="m 5.28125,-8.828125 c 0.125,-0.53125 0.1875,-0.546875 0.75,-0.546875 H 7.0625 c 1.234375,0 2.140625,0.359375 2.140625,1.484375 0,0.734375 -0.375,2.84375 -3.25,2.84375 h -1.625 z M 7.265625,-4.875 c 1.78125,-0.390625 3.171875,-1.53125 3.171875,-2.765625 0,-1.125 -1.125,-2.15625 -3.125,-2.15625 H 3.421875 c -0.28125,0 -0.40625,0 -0.40625,0.265625 0,0.15625 0.09375,0.15625 0.375,0.15625 C 4.25,-9.375 4.25,-9.265625 4.25,-9.109375 4.25,-9.078125 4.25,-9 4.1875,-8.78125 L 2.25,-1.0625 c -0.125,0.5 -0.15625,0.640625 -1.140625,0.640625 -0.328125,0 -0.4375,0 -0.4375,0.28125 C 0.671875,0 0.828125,0 0.875,0 1.140625,0 1.4375,-0.03125 1.703125,-0.03125 H 3.40625 c 0.25,0 0.546875,0.03125 0.8125,0.03125 0.109375,0 0.265625,0 0.265625,-0.265625 0,-0.15625 -0.125,-0.15625 -0.34375,-0.15625 -0.875,0 -0.875,-0.109375 -0.875,-0.25 0,-0.015625 0,-0.109375 0.03125,-0.234375 l 0.96875,-3.859375 h 1.71875 c 1.359375,0 1.625,0.859375 1.625,1.34375 0,0.203125 -0.15625,0.765625 -0.25,1.140625 -0.15625,0.65625 -0.203125,0.8125 -0.203125,1.09375 0,1.015625 0.828125,1.484375 1.796875,1.484375 1.15625,0 1.65625,-1.421875 1.65625,-1.609375 0,-0.109375 -0.0625,-0.15625 -0.15625,-0.15625 -0.109375,0 -0.140625,0.09375 -0.171875,0.203125 C 9.9375,-0.25 9.359375,0.015625 9,0.015625 c -0.359375,0 -0.59375,-0.15625 -0.59375,-0.796875 0,-0.359375 0.171875,-1.65625 0.1875,-1.734375 0.0625,-0.53125 0.0625,-0.578125 0.0625,-0.703125 0,-1.046875 -0.84375,-1.484375 -1.390625,-1.65625 z m 0,0"
             id="id-926a2b41-56c1-4240-b660-0a1affbaf93f" />
        </g>
      </g>
      <g
         fill="#000000"
         fill-opacity="1"
         id="id-fc2eacb6-9b0d-40e3-b22e-f216c004be22"
         transform="translate(-279.205, -57.0871)">
        <g
           transform="translate(292.531, 66.884)"
           id="g23480">
          <path
             d="m 9.453125,-3.296875 c 0.25,0 0.5,0 0.5,-0.28125 0,-0.296875 -0.25,-0.296875 -0.5,-0.296875 H 1.6875 c -0.234375,0 -0.5,0 -0.5,0.296875 0,0.28125 0.265625,0.28125 0.5,0.28125 z m 0,0"
             id="id-5be49a3b-2a8a-4fc6-95f3-4abc3e8a5850" />
        </g>
      </g>
      <g
         fill="#000000"
         fill-opacity="1"
         id="id-e9a6655a-d2e1-4b1a-9452-140a8c34dbc7"
         transform="translate(-279.205, -57.0871)">
        <g
           transform="translate(306.878, 66.884)"
           id="g23484">
          <path
             d="M 4.0625,-2.046875 C 4.0625,-2.125 4,-2.1875 3.921875,-2.1875 c -0.140625,0 -0.15625,0.046875 -0.21875,0.296875 -0.375,1.296875 -0.96875,1.75 -1.4375,1.75 -0.171875,0 -0.375,-0.046875 -0.375,-0.46875 0,-0.390625 0.171875,-0.828125 0.328125,-1.25 L 3.234375,-4.53125 C 3.265625,-4.640625 3.375,-4.90625 3.375,-5.171875 c 0,-0.609375 -0.4375,-1.15625 -1.140625,-1.15625 -1.3125,0 -1.84375,2.078125 -1.84375,2.203125 0,0.046875 0.046875,0.125 0.15625,0.125 C 0.671875,-4 0.6875,-4.0625 0.75,-4.265625 1.09375,-5.46875 1.640625,-6.03125 2.1875,-6.03125 c 0.140625,0 0.375,0 0.375,0.46875 0,0.375 -0.1875,0.84375 -0.296875,1.15625 l -1,2.671875 C 1.171875,-1.5 1.09375,-1.28125 1.09375,-1.015625 c 0,0.640625 0.4375,1.15625 1.125,1.15625 1.328125,0 1.84375,-2.09375 1.84375,-2.1875 z m -0.125,-6.90625 c 0,-0.21875 -0.171875,-0.46875 -0.484375,-0.46875 -0.328125,0 -0.703125,0.3125 -0.703125,0.6875 0,0.359375 0.3125,0.46875 0.484375,0.46875 0.375,0 0.703125,-0.375 0.703125,-0.6875 z m 0,0"
             id="id-8b6bdfda-ff8a-4d5f-9e85-8cf43a47298f" />
        </g>
        <g
           transform="translate(311.67, 66.884)"
           id="g23487">
          <path
             d="m 2.890625,-5.765625 h 1.3125 c 0.265625,0 0.421875,0 0.421875,-0.265625 C 4.625,-6.1875 4.53125,-6.1875 4.25,-6.1875 H 2.984375 l 0.53125,-2.09375 c 0.0625,-0.203125 0.0625,-0.21875 0.0625,-0.328125 0,-0.21875 -0.1875,-0.359375 -0.375,-0.359375 -0.125,0 -0.453125,0.046875 -0.5625,0.5 l -0.5625,2.28125 h -1.34375 c -0.296875,0 -0.421875,0 -0.421875,0.28125 0,0.140625 0.109375,0.140625 0.375,0.140625 h 1.28125 l -0.953125,3.78125 c -0.109375,0.5 -0.15625,0.65625 -0.15625,0.84375 0,0.671875 0.46875,1.28125 1.28125,1.28125 1.4375,0 2.21875,-2.09375 2.21875,-2.1875 0,-0.09375 -0.0625,-0.140625 -0.140625,-0.140625 -0.03125,0 -0.09375,0 -0.109375,0.0625 -0.015625,0.015625 -0.03125,0.03125 -0.140625,0.265625 -0.296875,0.71875 -0.953125,1.71875 -1.78125,1.71875 -0.4375,0 -0.46875,-0.359375 -0.46875,-0.671875 0,-0.015625 0,-0.296875 0.046875,-0.46875 z m 0,0"
             id="id-91e40c3f-949c-452c-9832-064885412765" />
        </g>
      </g>
    </g>
  </g>
</svg>
