<?xml version="1.0" encoding="UTF-8" standalone="no"?>
<!-- Created with Inkscape (http://www.inkscape.org/) -->

<svg
   width="240mm"
   height="120mm"
   viewBox="0 0 240 120"
   version="1.1"
   id="svg8"
   inkscape:version="1.2.2 (b0a8486541, 2022-12-01)"
   sodipodi:docname="distribution_function_points_to_evenlly.svg"
   xmlns:inkscape="http://www.inkscape.org/namespaces/inkscape"
   xmlns:sodipodi="http://sodipodi.sourceforge.net/DTD/sodipodi-0.dtd"
   xmlns="http://www.w3.org/2000/svg"
   xmlns:svg="http://www.w3.org/2000/svg"
   xmlns:rdf="http://www.w3.org/1999/02/22-rdf-syntax-ns#"
   xmlns:cc="http://creativecommons.org/ns#"
   xmlns:dc="http://purl.org/dc/elements/1.1/"
   xmlns:ns5="http://www.iki.fi/pav/software/textext/">
  <defs
     id="defs2" />
  <sodipodi:namedview
     id="base"
     pagecolor="#ffffff"
     bordercolor="#666666"
     borderopacity="1.0"
     inkscape:pageopacity="0.0"
     inkscape:pageshadow="2"
     inkscape:zoom="0.7031285"
     inkscape:cx="443.73112"
     inkscape:cy="627.19688"
     inkscape:document-units="mm"
     inkscape:current-layer="layer1"
     showgrid="false"
     showborder="true"
     width="200mm"
     showguides="true"
     inkscape:guide-bbox="true"
     inkscape:window-width="1280"
     inkscape:window-height="1317"
     inkscape:window-x="0"
     inkscape:window-y="0"
     inkscape:window-maximized="1"
     inkscape:showpageshadow="2"
     inkscape:pagecheckerboard="0"
     inkscape:deskcolor="#d1d1d1">
    <inkscape:grid
       type="xygrid"
       id="grid815"
       units="mm"
       spacingx="10"
       spacingy="10"
       empspacing="4"
       dotted="false" />
  </sodipodi:namedview>
  <metadata
     id="metadata5">
    <rdf:RDF>
      <cc:Work
         rdf:about="">
        <dc:format>image/svg+xml</dc:format>
        <dc:type
           rdf:resource="http://purl.org/dc/dcmitype/StillImage" />
      </cc:Work>
    </rdf:RDF>
  </metadata>
  <g
     inkscape:label="Layer 1"
     inkscape:groupmode="layer"
     id="layer1"
     transform="translate(0, -177)">
    <path
       style="fill:#000000;fill-opacity:1;fill-rule:evenodd;stroke:#000000;stroke-width:0.828;stroke-dasharray:none;paint-order:markers stroke fill"
       d="M 16.574934,228.30153 H 220.34362"
       id="path573" />
    <path
       style="fill:#000000;fill-opacity:1;fill-rule:evenodd;stroke:#000000;stroke-width:0.828;stroke-dasharray:none;paint-order:markers stroke fill"
       d="m 51.924,224.64971 v 7.30613"
       id="path7092" />
    <path
       style="fill:#000000;fill-opacity:1;fill-rule:evenodd;stroke:#000000;stroke-width:0.828;stroke-dasharray:none;paint-order:markers stroke fill"
       d="m 91.340749,224.64971 v 7.30613"
       id="path7100" />
    <path
       style="fill:#000000;fill-opacity:1;fill-rule:evenodd;stroke:#000000;stroke-width:0.828;stroke-dasharray:none;paint-order:markers stroke fill"
       d="m 176.9555,224.64971 v 7.30613"
       id="path7106" />
    <g
       transform="matrix(0.458611,0,0,0.458611,15.414832,234.74638)"
       ns5:version="1.8.2"
       ns5:texconverter="pdflatex"
       ns5:pdfconverter="inkscape"
       ns5:text="$$0$$"
       ns5:preamble="/home/buyolitsez/.config/inkscape/extensions/textext/default_packages.tex"
       ns5:scale="1.3"
       ns5:alignment="middle center"
       ns5:stroke-to-path="0"
       ns5:inkscapeversion="1.2.2"
       ns5:jacobian_sqrt="0.458611"
       id="g1283">
      <defs
         id="id-c0cddbfa-28d3-4051-b664-c9e1ac534327">
        <g
           id="id-d82bf3ac-d1af-47c1-b3e8-a3bf33f9286f">
          <g
             id="id-1af9f543-6c9c-4dde-a277-1f0e5dfeb242" />
          <g
             id="id-ef425bc8-c49e-486f-ba86-7d361b11943c">
            <path
               d="m 6.421875,-4.59375 c 0,-1.1875 -0.0625,-2.34375 -0.578125,-3.4375 -0.59375,-1.1875 -1.625,-1.5 -2.328125,-1.5 -0.828125,0 -1.859375,0.40625 -2.375,1.59375 -0.40625,0.90625 -0.546875,1.796875 -0.546875,3.34375 0,1.390625 0.09375,2.4375 0.609375,3.453125 0.5625,1.09375 1.546875,1.4375 2.296875,1.4375 1.25,0 1.96875,-0.734375 2.375,-1.578125 0.515625,-1.078125 0.546875,-2.484375 0.546875,-3.3125 z M 3.5,0.015625 C 3.046875,0.015625 2.109375,-0.25 1.84375,-1.8125 1.671875,-2.671875 1.671875,-3.765625 1.671875,-4.765625 1.671875,-5.9375 1.671875,-7 1.90625,-7.84375 2.15625,-8.8125 2.890625,-9.25 3.5,-9.25 c 0.546875,0 1.375,0.328125 1.65625,1.5625 0.171875,0.8125 0.171875,1.953125 0.171875,2.921875 0,0.96875 0,2.046875 -0.15625,2.921875 C 4.90625,-0.265625 4,0.015625 3.5,0.015625 Z m 0,0"
               id="id-a4895020-e2ee-413d-9380-6d031a484c38" />
          </g>
        </g>
      </defs>
      <g
         fill="#000000"
         fill-opacity="1"
         id="id-2e42dfeb-b131-4989-812b-0b7de402720c"
         transform="translate(-294.72,-57.3528)">
        <g
           transform="translate(294.126,66.884)"
           id="g1280">
          <path
             d="m 6.421875,-4.59375 c 0,-1.1875 -0.0625,-2.34375 -0.578125,-3.4375 -0.59375,-1.1875 -1.625,-1.5 -2.328125,-1.5 -0.828125,0 -1.859375,0.40625 -2.375,1.59375 -0.40625,0.90625 -0.546875,1.796875 -0.546875,3.34375 0,1.390625 0.09375,2.4375 0.609375,3.453125 0.5625,1.09375 1.546875,1.4375 2.296875,1.4375 1.25,0 1.96875,-0.734375 2.375,-1.578125 0.515625,-1.078125 0.546875,-2.484375 0.546875,-3.3125 z M 3.5,0.015625 C 3.046875,0.015625 2.109375,-0.25 1.84375,-1.8125 1.671875,-2.671875 1.671875,-3.765625 1.671875,-4.765625 1.671875,-5.9375 1.671875,-7 1.90625,-7.84375 2.15625,-8.8125 2.890625,-9.25 3.5,-9.25 c 0.546875,0 1.375,0.328125 1.65625,1.5625 0.171875,0.8125 0.171875,1.953125 0.171875,2.921875 0,0.96875 0,2.046875 -0.15625,2.921875 C 4.90625,-0.265625 4,0.015625 3.5,0.015625 Z m 0,0"
             id="id-089a6875-f5cd-47ec-a846-a59a147037f5" />
        </g>
      </g>
    </g>
    <g
       transform="matrix(0.458611 0 0 0.458611 218.586 234.814)"
       ns5:version="1.8.2"
       ns5:texconverter="pdflatex"
       ns5:pdfconverter="inkscape"
       ns5:text="$$1$$"
       ns5:preamble="/home/buyolitsez/.config/inkscape/extensions/textext/default_packages.tex"
       ns5:scale="1.3"
       ns5:alignment="middle center"
       ns5:stroke-to-path="0"
       ns5:inkscapeversion="1.2.2"
       ns5:jacobian_sqrt="0.458611"
       id="g1313">
      <defs
         id="id-c8631bbe-90e3-45a5-bf54-0166def78e25">
        <g
           id="id-fe3721d2-b391-44fb-9e54-c6be2cab4c6f">
          <g
             id="id-f0c3d495-bc6b-40c8-987d-2ff2cb7a0dcf" />
          <g
             id="id-bff8d531-d253-4d54-8a21-dd1750934b83">
            <path
               d="m 4.125,-9.1875 c 0,-0.34375 0,-0.34375 -0.28125,-0.34375 C 3.5,-9.15625 2.78125,-8.625 1.3125,-8.625 v 0.421875 c 0.328125,0 1.046875,0 1.828125,-0.375 v 7.46875 c 0,0.515625 -0.046875,0.6875 -1.296875,0.6875 H 1.390625 V 0 c 0.390625,-0.03125 1.78125,-0.03125 2.25,-0.03125 0.46875,0 1.859375,0 2.234375,0.03125 V -0.421875 H 5.4375 c -1.265625,0 -1.3125,-0.171875 -1.3125,-0.6875 z m 0,0"
               id="id-4293d6cd-6944-4744-95a3-49283e05b395" />
          </g>
        </g>
      </defs>
      <g
         fill="#000000"
         fill-opacity="1"
         id="id-8e21fb4e-d286-4b63-ae09-c4f6799b7c09"
         transform="translate(-295.439, -57.3528)">
        <g
           transform="translate(294.126, 66.884)"
           id="g1628">
          <path
             d="m 4.125,-9.1875 c 0,-0.34375 0,-0.34375 -0.28125,-0.34375 C 3.5,-9.15625 2.78125,-8.625 1.3125,-8.625 v 0.421875 c 0.328125,0 1.046875,0 1.828125,-0.375 v 7.46875 c 0,0.515625 -0.046875,0.6875 -1.296875,0.6875 H 1.390625 V 0 c 0.390625,-0.03125 1.78125,-0.03125 2.25,-0.03125 0.46875,0 1.859375,0 2.234375,0.03125 V -0.421875 H 5.4375 c -1.265625,0 -1.3125,-0.171875 -1.3125,-0.6875 z m 0,0"
             id="id-ed730142-6e47-44e8-860d-d2f9457a52e8" />
        </g>
      </g>
    </g>
    <path
       style="fill:#000000;fill-opacity:1;fill-rule:evenodd;stroke:#000000;stroke-width:0.828;stroke-dasharray:none;paint-order:markers stroke fill"
       d="m 16.862776,224.64971 v 7.30613"
       id="path2012" />
    <path
       style="fill:#000000;fill-opacity:1;fill-rule:evenodd;stroke:#000000;stroke-width:0.828;stroke-dasharray:none;paint-order:markers stroke fill"
       d="m 219.91864,224.64971 v 7.30613"
       id="path2014" />
    <g
       transform="matrix(0.458611 0 0 0.458611 124.313 236.681)"
       ns5:version="1.8.2"
       ns5:texconverter="pdflatex"
       ns5:pdfconverter="inkscape"
       ns5:text="$$\\dots$$"
       ns5:preamble="/home/buyolitsez/.config/inkscape/extensions/textext/default_packages.tex"
       ns5:scale="1.3"
       ns5:alignment="middle center"
       ns5:stroke-to-path="0"
       ns5:inkscapeversion="1.2.2"
       ns5:jacobian_sqrt="0.458611"
       id="g3163">
      <defs
         id="id-4f53ed9e-dd61-4f25-94f0-a174a126bf1e">
        <g
           id="id-90676c55-0f0a-44d6-88ac-762be72ceae6">
          <g
             id="id-22fb11e5-818d-474f-a339-3fb47cf74309" />
          <g
             id="id-8c222278-a2be-4a9f-ba61-741833d7e56b">
            <path
               d="m 2.640625,-0.6875 c 0,-0.421875 -0.34375,-0.703125 -0.6875,-0.703125 -0.421875,0 -0.703125,0.34375 -0.703125,0.6875 C 1.25,-0.28125 1.59375,0 1.9375,0 2.359375,0 2.640625,-0.34375 2.640625,-0.6875 Z m 0,0"
               id="id-87f35bb6-e7c2-42ef-90d5-4263ab32104b" />
          </g>
        </g>
      </defs>
      <g
         fill="#000000"
         fill-opacity="1"
         id="id-85b68e02-f007-481e-89e0-be348b5d85ef"
         transform="translate(-289.448, -65.4934)">
        <g
           transform="translate(288.198, 66.884)"
           id="g3495">
          <path
             d="m 2.640625,-0.6875 c 0,-0.421875 -0.34375,-0.703125 -0.6875,-0.703125 -0.421875,0 -0.703125,0.34375 -0.703125,0.6875 C 1.25,-0.28125 1.59375,0 1.9375,0 2.359375,0 2.640625,-0.34375 2.640625,-0.6875 Z m 0,0"
             id="id-d552e322-f764-4d15-ba3c-11aa76df6fea" />
        </g>
      </g>
      <g
         fill="#000000"
         fill-opacity="1"
         id="id-ea48f3b9-0b62-48de-af81-2b9ad5be320f"
         transform="translate(-289.448, -65.4934)">
        <g
           transform="translate(294.496, 66.884)"
           id="g3499">
          <path
             d="m 2.640625,-0.6875 c 0,-0.421875 -0.34375,-0.703125 -0.6875,-0.703125 -0.421875,0 -0.703125,0.34375 -0.703125,0.6875 C 1.25,-0.28125 1.59375,0 1.9375,0 2.359375,0 2.640625,-0.34375 2.640625,-0.6875 Z m 0,0"
             id="id-ed7c279c-9b5f-4cd2-80b5-74b1d2f6469f" />
        </g>
      </g>
      <g
         fill="#000000"
         fill-opacity="1"
         id="id-83513ad6-6908-4761-a889-37236ee0f28c"
         transform="translate(-289.448, -65.4934)">
        <g
           transform="translate(300.78, 66.884)"
           id="g3503">
          <path
             d="m 2.640625,-0.6875 c 0,-0.421875 -0.34375,-0.703125 -0.6875,-0.703125 -0.421875,0 -0.703125,0.34375 -0.703125,0.6875 C 1.25,-0.28125 1.59375,0 1.9375,0 2.359375,0 2.640625,-0.34375 2.640625,-0.6875 Z m 0,0"
             id="id-2da0f818-ae3b-4ce3-840a-255f80a3fcba" />
        </g>
      </g>
    </g>
    <g
       transform="matrix(0.458611,0,0,0.458611,53.289331,230.3)"
       ns5:version="1.8.2"
       ns5:texconverter="pdflatex"
       ns5:pdfconverter="inkscape"
       ns5:text="$$\\frac{1}{m}$$"
       ns5:preamble="/home/buyolitsez/.config/inkscape/extensions/textext/default_packages.tex"
       ns5:scale="1.3"
       ns5:alignment="middle center"
       ns5:stroke-to-path="0"
       ns5:inkscapeversion="1.2.2"
       ns5:jacobian_sqrt="0.458611"
       id="g3646">
      <defs
         id="id-76aea1b5-ddf5-42dc-b9e4-82247832871b">
        <g
           id="id-ae24e7c4-e752-4447-afc3-278db4e041b9">
          <g
             id="id-02b40f02-1c6c-4146-899b-d8f76f20f9bb" />
          <g
             id="id-e96afdaa-4b0e-4022-9f7f-d2175de47e25">
            <path
               d="m 4.125,-9.1875 c 0,-0.34375 0,-0.34375 -0.28125,-0.34375 C 3.5,-9.15625 2.78125,-8.625 1.3125,-8.625 v 0.421875 c 0.328125,0 1.046875,0 1.828125,-0.375 v 7.46875 c 0,0.515625 -0.046875,0.6875 -1.296875,0.6875 H 1.390625 V 0 c 0.390625,-0.03125 1.78125,-0.03125 2.25,-0.03125 0.46875,0 1.859375,0 2.234375,0.03125 V -0.421875 H 5.4375 c -1.265625,0 -1.3125,-0.171875 -1.3125,-0.6875 z m 0,0"
               id="id-7655e872-3ac5-484d-a1bf-bf713896a917" />
          </g>
          <g
             id="id-299aaca7-17d4-49cb-a051-0c1a5e1808d4" />
          <g
             id="id-a87afc37-e2e6-43bf-aaf4-7f752f114410">
            <path
               d="M 2.953125,-4.203125 C 2.984375,-4.28125 3.34375,-5 3.875,-5.46875 c 0.375,-0.34375 0.859375,-0.5625 1.421875,-0.5625 0.5625,0 0.765625,0.421875 0.765625,1 0,0.078125 0,0.375 -0.171875,1.046875 l -0.359375,1.46875 c -0.109375,0.4375 -0.375,1.5 -0.40625,1.65625 -0.0625,0.21875 -0.140625,0.59375 -0.140625,0.640625 0,0.203125 0.15625,0.359375 0.359375,0.359375 0.4375,0 0.515625,-0.328125 0.640625,-0.84375 L 6.84375,-4.125 C 6.875,-4.25 7.609375,-6.03125 9.1875,-6.03125 c 0.578125,0 0.78125,0.421875 0.78125,1 0,0.796875 -0.5625,2.359375 -0.875,3.21875 -0.125,0.34375 -0.203125,0.53125 -0.203125,0.796875 0,0.640625 0.453125,1.15625 1.140625,1.15625 1.328125,0 1.828125,-2.109375 1.828125,-2.1875 0,-0.078125 -0.04687,-0.140625 -0.140625,-0.140625 -0.125,0 -0.140625,0.046875 -0.21875,0.296875 -0.328125,1.140625 -0.859375,1.75 -1.4375,1.75 -0.140625,0 -0.359375,-0.015625 -0.359375,-0.46875 0,-0.375 0.171875,-0.84375 0.21875,-1 0.265625,-0.6875 0.90625,-2.375 0.90625,-3.203125 0,-0.875 -0.5,-1.515625 -1.59375,-1.515625 -0.953125,0 -1.734375,0.546875 -2.3125,1.390625 -0.03125,-0.765625 -0.515625,-1.390625 -1.59375,-1.390625 -1.265625,0 -1.9375,0.90625 -2.203125,1.265625 C 3.078125,-5.875 2.5,-6.328125 1.859375,-6.328125 c -0.40625,0 -0.734375,0.203125 -1.015625,0.75 -0.25,0.515625 -0.453125,1.390625 -0.453125,1.453125 0,0.046875 0.046875,0.125 0.15625,0.125 0.109375,0 0.125,-0.015625 0.21875,-0.34375 0.203125,-0.84375 0.484375,-1.6875 1.0625,-1.6875 0.328125,0 0.4375,0.21875 0.4375,0.65625 0,0.3125 -0.140625,0.875 -0.25,1.3125 L 1.625,-2.515625 c -0.0625,0.28125 -0.21875,0.921875 -0.296875,1.1875 -0.09375,0.359375 -0.25,1.046875 -0.25,1.109375 0,0.203125 0.15625,0.359375 0.375,0.359375 0.171875,0 0.375,-0.078125 0.484375,-0.296875 0.03125,-0.078125 0.15625,-0.578125 0.234375,-0.859375 l 0.3125,-1.296875 z m 0,0"
               id="id-75f36399-9b88-4654-b917-7f0d0aa3da02" />
          </g>
        </g>
      </defs>
      <g
         fill="#000000"
         fill-opacity="1"
         id="id-a8ad9f5e-cfce-4aac-8c12-655e614c7761"
         transform="translate(-291.492,-50.6587)">
        <g
           transform="translate(294.126,60.19)"
           id="g744">
          <path
             d="m 4.125,-9.1875 c 0,-0.34375 0,-0.34375 -0.28125,-0.34375 C 3.5,-9.15625 2.78125,-8.625 1.3125,-8.625 v 0.421875 c 0.328125,0 1.046875,0 1.828125,-0.375 v 7.46875 c 0,0.515625 -0.046875,0.6875 -1.296875,0.6875 H 1.390625 V 0 c 0.390625,-0.03125 1.78125,-0.03125 2.25,-0.03125 0.46875,0 1.859375,0 2.234375,0.03125 V -0.421875 H 5.4375 c -1.265625,0 -1.3125,-0.171875 -1.3125,-0.6875 z m 0,0"
             id="id-2ff1e753-4aed-4e1b-aaf4-7c45a2d0400e" />
        </g>
      </g>
      <path
         fill="none"
         stroke-width="0.574"
         stroke-linecap="butt"
         stroke-linejoin="miter"
         stroke="#000000"
         stroke-opacity="1"
         stroke-miterlimit="10"
         d="M 0,15.649845 H 12.289062"
         id="id-95a2ad88-404f-4a49-bd8e-bb8b9a82c5b1" />
      <g
         fill="#000000"
         fill-opacity="1"
         id="id-8e41955b-3697-4dee-a068-4aa538cd5a8c"
         transform="translate(-291.492,-50.6587)">
        <g
           transform="translate(291.494,79.736)"
           id="g749">
          <path
             d="M 2.953125,-4.203125 C 2.984375,-4.28125 3.34375,-5 3.875,-5.46875 c 0.375,-0.34375 0.859375,-0.5625 1.421875,-0.5625 0.5625,0 0.765625,0.421875 0.765625,1 0,0.078125 0,0.375 -0.171875,1.046875 l -0.359375,1.46875 c -0.109375,0.4375 -0.375,1.5 -0.40625,1.65625 -0.0625,0.21875 -0.140625,0.59375 -0.140625,0.640625 0,0.203125 0.15625,0.359375 0.359375,0.359375 0.4375,0 0.515625,-0.328125 0.640625,-0.84375 L 6.84375,-4.125 C 6.875,-4.25 7.609375,-6.03125 9.1875,-6.03125 c 0.578125,0 0.78125,0.421875 0.78125,1 0,0.796875 -0.5625,2.359375 -0.875,3.21875 -0.125,0.34375 -0.203125,0.53125 -0.203125,0.796875 0,0.640625 0.453125,1.15625 1.140625,1.15625 1.328125,0 1.828125,-2.109375 1.828125,-2.1875 0,-0.078125 -0.04687,-0.140625 -0.140625,-0.140625 -0.125,0 -0.140625,0.046875 -0.21875,0.296875 -0.328125,1.140625 -0.859375,1.75 -1.4375,1.75 -0.140625,0 -0.359375,-0.015625 -0.359375,-0.46875 0,-0.375 0.171875,-0.84375 0.21875,-1 0.265625,-0.6875 0.90625,-2.375 0.90625,-3.203125 0,-0.875 -0.5,-1.515625 -1.59375,-1.515625 -0.953125,0 -1.734375,0.546875 -2.3125,1.390625 -0.03125,-0.765625 -0.515625,-1.390625 -1.59375,-1.390625 -1.265625,0 -1.9375,0.90625 -2.203125,1.265625 C 3.078125,-5.875 2.5,-6.328125 1.859375,-6.328125 c -0.40625,0 -0.734375,0.203125 -1.015625,0.75 -0.25,0.515625 -0.453125,1.390625 -0.453125,1.453125 0,0.046875 0.046875,0.125 0.15625,0.125 0.109375,0 0.125,-0.015625 0.21875,-0.34375 0.203125,-0.84375 0.484375,-1.6875 1.0625,-1.6875 0.328125,0 0.4375,0.21875 0.4375,0.65625 0,0.3125 -0.140625,0.875 -0.25,1.3125 L 1.625,-2.515625 c -0.0625,0.28125 -0.21875,0.921875 -0.296875,1.1875 -0.09375,0.359375 -0.25,1.046875 -0.25,1.109375 0,0.203125 0.15625,0.359375 0.375,0.359375 0.171875,0 0.375,-0.078125 0.484375,-0.296875 0.03125,-0.078125 0.15625,-0.578125 0.234375,-0.859375 l 0.3125,-1.296875 z m 0,0"
             id="id-ad24505a-21b4-49f6-9257-338d57eb80ed" />
        </g>
      </g>
    </g>
    <g
       transform="matrix(0.458611,0,0,0.458611,92.922563,230.3)"
       ns5:version="1.8.2"
       ns5:texconverter="pdflatex"
       ns5:pdfconverter="inkscape"
       ns5:text="$$\\frac{2}{m}$$"
       ns5:preamble="/home/buyolitsez/.config/inkscape/extensions/textext/default_packages.tex"
       ns5:scale="1.3"
       ns5:alignment="middle center"
       ns5:stroke-to-path="0"
       ns5:inkscapeversion="1.2.2"
       ns5:jacobian_sqrt="0.458611"
       id="g2746">
      <defs
         id="id-b23e03a6-5e6f-493e-a55c-aee6f1eca83c">
        <g
           id="id-0a2c3b5e-16d4-40ce-8bc9-b160ca68ff26">
          <g
             id="id-4ba5027e-0519-483a-b8e6-0e60971f2b0a" />
          <g
             id="id-9bdef08d-3fb5-47c4-bf5a-4c1e159bf447">
            <path
               d="M 6.3125,-2.40625 H 6 c -0.046875,0.234375 -0.15625,1.03125 -0.3125,1.265625 -0.09375,0.125 -0.90625,0.125 -1.34375,0.125 H 1.6875 c 0.390625,-0.328125 1.265625,-1.25 1.640625,-1.59375 2.1875,-2.015625 2.984375,-2.75 2.984375,-4.171875 0,-1.65625 -1.3125,-2.75 -2.96875,-2.75 -1.671875,0 -2.640625,1.40625 -2.640625,2.640625 0,0.734375 0.625,0.734375 0.671875,0.734375 0.296875,0 0.671875,-0.21875 0.671875,-0.671875 C 2.046875,-7.234375 1.78125,-7.5 1.375,-7.5 1.25,-7.5 1.21875,-7.5 1.171875,-7.484375 1.453125,-8.46875 2.21875,-9.125 3.15625,-9.125 4.375,-9.125 5.125,-8.109375 5.125,-6.78125 5.125,-5.5625 4.421875,-4.5 3.59375,-3.578125 L 0.703125,-0.34375 V 0 H 5.9375 Z m 0,0"
               id="id-ceba9b18-b19e-4d0a-89e3-1761735c6d53" />
          </g>
          <g
             id="id-e12ab292-7401-48d9-a44f-c2ea37565123" />
          <g
             id="id-8f8ba653-52c7-41f6-9097-6b1300954f80">
            <path
               d="M 2.953125,-4.203125 C 2.984375,-4.28125 3.34375,-5 3.875,-5.46875 c 0.375,-0.34375 0.859375,-0.5625 1.421875,-0.5625 0.5625,0 0.765625,0.421875 0.765625,1 0,0.078125 0,0.375 -0.171875,1.046875 l -0.359375,1.46875 c -0.109375,0.4375 -0.375,1.5 -0.40625,1.65625 -0.0625,0.21875 -0.140625,0.59375 -0.140625,0.640625 0,0.203125 0.15625,0.359375 0.359375,0.359375 0.4375,0 0.515625,-0.328125 0.640625,-0.84375 L 6.84375,-4.125 C 6.875,-4.25 7.609375,-6.03125 9.1875,-6.03125 c 0.578125,0 0.78125,0.421875 0.78125,1 0,0.796875 -0.5625,2.359375 -0.875,3.21875 -0.125,0.34375 -0.203125,0.53125 -0.203125,0.796875 0,0.640625 0.453125,1.15625 1.140625,1.15625 1.328125,0 1.828125,-2.109375 1.828125,-2.1875 0,-0.078125 -0.04687,-0.140625 -0.140625,-0.140625 -0.125,0 -0.140625,0.046875 -0.21875,0.296875 -0.328125,1.140625 -0.859375,1.75 -1.4375,1.75 -0.140625,0 -0.359375,-0.015625 -0.359375,-0.46875 0,-0.375 0.171875,-0.84375 0.21875,-1 0.265625,-0.6875 0.90625,-2.375 0.90625,-3.203125 0,-0.875 -0.5,-1.515625 -1.59375,-1.515625 -0.953125,0 -1.734375,0.546875 -2.3125,1.390625 -0.03125,-0.765625 -0.515625,-1.390625 -1.59375,-1.390625 -1.265625,0 -1.9375,0.90625 -2.203125,1.265625 C 3.078125,-5.875 2.5,-6.328125 1.859375,-6.328125 c -0.40625,0 -0.734375,0.203125 -1.015625,0.75 -0.25,0.515625 -0.453125,1.390625 -0.453125,1.453125 0,0.046875 0.046875,0.125 0.15625,0.125 0.109375,0 0.125,-0.015625 0.21875,-0.34375 0.203125,-0.84375 0.484375,-1.6875 1.0625,-1.6875 0.328125,0 0.4375,0.21875 0.4375,0.65625 0,0.3125 -0.140625,0.875 -0.25,1.3125 L 1.625,-2.515625 c -0.0625,0.28125 -0.21875,0.921875 -0.296875,1.1875 -0.09375,0.359375 -0.25,1.046875 -0.25,1.109375 0,0.203125 0.15625,0.359375 0.375,0.359375 0.171875,0 0.375,-0.078125 0.484375,-0.296875 0.03125,-0.078125 0.15625,-0.578125 0.234375,-0.859375 l 0.3125,-1.296875 z m 0,0"
               id="id-b1e608d8-7912-4b63-be30-13a44857505d" />
          </g>
        </g>
      </defs>
      <g
         fill="#000000"
         fill-opacity="1"
         id="id-64f62a2d-ef89-45d9-8aa6-226f1d632902"
         transform="translate(-291.492,-50.6587)">
        <g
           transform="translate(294.126,60.19)"
           id="g1039">
          <path
             d="M 6.3125,-2.40625 H 6 c -0.046875,0.234375 -0.15625,1.03125 -0.3125,1.265625 -0.09375,0.125 -0.90625,0.125 -1.34375,0.125 H 1.6875 c 0.390625,-0.328125 1.265625,-1.25 1.640625,-1.59375 2.1875,-2.015625 2.984375,-2.75 2.984375,-4.171875 0,-1.65625 -1.3125,-2.75 -2.96875,-2.75 -1.671875,0 -2.640625,1.40625 -2.640625,2.640625 0,0.734375 0.625,0.734375 0.671875,0.734375 0.296875,0 0.671875,-0.21875 0.671875,-0.671875 C 2.046875,-7.234375 1.78125,-7.5 1.375,-7.5 1.25,-7.5 1.21875,-7.5 1.171875,-7.484375 1.453125,-8.46875 2.21875,-9.125 3.15625,-9.125 4.375,-9.125 5.125,-8.109375 5.125,-6.78125 5.125,-5.5625 4.421875,-4.5 3.59375,-3.578125 L 0.703125,-0.34375 V 0 H 5.9375 Z m 0,0"
             id="id-694161a6-bd71-4818-80ef-b99f2d6ea4b1" />
        </g>
      </g>
      <path
         fill="none"
         stroke-width="0.574"
         stroke-linecap="butt"
         stroke-linejoin="miter"
         stroke="#000000"
         stroke-opacity="1"
         stroke-miterlimit="10"
         d="M 0,15.649845 H 12.289062"
         id="id-f7f7b66b-ab48-4590-a903-0748124c25ea" />
      <g
         fill="#000000"
         fill-opacity="1"
         id="id-db25c242-41c5-4656-9157-92799e36ca5b"
         transform="translate(-291.492,-50.6587)">
        <g
           transform="translate(291.494,79.736)"
           id="g1044">
          <path
             d="M 2.953125,-4.203125 C 2.984375,-4.28125 3.34375,-5 3.875,-5.46875 c 0.375,-0.34375 0.859375,-0.5625 1.421875,-0.5625 0.5625,0 0.765625,0.421875 0.765625,1 0,0.078125 0,0.375 -0.171875,1.046875 l -0.359375,1.46875 c -0.109375,0.4375 -0.375,1.5 -0.40625,1.65625 -0.0625,0.21875 -0.140625,0.59375 -0.140625,0.640625 0,0.203125 0.15625,0.359375 0.359375,0.359375 0.4375,0 0.515625,-0.328125 0.640625,-0.84375 L 6.84375,-4.125 C 6.875,-4.25 7.609375,-6.03125 9.1875,-6.03125 c 0.578125,0 0.78125,0.421875 0.78125,1 0,0.796875 -0.5625,2.359375 -0.875,3.21875 -0.125,0.34375 -0.203125,0.53125 -0.203125,0.796875 0,0.640625 0.453125,1.15625 1.140625,1.15625 1.328125,0 1.828125,-2.109375 1.828125,-2.1875 0,-0.078125 -0.04687,-0.140625 -0.140625,-0.140625 -0.125,0 -0.140625,0.046875 -0.21875,0.296875 -0.328125,1.140625 -0.859375,1.75 -1.4375,1.75 -0.140625,0 -0.359375,-0.015625 -0.359375,-0.46875 0,-0.375 0.171875,-0.84375 0.21875,-1 0.265625,-0.6875 0.90625,-2.375 0.90625,-3.203125 0,-0.875 -0.5,-1.515625 -1.59375,-1.515625 -0.953125,0 -1.734375,0.546875 -2.3125,1.390625 -0.03125,-0.765625 -0.515625,-1.390625 -1.59375,-1.390625 -1.265625,0 -1.9375,0.90625 -2.203125,1.265625 C 3.078125,-5.875 2.5,-6.328125 1.859375,-6.328125 c -0.40625,0 -0.734375,0.203125 -1.015625,0.75 -0.25,0.515625 -0.453125,1.390625 -0.453125,1.453125 0,0.046875 0.046875,0.125 0.15625,0.125 0.109375,0 0.125,-0.015625 0.21875,-0.34375 0.203125,-0.84375 0.484375,-1.6875 1.0625,-1.6875 0.328125,0 0.4375,0.21875 0.4375,0.65625 0,0.3125 -0.140625,0.875 -0.25,1.3125 L 1.625,-2.515625 c -0.0625,0.28125 -0.21875,0.921875 -0.296875,1.1875 -0.09375,0.359375 -0.25,1.046875 -0.25,1.109375 0,0.203125 0.15625,0.359375 0.375,0.359375 0.171875,0 0.375,-0.078125 0.484375,-0.296875 0.03125,-0.078125 0.15625,-0.578125 0.234375,-0.859375 l 0.3125,-1.296875 z m 0,0"
             id="id-56893623-6002-45db-b32e-322313457abe" />
        </g>
      </g>
    </g>
    <g
       transform="matrix(0.458611,0,0,0.458611,180.1082,230.3)"
       ns5:version="1.8.2"
       ns5:texconverter="pdflatex"
       ns5:pdfconverter="inkscape"
       ns5:text="$$\\frac{m-1}{m}$$"
       ns5:preamble="/home/buyolitsez/.config/inkscape/extensions/textext/default_packages.tex"
       ns5:scale="1.3"
       ns5:alignment="middle center"
       ns5:stroke-to-path="0"
       ns5:inkscapeversion="1.2.2"
       ns5:jacobian_sqrt="0.458611"
       id="g2078">
      <defs
         id="id-479ffba2-94cd-4b59-87fb-a6559bdebf12">
        <g
           id="id-9787ea2b-ee4c-4585-b255-6a901efad864">
          <g
             id="id-862106a9-f045-4c7f-b0cf-3284492976c4" />
          <g
             id="id-90752b7c-f4c2-4215-923c-045e788238cf">
            <path
               d="M 2.953125,-4.203125 C 2.984375,-4.28125 3.34375,-5 3.875,-5.46875 c 0.375,-0.34375 0.859375,-0.5625 1.421875,-0.5625 0.5625,0 0.765625,0.421875 0.765625,1 0,0.078125 0,0.375 -0.171875,1.046875 l -0.359375,1.46875 c -0.109375,0.4375 -0.375,1.5 -0.40625,1.65625 -0.0625,0.21875 -0.140625,0.59375 -0.140625,0.640625 0,0.203125 0.15625,0.359375 0.359375,0.359375 0.4375,0 0.515625,-0.328125 0.640625,-0.84375 L 6.84375,-4.125 C 6.875,-4.25 7.609375,-6.03125 9.1875,-6.03125 c 0.578125,0 0.78125,0.421875 0.78125,1 0,0.796875 -0.5625,2.359375 -0.875,3.21875 -0.125,0.34375 -0.203125,0.53125 -0.203125,0.796875 0,0.640625 0.453125,1.15625 1.140625,1.15625 1.328125,0 1.828125,-2.109375 1.828125,-2.1875 0,-0.078125 -0.04687,-0.140625 -0.140625,-0.140625 -0.125,0 -0.140625,0.046875 -0.21875,0.296875 -0.328125,1.140625 -0.859375,1.75 -1.4375,1.75 -0.140625,0 -0.359375,-0.015625 -0.359375,-0.46875 0,-0.375 0.171875,-0.84375 0.21875,-1 0.265625,-0.6875 0.90625,-2.375 0.90625,-3.203125 0,-0.875 -0.5,-1.515625 -1.59375,-1.515625 -0.953125,0 -1.734375,0.546875 -2.3125,1.390625 -0.03125,-0.765625 -0.515625,-1.390625 -1.59375,-1.390625 -1.265625,0 -1.9375,0.90625 -2.203125,1.265625 C 3.078125,-5.875 2.5,-6.328125 1.859375,-6.328125 c -0.40625,0 -0.734375,0.203125 -1.015625,0.75 -0.25,0.515625 -0.453125,1.390625 -0.453125,1.453125 0,0.046875 0.046875,0.125 0.15625,0.125 0.109375,0 0.125,-0.015625 0.21875,-0.34375 0.203125,-0.84375 0.484375,-1.6875 1.0625,-1.6875 0.328125,0 0.4375,0.21875 0.4375,0.65625 0,0.3125 -0.140625,0.875 -0.25,1.3125 L 1.625,-2.515625 c -0.0625,0.28125 -0.21875,0.921875 -0.296875,1.1875 -0.09375,0.359375 -0.25,1.046875 -0.25,1.109375 0,0.203125 0.15625,0.359375 0.375,0.359375 0.171875,0 0.375,-0.078125 0.484375,-0.296875 0.03125,-0.078125 0.15625,-0.578125 0.234375,-0.859375 l 0.3125,-1.296875 z m 0,0"
               id="id-f20ca82c-cc78-4485-bde9-6477b443a35b" />
          </g>
          <g
             id="id-54ff5470-a8d4-4b74-973c-a1e32748e955" />
          <g
             id="id-7797d217-fbd7-47c7-9663-394cefe5e450">
            <path
               d="m 9.453125,-3.296875 c 0.25,0 0.5,0 0.5,-0.28125 0,-0.296875 -0.25,-0.296875 -0.5,-0.296875 H 1.6875 c -0.234375,0 -0.5,0 -0.5,0.296875 0,0.28125 0.265625,0.28125 0.5,0.28125 z m 0,0"
               id="id-3bdaa034-ab3f-4ec1-8c03-3ce78b5b5f6b" />
          </g>
          <g
             id="id-bdcedbd1-01b8-4a1f-ae1f-05270d502c64" />
          <g
             id="id-f238ac8a-049a-46b0-b593-ac35b1a1dec4">
            <path
               d="m 4.125,-9.1875 c 0,-0.34375 0,-0.34375 -0.28125,-0.34375 C 3.5,-9.15625 2.78125,-8.625 1.3125,-8.625 v 0.421875 c 0.328125,0 1.046875,0 1.828125,-0.375 v 7.46875 c 0,0.515625 -0.046875,0.6875 -1.296875,0.6875 H 1.390625 V 0 c 0.390625,-0.03125 1.78125,-0.03125 2.25,-0.03125 0.46875,0 1.859375,0 2.234375,0.03125 V -0.421875 H 5.4375 c -1.265625,0 -1.3125,-0.171875 -1.3125,-0.6875 z m 0,0"
               id="id-6672bdff-6796-4379-a71f-076cf5e3cc6b" />
          </g>
        </g>
      </defs>
      <g
         fill="#000000"
         fill-opacity="1"
         id="id-08cef3f9-cbae-4e16-8c27-a218e761d444"
         transform="translate(-279.215,-50.6587)">
        <g
           transform="translate(279.215,60.19)"
           id="g1284">
          <path
             d="M 2.953125,-4.203125 C 2.984375,-4.28125 3.34375,-5 3.875,-5.46875 c 0.375,-0.34375 0.859375,-0.5625 1.421875,-0.5625 0.5625,0 0.765625,0.421875 0.765625,1 0,0.078125 0,0.375 -0.171875,1.046875 l -0.359375,1.46875 c -0.109375,0.4375 -0.375,1.5 -0.40625,1.65625 -0.0625,0.21875 -0.140625,0.59375 -0.140625,0.640625 0,0.203125 0.15625,0.359375 0.359375,0.359375 0.4375,0 0.515625,-0.328125 0.640625,-0.84375 L 6.84375,-4.125 C 6.875,-4.25 7.609375,-6.03125 9.1875,-6.03125 c 0.578125,0 0.78125,0.421875 0.78125,1 0,0.796875 -0.5625,2.359375 -0.875,3.21875 -0.125,0.34375 -0.203125,0.53125 -0.203125,0.796875 0,0.640625 0.453125,1.15625 1.140625,1.15625 1.328125,0 1.828125,-2.109375 1.828125,-2.1875 0,-0.078125 -0.04687,-0.140625 -0.140625,-0.140625 -0.125,0 -0.140625,0.046875 -0.21875,0.296875 -0.328125,1.140625 -0.859375,1.75 -1.4375,1.75 -0.140625,0 -0.359375,-0.015625 -0.359375,-0.46875 0,-0.375 0.171875,-0.84375 0.21875,-1 0.265625,-0.6875 0.90625,-2.375 0.90625,-3.203125 0,-0.875 -0.5,-1.515625 -1.59375,-1.515625 -0.953125,0 -1.734375,0.546875 -2.3125,1.390625 -0.03125,-0.765625 -0.515625,-1.390625 -1.59375,-1.390625 -1.265625,0 -1.9375,0.90625 -2.203125,1.265625 C 3.078125,-5.875 2.5,-6.328125 1.859375,-6.328125 c -0.40625,0 -0.734375,0.203125 -1.015625,0.75 -0.25,0.515625 -0.453125,1.390625 -0.453125,1.453125 0,0.046875 0.046875,0.125 0.15625,0.125 0.109375,0 0.125,-0.015625 0.21875,-0.34375 0.203125,-0.84375 0.484375,-1.6875 1.0625,-1.6875 0.328125,0 0.4375,0.21875 0.4375,0.65625 0,0.3125 -0.140625,0.875 -0.25,1.3125 L 1.625,-2.515625 c -0.0625,0.28125 -0.21875,0.921875 -0.296875,1.1875 -0.09375,0.359375 -0.25,1.046875 -0.25,1.109375 0,0.203125 0.15625,0.359375 0.375,0.359375 0.171875,0 0.375,-0.078125 0.484375,-0.296875 0.03125,-0.078125 0.15625,-0.578125 0.234375,-0.859375 l 0.3125,-1.296875 z m 0,0"
             id="id-1a02c02f-a7b4-49ea-b16d-a40d5357da40" />
        </g>
      </g>
      <g
         fill="#000000"
         fill-opacity="1"
         id="id-eaf95471-c138-4cc1-b809-ead432e36d50"
         transform="translate(-279.215,-50.6587)">
        <g
           transform="translate(294.69,60.19)"
           id="g1288">
          <path
             d="m 9.453125,-3.296875 c 0.25,0 0.5,0 0.5,-0.28125 0,-0.296875 -0.25,-0.296875 -0.5,-0.296875 H 1.6875 c -0.234375,0 -0.5,0 -0.5,0.296875 0,0.28125 0.265625,0.28125 0.5,0.28125 z m 0,0"
             id="id-fe3d7eca-fd2d-423a-95ac-5e3f4c461520" />
        </g>
      </g>
      <g
         fill="#000000"
         fill-opacity="1"
         id="id-f47d44b5-e237-4674-be3c-851733a5e628"
         transform="translate(-279.215,-50.6587)">
        <g
           transform="translate(309.037,60.19)"
           id="g1292">
          <path
             d="m 4.125,-9.1875 c 0,-0.34375 0,-0.34375 -0.28125,-0.34375 C 3.5,-9.15625 2.78125,-8.625 1.3125,-8.625 v 0.421875 c 0.328125,0 1.046875,0 1.828125,-0.375 v 7.46875 c 0,0.515625 -0.046875,0.6875 -1.296875,0.6875 H 1.390625 V 0 c 0.390625,-0.03125 1.78125,-0.03125 2.25,-0.03125 0.46875,0 1.859375,0 2.234375,0.03125 V -0.421875 H 5.4375 c -1.265625,0 -1.3125,-0.171875 -1.3125,-0.6875 z m 0,0"
             id="id-62488f9f-c253-4130-b2fb-8d5aa6949283" />
        </g>
      </g>
      <path
         fill="none"
         stroke-width="0.574"
         stroke-linecap="butt"
         stroke-linejoin="miter"
         stroke="#000000"
         stroke-opacity="1"
         stroke-miterlimit="10"
         d="M 0,15.649845 H 36.84375"
         id="id-420873bb-8c01-4b75-b281-1bb7cc8d5308" />
      <g
         fill="#000000"
         fill-opacity="1"
         id="id-2e94a748-94c3-44c6-962a-372cbd672f51"
         transform="translate(-279.215,-50.6587)">
        <g
           transform="translate(291.494,79.736)"
           id="g1297">
          <path
             d="M 2.953125,-4.203125 C 2.984375,-4.28125 3.34375,-5 3.875,-5.46875 c 0.375,-0.34375 0.859375,-0.5625 1.421875,-0.5625 0.5625,0 0.765625,0.421875 0.765625,1 0,0.078125 0,0.375 -0.171875,1.046875 l -0.359375,1.46875 c -0.109375,0.4375 -0.375,1.5 -0.40625,1.65625 -0.0625,0.21875 -0.140625,0.59375 -0.140625,0.640625 0,0.203125 0.15625,0.359375 0.359375,0.359375 0.4375,0 0.515625,-0.328125 0.640625,-0.84375 L 6.84375,-4.125 C 6.875,-4.25 7.609375,-6.03125 9.1875,-6.03125 c 0.578125,0 0.78125,0.421875 0.78125,1 0,0.796875 -0.5625,2.359375 -0.875,3.21875 -0.125,0.34375 -0.203125,0.53125 -0.203125,0.796875 0,0.640625 0.453125,1.15625 1.140625,1.15625 1.328125,0 1.828125,-2.109375 1.828125,-2.1875 0,-0.078125 -0.04687,-0.140625 -0.140625,-0.140625 -0.125,0 -0.140625,0.046875 -0.21875,0.296875 -0.328125,1.140625 -0.859375,1.75 -1.4375,1.75 -0.140625,0 -0.359375,-0.015625 -0.359375,-0.46875 0,-0.375 0.171875,-0.84375 0.21875,-1 0.265625,-0.6875 0.90625,-2.375 0.90625,-3.203125 0,-0.875 -0.5,-1.515625 -1.59375,-1.515625 -0.953125,0 -1.734375,0.546875 -2.3125,1.390625 -0.03125,-0.765625 -0.515625,-1.390625 -1.59375,-1.390625 -1.265625,0 -1.9375,0.90625 -2.203125,1.265625 C 3.078125,-5.875 2.5,-6.328125 1.859375,-6.328125 c -0.40625,0 -0.734375,0.203125 -1.015625,0.75 -0.25,0.515625 -0.453125,1.390625 -0.453125,1.453125 0,0.046875 0.046875,0.125 0.15625,0.125 0.109375,0 0.125,-0.015625 0.21875,-0.34375 0.203125,-0.84375 0.484375,-1.6875 1.0625,-1.6875 0.328125,0 0.4375,0.21875 0.4375,0.65625 0,0.3125 -0.140625,0.875 -0.25,1.3125 L 1.625,-2.515625 c -0.0625,0.28125 -0.21875,0.921875 -0.296875,1.1875 -0.09375,0.359375 -0.25,1.046875 -0.25,1.109375 0,0.203125 0.15625,0.359375 0.375,0.359375 0.171875,0 0.375,-0.078125 0.484375,-0.296875 0.03125,-0.078125 0.15625,-0.578125 0.234375,-0.859375 l 0.3125,-1.296875 z m 0,0"
             id="id-398c2cca-2206-4aad-9ed7-fc789df65180" />
        </g>
      </g>
    </g>
  </g>
</svg>
