<?xml version="1.0" encoding="UTF-8" standalone="no"?>
<!-- Created with Inkscape (http://www.inkscape.org/) -->

<svg
   width="240mm"
   height="120mm"
   viewBox="0 0 240 120"
   version="1.1"
   id="svg8"
   inkscape:version="1.2.2 (b0a8486541, 2022-12-01)"
   sodipodi:docname="theorem_2d_case_poia_rotation.svg"
   xmlns:inkscape="http://www.inkscape.org/namespaces/inkscape"
   xmlns:sodipodi="http://sodipodi.sourceforge.net/DTD/sodipodi-0.dtd"
   xmlns="http://www.w3.org/2000/svg"
   xmlns:svg="http://www.w3.org/2000/svg"
   xmlns:rdf="http://www.w3.org/1999/02/22-rdf-syntax-ns#"
   xmlns:cc="http://creativecommons.org/ns#"
   xmlns:dc="http://purl.org/dc/elements/1.1/"
   xmlns:ns1="http://www.iki.fi/pav/software/textext/">
  <defs
     id="defs2">
    <marker
       style="overflow:visible"
       id="marker960"
       refX="0"
       refY="0"
       orient="auto-start-reverse"
       inkscape:stockid="Arrow1"
       markerWidth="4.0606604"
       markerHeight="6.7071066"
       viewBox="0 0 4.0606602 6.7071068"
       inkscape:isstock="true"
       inkscape:collect="always"
       preserveAspectRatio="xMidYMid">
      <path
         style="fill:none;stroke:context-stroke;stroke-width:1;stroke-linecap:butt"
         d="M 3,-3 0,0 3,3"
         id="path958"
         transform="rotate(180,0.125,0)"
         sodipodi:nodetypes="ccc" />
    </marker>
    <marker
       style="overflow:visible"
       id="Arrow1"
       refX="0"
       refY="0"
       orient="auto-start-reverse"
       inkscape:stockid="Arrow1"
       markerWidth="4.0606604"
       markerHeight="6.7071066"
       viewBox="0 0 4.0606602 6.7071068"
       inkscape:isstock="true"
       inkscape:collect="always"
       preserveAspectRatio="xMidYMid">
      <path
         style="fill:none;stroke:context-stroke;stroke-width:1;stroke-linecap:butt"
         d="M 3,-3 0,0 3,3"
         id="path5057"
         transform="rotate(180,0.125,0)"
         sodipodi:nodetypes="ccc" />
    </marker>
  </defs>
  <sodipodi:namedview
     id="base"
     pagecolor="#ffffff"
     bordercolor="#666666"
     borderopacity="1.0"
     inkscape:pageopacity="0.0"
     inkscape:pageshadow="2"
     inkscape:zoom="1.9887478"
     inkscape:cx="460.59134"
     inkscape:cy="271.02482"
     inkscape:document-units="mm"
     inkscape:current-layer="layer1"
     showgrid="false"
     showborder="true"
     width="200mm"
     showguides="true"
     inkscape:guide-bbox="true"
     inkscape:window-width="2560"
     inkscape:window-height="1417"
     inkscape:window-x="0"
     inkscape:window-y="0"
     inkscape:window-maximized="1"
     inkscape:showpageshadow="2"
     inkscape:pagecheckerboard="0"
     inkscape:deskcolor="#d1d1d1">
    <inkscape:grid
       type="xygrid"
       id="grid815"
       units="mm"
       spacingx="10"
       spacingy="10"
       empspacing="4"
       dotted="false" />
  </sodipodi:namedview>
  <metadata
     id="metadata5">
    <rdf:RDF>
      <cc:Work
         rdf:about="">
        <dc:format>image/svg+xml</dc:format>
        <dc:type
           rdf:resource="http://purl.org/dc/dcmitype/StillImage" />
        <dc:title />
      </cc:Work>
    </rdf:RDF>
  </metadata>
  <g
     inkscape:label="Layer 1"
     inkscape:groupmode="layer"
     id="layer1"
     transform="translate(0, -177)">
    <path
       style="fill:#ffffff;fill-opacity:0;fill-rule:evenodd;stroke:#000000;stroke-width:0.408;marker-start:url(#Arrow1);marker-end:url(#marker960);paint-order:markers stroke fill"
       d="M 120,294.7402 V 179.2598"
       id="path185" />
    <path
       style="fill:#ffffff;fill-opacity:0;fill-rule:evenodd;stroke:#000000;stroke-width:0.408;marker-start:url(#Arrow1);marker-end:url(#marker960);paint-order:markers stroke fill"
       d="M 63.724794,236.99999 H 176.27519"
       id="path1270" />
    <path
       style="fill:#ffffff;fill-opacity:0;fill-rule:evenodd;stroke:#000000;stroke-width:0.408;stroke-dasharray:0.408, 0.408;stroke-dashoffset:0;marker-start:url(#Arrow1);marker-end:url(#marker960);paint-order:markers stroke fill"
       d="M 80.207419,277.82849 159.79257,196.17151"
       id="path1272" />
    <path
       style="fill:#ffffff;fill-opacity:0;fill-rule:evenodd;stroke:#000000;stroke-width:0.408;stroke-dasharray:0.408, 0.408;stroke-dashoffset:0;marker-start:url(#Arrow1);marker-end:url(#marker960);paint-order:markers stroke fill"
       d="m 80.207423,196.17151 79.585147,81.65697"
       id="path1274" />
    <g
       transform="matrix(0.386514,0,0,0.386514,123.68269,182.05174)"
       ns1:version="1.8.2"
       ns1:texconverter="pdflatex"
       ns1:pdfconverter="inkscape"
       ns1:text="$$\\xi$$"
       ns1:preamble="/home/buyolitsez/.config/inkscape/extensions/textext/default_packages.tex"
       ns1:scale="1.09563089851748"
       ns1:alignment="middle center"
       ns1:stroke-to-path="0"
       ns1:inkscapeversion="1.2.2"
       ns1:jacobian_sqrt="0.386514"
       id="g3623">
      <defs
         id="id-4530a925-7631-459a-927e-34d89be99e0e">
        <g
           id="id-66bc62ec-4149-42ce-a83e-335dfd8b29d7">
          <g
             id="id-393e8faa-23bb-4c9f-9568-00861ac9c9b9" />
          <g
             id="id-87c6f2e7-62cd-43c5-8bda-413c902e0ef0">
            <path
               d="M 3.75,0.078125 2.234375,-0.53125 C 1.859375,-0.671875 1,-1.015625 1,-1.875 c 0,-1.234375 1.515625,-2.484375 1.8125,-2.484375 0.03125,0 0.15625,0.03125 0.203125,0.046875 0.390625,0.109375 0.75,0.109375 1.015625,0.109375 0.4375,0 1.296875,0 1.296875,-0.421875 0,-0.3125 -0.515625,-0.359375 -1.140625,-0.359375 -0.28125,0 -0.671875,0 -1.1875,0.171875 -0.34375,-0.28125 -0.484375,-0.734375 -0.484375,-1.171875 0,-0.78125 0.515625,-1.90625 1.640625,-2.4375 C 4.421875,-8.125 4.765625,-8.125 5.0625,-8.125 c 0.359375,0 1.234375,0 1.234375,-0.40625 0,-0.359375 -0.6875,-0.359375 -1.140625,-0.359375 -0.296875,0 -0.515625,0 -0.90625,0.0625 C 4.171875,-9 4.15625,-9.015625 4.15625,-9.34375 c 0,-0.25 0.0625,-0.453125 0.0625,-0.5 0,-0.078125 -0.078125,-0.140625 -0.140625,-0.140625 -0.234375,0 -0.234375,0.53125 -0.234375,0.640625 0,0.203125 0.015625,0.40625 0.09375,0.59375 -1.71875,0.5 -2.46875,1.71875 -2.46875,2.65625 0,0.859375 0.5625,1.328125 0.953125,1.546875 C 0.953125,-3.75 0.3125,-2.28125 0.3125,-1.5 c 0,1.234375 1.140625,1.6875 1.65625,1.90625 L 3.25,0.921875 c 0.359375,0.125 0.953125,0.375 1.046875,0.421875 0.15625,0.109375 0.265625,0.28125 0.265625,0.5 0,0.3125 -0.234375,0.796875 -0.734375,0.796875 -0.21875,0 -0.6875,-0.0625 -1.203125,-0.453125 C 2.53125,2.109375 2.515625,2.09375 2.453125,2.09375 2.375,2.09375 2.3125,2.15625 2.3125,2.234375 c 0,0.15625 0.75,0.6875 1.515625,0.6875 0.921875,0 1.484375,-0.890625 1.484375,-1.5 0,-0.453125 -0.25,-0.8125 -0.703125,-1 z M 4.46875,-8.53125 c 0.25,-0.078125 0.515625,-0.078125 0.6875,-0.078125 0.484375,0 0.53125,0.015625 0.8125,0.09375 -0.171875,0.0625 -0.28125,0.109375 -0.890625,0.109375 -0.265625,0 -0.4375,0 -0.609375,-0.125 z m -1.125,3.921875 C 3.6875,-4.6875 4,-4.6875 4.171875,-4.6875 c 0.46875,0 0.5,0.015625 0.8125,0.078125 -0.15625,0.078125 -0.28125,0.125 -0.890625,0.125 -0.34375,0 -0.5,0 -0.75,-0.125 z m 0,0"
               id="id-474d7786-3e73-47e2-a001-03d75e762702" />
          </g>
        </g>
      </defs>
      <g
         fill="#000000"
         fill-opacity="1"
         id="id-f519e8dd-f7f3-482a-b005-7b7b7df82d58"
         transform="translate(-294.536,-56.8996)">
        <g
           transform="translate(294.224,66.884)"
           id="g3620">
          <path
             d="M 3.75,0.078125 2.234375,-0.53125 C 1.859375,-0.671875 1,-1.015625 1,-1.875 c 0,-1.234375 1.515625,-2.484375 1.8125,-2.484375 0.03125,0 0.15625,0.03125 0.203125,0.046875 0.390625,0.109375 0.75,0.109375 1.015625,0.109375 0.4375,0 1.296875,0 1.296875,-0.421875 0,-0.3125 -0.515625,-0.359375 -1.140625,-0.359375 -0.28125,0 -0.671875,0 -1.1875,0.171875 -0.34375,-0.28125 -0.484375,-0.734375 -0.484375,-1.171875 0,-0.78125 0.515625,-1.90625 1.640625,-2.4375 C 4.421875,-8.125 4.765625,-8.125 5.0625,-8.125 c 0.359375,0 1.234375,0 1.234375,-0.40625 0,-0.359375 -0.6875,-0.359375 -1.140625,-0.359375 -0.296875,0 -0.515625,0 -0.90625,0.0625 C 4.171875,-9 4.15625,-9.015625 4.15625,-9.34375 c 0,-0.25 0.0625,-0.453125 0.0625,-0.5 0,-0.078125 -0.078125,-0.140625 -0.140625,-0.140625 -0.234375,0 -0.234375,0.53125 -0.234375,0.640625 0,0.203125 0.015625,0.40625 0.09375,0.59375 -1.71875,0.5 -2.46875,1.71875 -2.46875,2.65625 0,0.859375 0.5625,1.328125 0.953125,1.546875 C 0.953125,-3.75 0.3125,-2.28125 0.3125,-1.5 c 0,1.234375 1.140625,1.6875 1.65625,1.90625 L 3.25,0.921875 c 0.359375,0.125 0.953125,0.375 1.046875,0.421875 0.15625,0.109375 0.265625,0.28125 0.265625,0.5 0,0.3125 -0.234375,0.796875 -0.734375,0.796875 -0.21875,0 -0.6875,-0.0625 -1.203125,-0.453125 C 2.53125,2.109375 2.515625,2.09375 2.453125,2.09375 2.375,2.09375 2.3125,2.15625 2.3125,2.234375 c 0,0.15625 0.75,0.6875 1.515625,0.6875 0.921875,0 1.484375,-0.890625 1.484375,-1.5 0,-0.453125 -0.25,-0.8125 -0.703125,-1 z M 4.46875,-8.53125 c 0.25,-0.078125 0.515625,-0.078125 0.6875,-0.078125 0.484375,0 0.53125,0.015625 0.8125,0.09375 -0.171875,0.0625 -0.28125,0.109375 -0.890625,0.109375 -0.265625,0 -0.4375,0 -0.609375,-0.125 z m -1.125,3.921875 C 3.6875,-4.6875 4,-4.6875 4.171875,-4.6875 c 0.46875,0 0.5,0.015625 0.8125,0.078125 -0.15625,0.078125 -0.28125,0.125 -0.890625,0.125 -0.34375,0 -0.5,0 -0.75,-0.125 z m 0,0"
             id="id-b6da15ea-9692-446e-8020-370f006f825f" />
        </g>
      </g>
    </g>
    <g
       transform="matrix(0.386514 0 0 0.386514 172.004 227.71)"
       ns1:version="1.8.2"
       ns1:texconverter="pdflatex"
       ns1:pdfconverter="inkscape"
       ns1:text="$$\\tilde \\xi$$"
       ns1:preamble="/home/buyolitsez/.config/inkscape/extensions/textext/default_packages.tex"
       ns1:scale="1.09563089851748"
       ns1:alignment="middle center"
       ns1:stroke-to-path="0"
       ns1:inkscapeversion="1.2.2"
       ns1:jacobian_sqrt="0.386514"
       id="g3674">
      <defs
         id="id-dea54b3c-afa3-473b-a004-1d49f9192904">
        <g
           id="id-3a6c5c82-5669-4eab-8971-c7e5a7419a61">
          <g
             id="id-43781fca-2cac-4120-8d9f-dddedaeb4f7b" />
          <g
             id="id-83748036-e229-43a8-bd5e-889a5909fb8a">
            <path
               d="m 5.640625,-9.53125 c -0.421875,0.421875 -0.71875,0.703125 -1.1875,0.703125 -0.203125,0 -0.40625,-0.03125 -0.859375,-0.34375 C 3.3125,-9.34375 3.03125,-9.53125 2.703125,-9.53125 c -0.53125,0 -0.859375,0.359375 -1.53125,1.109375 L 1.375,-8.21875 c 0.421875,-0.421875 0.71875,-0.703125 1.171875,-0.703125 0.21875,0 0.421875,0.046875 0.859375,0.34375 0.296875,0.171875 0.578125,0.359375 0.90625,0.359375 0.53125,0 0.84375,-0.359375 1.53125,-1.109375 z m 0,0"
               id="id-15fc5d87-2c1e-4b91-9c21-4801ebcb168b" />
          </g>
          <g
             id="id-970cfbb1-3513-45ac-9e94-a4952a069a67" />
          <g
             id="id-c936d46e-f519-4698-b4d0-2cbd18d1061d">
            <path
               d="M 3.75,0.078125 2.234375,-0.53125 C 1.859375,-0.671875 1,-1.015625 1,-1.875 c 0,-1.234375 1.515625,-2.484375 1.8125,-2.484375 0.03125,0 0.15625,0.03125 0.203125,0.046875 0.390625,0.109375 0.75,0.109375 1.015625,0.109375 0.4375,0 1.296875,0 1.296875,-0.421875 0,-0.3125 -0.515625,-0.359375 -1.140625,-0.359375 -0.28125,0 -0.671875,0 -1.1875,0.171875 -0.34375,-0.28125 -0.484375,-0.734375 -0.484375,-1.171875 0,-0.78125 0.515625,-1.90625 1.640625,-2.4375 C 4.421875,-8.125 4.765625,-8.125 5.0625,-8.125 c 0.359375,0 1.234375,0 1.234375,-0.40625 0,-0.359375 -0.6875,-0.359375 -1.140625,-0.359375 -0.296875,0 -0.515625,0 -0.90625,0.0625 C 4.171875,-9 4.15625,-9.015625 4.15625,-9.34375 c 0,-0.25 0.0625,-0.453125 0.0625,-0.5 0,-0.078125 -0.078125,-0.140625 -0.140625,-0.140625 -0.234375,0 -0.234375,0.53125 -0.234375,0.640625 0,0.203125 0.015625,0.40625 0.09375,0.59375 -1.71875,0.5 -2.46875,1.71875 -2.46875,2.65625 0,0.859375 0.5625,1.328125 0.953125,1.546875 C 0.953125,-3.75 0.3125,-2.28125 0.3125,-1.5 c 0,1.234375 1.140625,1.6875 1.65625,1.90625 L 3.25,0.921875 c 0.359375,0.125 0.953125,0.375 1.046875,0.421875 0.15625,0.109375 0.265625,0.28125 0.265625,0.5 0,0.3125 -0.234375,0.796875 -0.734375,0.796875 -0.21875,0 -0.6875,-0.0625 -1.203125,-0.453125 C 2.53125,2.109375 2.515625,2.09375 2.453125,2.09375 2.375,2.09375 2.3125,2.15625 2.3125,2.234375 c 0,0.15625 0.75,0.6875 1.515625,0.6875 0.921875,0 1.484375,-0.890625 1.484375,-1.5 0,-0.453125 -0.25,-0.8125 -0.703125,-1 z M 4.46875,-8.53125 c 0.25,-0.078125 0.515625,-0.078125 0.6875,-0.078125 0.484375,0 0.53125,0.015625 0.8125,0.09375 -0.171875,0.0625 -0.28125,0.109375 -0.890625,0.109375 -0.265625,0 -0.4375,0 -0.609375,-0.125 z m -1.125,3.921875 C 3.6875,-4.6875 4,-4.6875 4.171875,-4.6875 c 0.46875,0 0.5,0.015625 0.8125,0.078125 -0.15625,0.078125 -0.28125,0.125 -0.890625,0.125 -0.34375,0 -0.5,0 -0.75,-0.125 z m 0,0"
               id="id-21634210-116f-4cd6-b4cc-9a613910dae2" />
          </g>
        </g>
      </defs>
      <g
         fill="#000000"
         fill-opacity="1"
         id="id-e36f932d-5244-4289-a379-c2ae178bca2c"
         transform="translate(-294.536, -53.5677)">
        <g
           transform="translate(295.687, 63.099)"
           id="g3738">
          <path
             d="m 5.640625,-9.53125 c -0.421875,0.421875 -0.71875,0.703125 -1.1875,0.703125 -0.203125,0 -0.40625,-0.03125 -0.859375,-0.34375 C 3.3125,-9.34375 3.03125,-9.53125 2.703125,-9.53125 c -0.53125,0 -0.859375,0.359375 -1.53125,1.109375 L 1.375,-8.21875 c 0.421875,-0.421875 0.71875,-0.703125 1.171875,-0.703125 0.21875,0 0.421875,0.046875 0.859375,0.34375 0.296875,0.171875 0.578125,0.359375 0.90625,0.359375 0.53125,0 0.84375,-0.359375 1.53125,-1.109375 z m 0,0"
             id="id-c6406bb0-1d4c-428b-9cbc-7944b66038c3" />
        </g>
      </g>
      <g
         fill="#000000"
         fill-opacity="1"
         id="id-51a60091-0957-41c2-933c-8f5f396779d6"
         transform="translate(-294.536, -53.5677)">
        <g
           transform="translate(294.224, 66.884)"
           id="g3742">
          <path
             d="M 3.75,0.078125 2.234375,-0.53125 C 1.859375,-0.671875 1,-1.015625 1,-1.875 c 0,-1.234375 1.515625,-2.484375 1.8125,-2.484375 0.03125,0 0.15625,0.03125 0.203125,0.046875 0.390625,0.109375 0.75,0.109375 1.015625,0.109375 0.4375,0 1.296875,0 1.296875,-0.421875 0,-0.3125 -0.515625,-0.359375 -1.140625,-0.359375 -0.28125,0 -0.671875,0 -1.1875,0.171875 -0.34375,-0.28125 -0.484375,-0.734375 -0.484375,-1.171875 0,-0.78125 0.515625,-1.90625 1.640625,-2.4375 C 4.421875,-8.125 4.765625,-8.125 5.0625,-8.125 c 0.359375,0 1.234375,0 1.234375,-0.40625 0,-0.359375 -0.6875,-0.359375 -1.140625,-0.359375 -0.296875,0 -0.515625,0 -0.90625,0.0625 C 4.171875,-9 4.15625,-9.015625 4.15625,-9.34375 c 0,-0.25 0.0625,-0.453125 0.0625,-0.5 0,-0.078125 -0.078125,-0.140625 -0.140625,-0.140625 -0.234375,0 -0.234375,0.53125 -0.234375,0.640625 0,0.203125 0.015625,0.40625 0.09375,0.59375 -1.71875,0.5 -2.46875,1.71875 -2.46875,2.65625 0,0.859375 0.5625,1.328125 0.953125,1.546875 C 0.953125,-3.75 0.3125,-2.28125 0.3125,-1.5 c 0,1.234375 1.140625,1.6875 1.65625,1.90625 L 3.25,0.921875 c 0.359375,0.125 0.953125,0.375 1.046875,0.421875 0.15625,0.109375 0.265625,0.28125 0.265625,0.5 0,0.3125 -0.234375,0.796875 -0.734375,0.796875 -0.21875,0 -0.6875,-0.0625 -1.203125,-0.453125 C 2.53125,2.109375 2.515625,2.09375 2.453125,2.09375 2.375,2.09375 2.3125,2.15625 2.3125,2.234375 c 0,0.15625 0.75,0.6875 1.515625,0.6875 0.921875,0 1.484375,-0.890625 1.484375,-1.5 0,-0.453125 -0.25,-0.8125 -0.703125,-1 z M 4.46875,-8.53125 c 0.25,-0.078125 0.515625,-0.078125 0.6875,-0.078125 0.484375,0 0.53125,0.015625 0.8125,0.09375 -0.171875,0.0625 -0.28125,0.109375 -0.890625,0.109375 -0.265625,0 -0.4375,0 -0.609375,-0.125 z m -1.125,3.921875 C 3.6875,-4.6875 4,-4.6875 4.171875,-4.6875 c 0.46875,0 0.5,0.015625 0.8125,0.078125 -0.15625,0.078125 -0.28125,0.125 -0.890625,0.125 -0.34375,0 -0.5,0 -0.75,-0.125 z m 0,0"
             id="id-9d1aeafd-4ad3-4f52-ae3a-7045c09ebdd4" />
        </g>
      </g>
    </g>
    <g
       transform="matrix(0.386514 0 0 0.386514 152.209 189.562)"
       ns1:version="1.8.2"
       ns1:texconverter="pdflatex"
       ns1:pdfconverter="inkscape"
       ns1:text="$$\\eta$$"
       ns1:preamble="/home/buyolitsez/.config/inkscape/extensions/textext/default_packages.tex"
       ns1:scale="1.09563089851748"
       ns1:alignment="middle center"
       ns1:stroke-to-path="0"
       ns1:inkscapeversion="1.2.2"
       ns1:jacobian_sqrt="0.386514"
       id="g4584">
      <defs
         id="id-f726f11c-cd62-4be7-86fc-9de32257af26">
        <g
           id="id-016404a1-d320-4cae-b9e5-9479e3495621">
          <g
             id="id-4a8681e9-936f-419f-9aeb-56e12e513e85" />
          <g
             id="id-e72b2a1b-7d48-41c9-ad8f-3803e45bcf23">
            <path
               d="m 6.8125,-3.96875 c 0.078125,-0.296875 0.109375,-0.46875 0.109375,-0.84375 0,-0.875 -0.5,-1.515625 -1.59375,-1.515625 -1.265625,0 -1.9375,0.90625 -2.203125,1.265625 C 3.078125,-5.875 2.5,-6.328125 1.859375,-6.328125 c -0.40625,0 -0.734375,0.203125 -1.015625,0.75 -0.25,0.515625 -0.453125,1.390625 -0.453125,1.453125 0,0.046875 0.046875,0.125 0.15625,0.125 0.109375,0 0.125,-0.015625 0.21875,-0.34375 0.203125,-0.84375 0.484375,-1.6875 1.0625,-1.6875 0.328125,0 0.4375,0.21875 0.4375,0.65625 0,0.3125 -0.140625,0.875 -0.25,1.3125 L 1.625,-2.515625 c -0.0625,0.28125 -0.21875,0.921875 -0.296875,1.1875 -0.09375,0.359375 -0.25,1.046875 -0.25,1.109375 0,0.203125 0.15625,0.359375 0.375,0.359375 0.171875,0 0.375,-0.078125 0.484375,-0.296875 0.03125,-0.078125 0.15625,-0.578125 0.234375,-0.859375 l 0.3125,-1.296875 0.46875,-1.890625 C 2.984375,-4.28125 3.34375,-5 3.875,-5.46875 c 0.375,-0.34375 0.859375,-0.5625 1.421875,-0.5625 0.5625,0 0.765625,0.421875 0.765625,1 0,0.40625 -0.046875,0.640625 -0.125,0.921875 l -1.65625,6.59375 c -0.015625,0.0625 -0.046875,0.15625 -0.046875,0.234375 0,0.21875 0.171875,0.359375 0.390625,0.359375 0.125,0 0.421875,-0.046875 0.53125,-0.484375 z m 0,0"
               id="id-75978b26-4322-4856-9a1f-2465575ef5c3" />
          </g>
        </g>
      </defs>
      <g
         fill="#000000"
         fill-opacity="1"
         id="id-02f84620-2653-487c-ad7e-8ba9b8cec1b8"
         transform="translate(-294.306, -60.5559)">
        <g
           transform="translate(293.915, 66.884)"
           id="g4681">
          <path
             d="m 6.8125,-3.96875 c 0.078125,-0.296875 0.109375,-0.46875 0.109375,-0.84375 0,-0.875 -0.5,-1.515625 -1.59375,-1.515625 -1.265625,0 -1.9375,0.90625 -2.203125,1.265625 C 3.078125,-5.875 2.5,-6.328125 1.859375,-6.328125 c -0.40625,0 -0.734375,0.203125 -1.015625,0.75 -0.25,0.515625 -0.453125,1.390625 -0.453125,1.453125 0,0.046875 0.046875,0.125 0.15625,0.125 0.109375,0 0.125,-0.015625 0.21875,-0.34375 0.203125,-0.84375 0.484375,-1.6875 1.0625,-1.6875 0.328125,0 0.4375,0.21875 0.4375,0.65625 0,0.3125 -0.140625,0.875 -0.25,1.3125 L 1.625,-2.515625 c -0.0625,0.28125 -0.21875,0.921875 -0.296875,1.1875 -0.09375,0.359375 -0.25,1.046875 -0.25,1.109375 0,0.203125 0.15625,0.359375 0.375,0.359375 0.171875,0 0.375,-0.078125 0.484375,-0.296875 0.03125,-0.078125 0.15625,-0.578125 0.234375,-0.859375 l 0.3125,-1.296875 0.46875,-1.890625 C 2.984375,-4.28125 3.34375,-5 3.875,-5.46875 c 0.375,-0.34375 0.859375,-0.5625 1.421875,-0.5625 0.5625,0 0.765625,0.421875 0.765625,1 0,0.40625 -0.046875,0.640625 -0.125,0.921875 l -1.65625,6.59375 c -0.015625,0.0625 -0.046875,0.15625 -0.046875,0.234375 0,0.21875 0.171875,0.359375 0.390625,0.359375 0.125,0 0.421875,-0.046875 0.53125,-0.484375 z m 0,0"
             id="id-81a683da-ab97-48e1-8389-ebd8a9f7a950" />
        </g>
      </g>
    </g>
    <g
       transform="matrix(0.386514 0 0 0.386514 85.2725 192.823)"
       ns1:version="1.8.2"
       ns1:texconverter="pdflatex"
       ns1:pdfconverter="inkscape"
       ns1:text="$$\\tilde \\eta$$"
       ns1:preamble="/home/buyolitsez/.config/inkscape/extensions/textext/default_packages.tex"
       ns1:scale="1.09563089851748"
       ns1:alignment="middle center"
       ns1:stroke-to-path="0"
       ns1:inkscapeversion="1.2.2"
       ns1:jacobian_sqrt="0.386514"
       id="g4725">
      <defs
         id="id-1cdc5760-ff23-4fc1-b1e8-58dde68fdf2b">
        <g
           id="id-7b82112e-b83d-412a-a59f-d09f1c746dd1">
          <g
             id="id-3600a247-a9b8-49fb-969a-b9956658b832" />
          <g
             id="id-b77e2d53-7459-4e66-bc8c-9f2188f6e505">
            <path
               d="m 5.640625,-9.53125 c -0.421875,0.421875 -0.71875,0.703125 -1.1875,0.703125 -0.203125,0 -0.40625,-0.03125 -0.859375,-0.34375 C 3.3125,-9.34375 3.03125,-9.53125 2.703125,-9.53125 c -0.53125,0 -0.859375,0.359375 -1.53125,1.109375 L 1.375,-8.21875 c 0.421875,-0.421875 0.71875,-0.703125 1.171875,-0.703125 0.21875,0 0.421875,0.046875 0.859375,0.34375 0.296875,0.171875 0.578125,0.359375 0.90625,0.359375 0.53125,0 0.84375,-0.359375 1.53125,-1.109375 z m 0,0"
               id="id-493474fb-2a5a-44cf-8840-029c47496348" />
          </g>
          <g
             id="id-51951501-46d3-4910-b210-af9e248286c6" />
          <g
             id="id-1c9b353d-4e92-440b-a20e-8ad17499e478">
            <path
               d="m 6.8125,-3.96875 c 0.078125,-0.296875 0.109375,-0.46875 0.109375,-0.84375 0,-0.875 -0.5,-1.515625 -1.59375,-1.515625 -1.265625,0 -1.9375,0.90625 -2.203125,1.265625 C 3.078125,-5.875 2.5,-6.328125 1.859375,-6.328125 c -0.40625,0 -0.734375,0.203125 -1.015625,0.75 -0.25,0.515625 -0.453125,1.390625 -0.453125,1.453125 0,0.046875 0.046875,0.125 0.15625,0.125 0.109375,0 0.125,-0.015625 0.21875,-0.34375 0.203125,-0.84375 0.484375,-1.6875 1.0625,-1.6875 0.328125,0 0.4375,0.21875 0.4375,0.65625 0,0.3125 -0.140625,0.875 -0.25,1.3125 L 1.625,-2.515625 c -0.0625,0.28125 -0.21875,0.921875 -0.296875,1.1875 -0.09375,0.359375 -0.25,1.046875 -0.25,1.109375 0,0.203125 0.15625,0.359375 0.375,0.359375 0.171875,0 0.375,-0.078125 0.484375,-0.296875 0.03125,-0.078125 0.15625,-0.578125 0.234375,-0.859375 l 0.3125,-1.296875 0.46875,-1.890625 C 2.984375,-4.28125 3.34375,-5 3.875,-5.46875 c 0.375,-0.34375 0.859375,-0.5625 1.421875,-0.5625 0.5625,0 0.765625,0.421875 0.765625,1 0,0.40625 -0.046875,0.640625 -0.125,0.921875 l -1.65625,6.59375 c -0.015625,0.0625 -0.046875,0.15625 -0.046875,0.234375 0,0.21875 0.171875,0.359375 0.390625,0.359375 0.125,0 0.421875,-0.046875 0.53125,-0.484375 z m 0,0"
               id="id-d412ae88-40a7-40b9-bc8d-855fc62645b4" />
          </g>
        </g>
      </defs>
      <g
         fill="#000000"
         fill-opacity="1"
         id="id-c719c709-4f93-4a2a-90d4-69a914e21ffa"
         transform="translate(-294.306, -57.3528)">
        <g
           transform="translate(294.906, 66.884)"
           id="g6355">
          <path
             d="m 5.640625,-9.53125 c -0.421875,0.421875 -0.71875,0.703125 -1.1875,0.703125 -0.203125,0 -0.40625,-0.03125 -0.859375,-0.34375 C 3.3125,-9.34375 3.03125,-9.53125 2.703125,-9.53125 c -0.53125,0 -0.859375,0.359375 -1.53125,1.109375 L 1.375,-8.21875 c 0.421875,-0.421875 0.71875,-0.703125 1.171875,-0.703125 0.21875,0 0.421875,0.046875 0.859375,0.34375 0.296875,0.171875 0.578125,0.359375 0.90625,0.359375 0.53125,0 0.84375,-0.359375 1.53125,-1.109375 z m 0,0"
             id="id-f8b2fe05-9a94-4e67-9672-bd109a6ac68e" />
        </g>
      </g>
      <g
         fill="#000000"
         fill-opacity="1"
         id="id-7ea3ebfc-9173-4cee-ab92-990dad475de5"
         transform="translate(-294.306, -57.3528)">
        <g
           transform="translate(293.915, 66.884)"
           id="g6359">
          <path
             d="m 6.8125,-3.96875 c 0.078125,-0.296875 0.109375,-0.46875 0.109375,-0.84375 0,-0.875 -0.5,-1.515625 -1.59375,-1.515625 -1.265625,0 -1.9375,0.90625 -2.203125,1.265625 C 3.078125,-5.875 2.5,-6.328125 1.859375,-6.328125 c -0.40625,0 -0.734375,0.203125 -1.015625,0.75 -0.25,0.515625 -0.453125,1.390625 -0.453125,1.453125 0,0.046875 0.046875,0.125 0.15625,0.125 0.109375,0 0.125,-0.015625 0.21875,-0.34375 0.203125,-0.84375 0.484375,-1.6875 1.0625,-1.6875 0.328125,0 0.4375,0.21875 0.4375,0.65625 0,0.3125 -0.140625,0.875 -0.25,1.3125 L 1.625,-2.515625 c -0.0625,0.28125 -0.21875,0.921875 -0.296875,1.1875 -0.09375,0.359375 -0.25,1.046875 -0.25,1.109375 0,0.203125 0.15625,0.359375 0.375,0.359375 0.171875,0 0.375,-0.078125 0.484375,-0.296875 0.03125,-0.078125 0.15625,-0.578125 0.234375,-0.859375 l 0.3125,-1.296875 0.46875,-1.890625 C 2.984375,-4.28125 3.34375,-5 3.875,-5.46875 c 0.375,-0.34375 0.859375,-0.5625 1.421875,-0.5625 0.5625,0 0.765625,0.421875 0.765625,1 0,0.40625 -0.046875,0.640625 -0.125,0.921875 l -1.65625,6.59375 c -0.015625,0.0625 -0.046875,0.15625 -0.046875,0.234375 0,0.21875 0.171875,0.359375 0.390625,0.359375 0.125,0 0.421875,-0.046875 0.53125,-0.484375 z m 0,0"
             id="id-99345497-c4e5-4ca7-9fb4-2551390c5dec" />
        </g>
      </g>
    </g>
  </g>
</svg>
